<svg width="413" height="456" viewBox="0 0 413 456" fill="none" xmlns="http://www.w3.org/2000/svg">
<rect y="46" width="373" height="410" rx="12" fill="white"/>
<rect x="27.5" y="136.5" width="313" height="107" rx="9.5" stroke="black"/>
<rect x="27.5" y="256.5" width="313" height="51" rx="9.5" stroke="#023347"/>
<rect x="30.5" y="320.5" width="313" height="51" rx="9.5" stroke="#023347"/>
<rect x="30.5" y="384.5" width="313" height="43" rx="9.5" fill="#023347" stroke="black"/>
<path d="M174.409 411V399.364H178.341C179.254 399.364 180 399.528 180.58 399.858C181.163 400.184 181.595 400.625 181.875 401.182C182.155 401.739 182.295 402.36 182.295 403.045C182.295 403.731 182.155 404.354 181.875 404.915C181.598 405.475 181.17 405.922 180.591 406.256C180.011 406.585 179.269 406.75 178.364 406.75H175.545V405.5H178.318C178.943 405.5 179.445 405.392 179.824 405.176C180.203 404.96 180.477 404.669 180.648 404.301C180.822 403.93 180.909 403.511 180.909 403.045C180.909 402.58 180.822 402.163 180.648 401.795C180.477 401.428 180.201 401.14 179.818 400.932C179.436 400.72 178.928 400.614 178.295 400.614H175.818V411H174.409ZM186.952 411.205C186.399 411.205 185.897 411.1 185.446 410.892C184.995 410.68 184.637 410.375 184.372 409.977C184.107 409.576 183.974 409.091 183.974 408.523C183.974 408.023 184.073 407.617 184.27 407.307C184.467 406.992 184.73 406.746 185.06 406.568C185.389 406.39 185.753 406.258 186.151 406.17C186.552 406.08 186.955 406.008 187.361 405.955C187.891 405.886 188.321 405.835 188.651 405.801C188.984 405.763 189.226 405.701 189.378 405.614C189.533 405.527 189.611 405.375 189.611 405.159V405.114C189.611 404.553 189.457 404.117 189.151 403.807C188.848 403.496 188.387 403.341 187.77 403.341C187.13 403.341 186.628 403.481 186.264 403.761C185.901 404.042 185.645 404.341 185.497 404.659L184.224 404.205C184.452 403.674 184.755 403.261 185.134 402.966C185.516 402.667 185.933 402.458 186.384 402.341C186.838 402.22 187.285 402.159 187.724 402.159C188.005 402.159 188.327 402.193 188.69 402.261C189.058 402.326 189.412 402.46 189.753 402.665C190.098 402.869 190.384 403.178 190.611 403.591C190.838 404.004 190.952 404.557 190.952 405.25V411H189.611V409.818H189.543C189.452 410.008 189.3 410.21 189.088 410.426C188.876 410.642 188.594 410.826 188.241 410.977C187.889 411.129 187.459 411.205 186.952 411.205ZM187.156 410C187.687 410 188.134 409.896 188.497 409.688C188.865 409.479 189.141 409.21 189.327 408.881C189.516 408.551 189.611 408.205 189.611 407.841V406.614C189.554 406.682 189.429 406.744 189.236 406.801C189.046 406.854 188.827 406.902 188.577 406.943C188.33 406.981 188.09 407.015 187.855 407.045C187.624 407.072 187.437 407.095 187.293 407.114C186.944 407.159 186.618 407.233 186.315 407.335C186.016 407.434 185.774 407.583 185.588 407.784C185.406 407.981 185.315 408.25 185.315 408.591C185.315 409.057 185.488 409.409 185.832 409.648C186.181 409.883 186.622 410 187.156 410ZM193.95 414.273C193.723 414.273 193.52 414.254 193.342 414.216C193.164 414.182 193.041 414.148 192.973 414.114L193.314 412.932C193.64 413.015 193.928 413.045 194.178 413.023C194.428 413 194.649 412.888 194.842 412.688C195.039 412.491 195.219 412.17 195.382 411.727L195.632 411.045L192.405 402.273H193.859L196.268 409.227H196.359L198.768 402.273H200.223L196.518 412.273C196.352 412.723 196.145 413.097 195.899 413.392C195.653 413.691 195.367 413.913 195.041 414.057C194.719 414.201 194.356 414.273 193.95 414.273Z" fill="white"/>
<path d="M77.0568 346V337.273H80.108C80.7159 337.273 81.2173 337.378 81.6122 337.588C82.0071 337.795 82.3011 338.075 82.4943 338.428C82.6875 338.777 82.7841 339.165 82.7841 339.591C82.7841 339.966 82.7173 340.276 82.5838 340.52C82.4531 340.764 82.2798 340.957 82.0639 341.099C81.8509 341.241 81.6193 341.347 81.3693 341.415V341.5C81.6364 341.517 81.9048 341.611 82.1747 341.781C82.4446 341.952 82.6705 342.196 82.8523 342.514C83.0341 342.832 83.125 343.222 83.125 343.682C83.125 344.119 83.0256 344.513 82.8267 344.862C82.6278 345.212 82.3139 345.489 81.8849 345.693C81.456 345.898 80.8977 346 80.2102 346H77.0568ZM78.1136 345.062H80.2102C80.9006 345.062 81.3906 344.929 81.6804 344.662C81.973 344.392 82.1193 344.065 82.1193 343.682C82.1193 343.386 82.044 343.114 81.8935 342.864C81.7429 342.611 81.5284 342.409 81.25 342.259C80.9716 342.105 80.642 342.028 80.2614 342.028H78.1136V345.062ZM78.1136 341.108H80.0739C80.392 341.108 80.679 341.045 80.9347 340.92C81.1932 340.795 81.3977 340.619 81.5483 340.392C81.7017 340.165 81.7784 339.898 81.7784 339.591C81.7784 339.207 81.6449 338.882 81.3778 338.615C81.1108 338.345 80.6875 338.21 80.108 338.21H78.1136V341.108ZM86.6513 346.153C86.2365 346.153 85.8601 346.075 85.522 345.919C85.1839 345.76 84.9155 345.531 84.7166 345.233C84.5178 344.932 84.4183 344.568 84.4183 344.142C84.4183 343.767 84.4922 343.463 84.6399 343.23C84.7876 342.994 84.9851 342.81 85.2322 342.676C85.4794 342.543 85.7521 342.443 86.0504 342.378C86.3516 342.31 86.6541 342.256 86.9581 342.216C87.3558 342.165 87.6783 342.126 87.9254 342.101C88.1754 342.072 88.3572 342.026 88.4709 341.96C88.5874 341.895 88.6456 341.781 88.6456 341.619V341.585C88.6456 341.165 88.5305 340.838 88.3004 340.605C88.0732 340.372 87.728 340.256 87.2649 340.256C86.7848 340.256 86.4084 340.361 86.1357 340.571C85.8629 340.781 85.6712 341.006 85.5604 341.244L84.6058 340.903C84.7763 340.506 85.0036 340.196 85.2876 339.974C85.5746 339.75 85.8871 339.594 86.2251 339.506C86.5661 339.415 86.9013 339.369 87.2308 339.369C87.4411 339.369 87.6825 339.395 87.9553 339.446C88.2308 339.494 88.4964 339.595 88.7521 339.749C89.0107 339.902 89.2251 340.134 89.3956 340.443C89.5661 340.753 89.6513 341.168 89.6513 341.688V346H88.6456V345.114H88.5945C88.5263 345.256 88.4126 345.408 88.2536 345.57C88.0945 345.732 87.8828 345.869 87.6186 345.983C87.3544 346.097 87.032 346.153 86.6513 346.153ZM86.8047 345.25C87.2024 345.25 87.5376 345.172 87.8104 345.016C88.0859 344.859 88.2933 344.658 88.4325 344.411C88.5746 344.163 88.6456 343.903 88.6456 343.631V342.71C88.603 342.761 88.5092 342.808 88.3643 342.851C88.2223 342.891 88.0575 342.926 87.87 342.957C87.6854 342.986 87.505 343.011 87.3288 343.034C87.1555 343.054 87.0149 343.071 86.907 343.085C86.6456 343.119 86.4013 343.175 86.174 343.251C85.9496 343.325 85.7678 343.437 85.6286 343.588C85.4922 343.736 85.424 343.937 85.424 344.193C85.424 344.543 85.5533 344.807 85.8118 344.986C86.0732 345.162 86.4041 345.25 86.8047 345.25ZM92.4925 342.062V346H91.4869V339.455H92.4585V340.477H92.5437C92.6971 340.145 92.93 339.878 93.2425 339.676C93.555 339.472 93.9585 339.369 94.4528 339.369C94.896 339.369 95.2837 339.46 95.6161 339.642C95.9485 339.821 96.207 340.094 96.3917 340.46C96.5763 340.824 96.6687 341.284 96.6687 341.841V346H95.663V341.909C95.663 341.395 95.5295 340.994 95.2624 340.707C94.9954 340.418 94.6289 340.273 94.163 340.273C93.842 340.273 93.555 340.342 93.3022 340.482C93.0522 340.621 92.8548 340.824 92.7099 341.091C92.565 341.358 92.4925 341.682 92.4925 342.062ZM99.4439 343.614L99.4268 342.369H99.6314L102.495 339.455H103.739L100.688 342.54H100.603L99.4439 343.614ZM98.5064 346V337.273H99.5121V346H98.5064ZM102.665 346L100.109 342.761L100.825 342.062L103.944 346H102.665ZM110.335 346.153C109.92 346.153 109.544 346.075 109.206 345.919C108.868 345.76 108.599 345.531 108.4 345.233C108.201 344.932 108.102 344.568 108.102 344.142C108.102 343.767 108.176 343.463 108.324 343.23C108.471 342.994 108.669 342.81 108.916 342.676C109.163 342.543 109.436 342.443 109.734 342.378C110.035 342.31 110.338 342.256 110.642 342.216C111.039 342.165 111.362 342.126 111.609 342.101C111.859 342.072 112.041 342.026 112.154 341.96C112.271 341.895 112.329 341.781 112.329 341.619V341.585C112.329 341.165 112.214 340.838 111.984 340.605C111.757 340.372 111.412 340.256 110.949 340.256C110.468 340.256 110.092 340.361 109.819 340.571C109.547 340.781 109.355 341.006 109.244 341.244L108.289 340.903C108.46 340.506 108.687 340.196 108.971 339.974C109.258 339.75 109.571 339.594 109.909 339.506C110.25 339.415 110.585 339.369 110.914 339.369C111.125 339.369 111.366 339.395 111.639 339.446C111.914 339.494 112.18 339.595 112.436 339.749C112.694 339.902 112.909 340.134 113.079 340.443C113.25 340.753 113.335 341.168 113.335 341.688V346H112.329V345.114H112.278C112.21 345.256 112.096 345.408 111.937 345.57C111.778 345.732 111.566 345.869 111.302 345.983C111.038 346.097 110.716 346.153 110.335 346.153ZM110.488 345.25C110.886 345.25 111.221 345.172 111.494 345.016C111.77 344.859 111.977 344.658 112.116 344.411C112.258 344.163 112.329 343.903 112.329 343.631V342.71C112.287 342.761 112.193 342.808 112.048 342.851C111.906 342.891 111.741 342.926 111.554 342.957C111.369 342.986 111.189 343.011 111.012 343.034C110.839 343.054 110.699 343.071 110.591 343.085C110.329 343.119 110.085 343.175 109.858 343.251C109.633 343.325 109.451 343.437 109.312 343.588C109.176 343.736 109.108 343.937 109.108 344.193C109.108 344.543 109.237 344.807 109.495 344.986C109.757 345.162 110.088 345.25 110.488 345.25ZM117.83 346.136C117.216 346.136 116.688 345.991 116.244 345.702C115.801 345.412 115.46 345.013 115.222 344.504C114.983 343.996 114.864 343.415 114.864 342.761C114.864 342.097 114.986 341.51 115.23 341.001C115.477 340.49 115.821 340.091 116.261 339.804C116.705 339.514 117.222 339.369 117.812 339.369C118.273 339.369 118.688 339.455 119.057 339.625C119.426 339.795 119.729 340.034 119.964 340.341C120.2 340.648 120.347 341.006 120.403 341.415H119.398C119.321 341.116 119.151 340.852 118.886 340.622C118.625 340.389 118.273 340.273 117.83 340.273C117.438 340.273 117.094 340.375 116.798 340.58C116.506 340.781 116.277 341.067 116.112 341.436C115.95 341.803 115.869 342.233 115.869 342.727C115.869 343.233 115.949 343.673 116.108 344.048C116.27 344.423 116.497 344.714 116.79 344.922C117.085 345.129 117.432 345.233 117.83 345.233C118.091 345.233 118.328 345.188 118.541 345.097C118.754 345.006 118.935 344.875 119.082 344.705C119.23 344.534 119.335 344.33 119.398 344.091H120.403C120.347 344.477 120.206 344.825 119.982 345.135C119.76 345.442 119.466 345.686 119.099 345.868C118.736 346.047 118.313 346.136 117.83 346.136ZM124.533 346.136C123.919 346.136 123.391 345.991 122.947 345.702C122.504 345.412 122.163 345.013 121.925 344.504C121.686 343.996 121.567 343.415 121.567 342.761C121.567 342.097 121.689 341.51 121.933 341.001C122.18 340.49 122.524 340.091 122.964 339.804C123.408 339.514 123.925 339.369 124.516 339.369C124.976 339.369 125.391 339.455 125.76 339.625C126.129 339.795 126.432 340.034 126.668 340.341C126.903 340.648 127.05 341.006 127.107 341.415H126.101C126.024 341.116 125.854 340.852 125.589 340.622C125.328 340.389 124.976 340.273 124.533 340.273C124.141 340.273 123.797 340.375 123.501 340.58C123.209 340.781 122.98 341.067 122.815 341.436C122.653 341.803 122.572 342.233 122.572 342.727C122.572 343.233 122.652 343.673 122.811 344.048C122.973 344.423 123.2 344.714 123.493 344.922C123.788 345.129 124.135 345.233 124.533 345.233C124.794 345.233 125.031 345.188 125.244 345.097C125.457 345.006 125.638 344.875 125.786 344.705C125.933 344.534 126.038 344.33 126.101 344.091H127.107C127.05 344.477 126.909 344.825 126.685 345.135C126.463 345.442 126.169 345.686 125.803 345.868C125.439 346.047 125.016 346.136 124.533 346.136ZM131.236 346.136C130.645 346.136 130.126 345.996 129.68 345.714C129.237 345.433 128.891 345.04 128.641 344.534C128.393 344.028 128.27 343.437 128.27 342.761C128.27 342.08 128.393 341.484 128.641 340.976C128.891 340.467 129.237 340.072 129.68 339.791C130.126 339.51 130.645 339.369 131.236 339.369C131.827 339.369 132.344 339.51 132.787 339.791C133.233 340.072 133.58 340.467 133.827 340.976C134.077 341.484 134.202 342.08 134.202 342.761C134.202 343.437 134.077 344.028 133.827 344.534C133.58 345.04 133.233 345.433 132.787 345.714C132.344 345.996 131.827 346.136 131.236 346.136ZM131.236 345.233C131.685 345.233 132.054 345.118 132.344 344.888C132.634 344.658 132.848 344.355 132.987 343.98C133.126 343.605 133.196 343.199 133.196 342.761C133.196 342.324 133.126 341.916 132.987 341.538C132.848 341.161 132.634 340.855 132.344 340.622C132.054 340.389 131.685 340.273 131.236 340.273C130.787 340.273 130.418 340.389 130.128 340.622C129.838 340.855 129.624 341.161 129.484 341.538C129.345 341.916 129.276 342.324 129.276 342.761C129.276 343.199 129.345 343.605 129.484 343.98C129.624 344.355 129.838 344.658 130.128 344.888C130.418 345.118 130.787 345.233 131.236 345.233ZM139.862 343.324V339.455H140.868V346H139.862V344.892H139.794C139.64 345.224 139.402 345.507 139.078 345.74C138.754 345.97 138.345 346.085 137.85 346.085C137.441 346.085 137.078 345.996 136.76 345.817C136.441 345.635 136.191 345.362 136.01 344.999C135.828 344.632 135.737 344.17 135.737 343.614V339.455H136.743V343.545C136.743 344.023 136.876 344.403 137.143 344.688C137.413 344.972 137.757 345.114 138.174 345.114C138.424 345.114 138.679 345.05 138.937 344.922C139.199 344.794 139.417 344.598 139.593 344.334C139.772 344.07 139.862 343.733 139.862 343.324ZM143.715 342.062V346H142.71V339.455H143.681V340.477H143.766C143.92 340.145 144.153 339.878 144.465 339.676C144.778 339.472 145.181 339.369 145.675 339.369C146.119 339.369 146.506 339.46 146.839 339.642C147.171 339.821 147.43 340.094 147.614 340.46C147.799 340.824 147.891 341.284 147.891 341.841V346H146.886V341.909C146.886 341.395 146.752 340.994 146.485 340.707C146.218 340.418 145.852 340.273 145.386 340.273C145.065 340.273 144.778 340.342 144.525 340.482C144.275 340.621 144.077 340.824 143.933 341.091C143.788 341.358 143.715 341.682 143.715 342.062ZM152.576 339.455V340.307H149.184V339.455H152.576ZM150.172 337.886H151.178V344.125C151.178 344.409 151.219 344.622 151.301 344.764C151.387 344.903 151.495 344.997 151.625 345.045C151.759 345.091 151.9 345.114 152.047 345.114C152.158 345.114 152.249 345.108 152.32 345.097C152.391 345.082 152.448 345.071 152.49 345.062L152.695 345.966C152.627 345.991 152.532 346.017 152.409 346.043C152.287 346.071 152.132 346.085 151.945 346.085C151.661 346.085 151.382 346.024 151.11 345.902C150.84 345.78 150.615 345.594 150.436 345.344C150.26 345.094 150.172 344.778 150.172 344.398V337.886Z" fill="black"/>
<path d="M84.0795 282H83.0227C82.9602 281.696 82.8509 281.429 82.6946 281.199C82.5412 280.969 82.3537 280.776 82.1321 280.619C81.9134 280.46 81.6705 280.341 81.4034 280.261C81.1364 280.182 80.858 280.142 80.5682 280.142C80.0398 280.142 79.5611 280.276 79.1321 280.543C78.706 280.81 78.3665 281.203 78.1136 281.723C77.8636 282.243 77.7386 282.881 77.7386 283.636C77.7386 284.392 77.8636 285.03 78.1136 285.55C78.3665 286.07 78.706 286.463 79.1321 286.73C79.5611 286.997 80.0398 287.131 80.5682 287.131C80.858 287.131 81.1364 287.091 81.4034 287.011C81.6705 286.932 81.9134 286.814 82.1321 286.658C82.3537 286.499 82.5412 286.304 82.6946 286.074C82.8509 285.841 82.9602 285.574 83.0227 285.273H84.0795C84 285.719 83.8551 286.118 83.6449 286.47C83.4347 286.822 83.1733 287.122 82.8608 287.369C82.5483 287.614 82.1974 287.8 81.8082 287.928C81.4219 288.055 81.0085 288.119 80.5682 288.119C79.8239 288.119 79.1619 287.938 78.5824 287.574C78.0028 287.21 77.5469 286.693 77.2145 286.023C76.8821 285.352 76.7159 284.557 76.7159 283.636C76.7159 282.716 76.8821 281.92 77.2145 281.25C77.5469 280.58 78.0028 280.062 78.5824 279.699C79.1619 279.335 79.8239 279.153 80.5682 279.153C81.0085 279.153 81.4219 279.217 81.8082 279.345C82.1974 279.473 82.5483 279.661 82.8608 279.908C83.1733 280.152 83.4347 280.45 83.6449 280.803C83.8551 281.152 84 281.551 84.0795 282ZM85.6509 288V281.455H86.6225V282.443H86.6907C86.81 282.119 87.0259 281.857 87.3384 281.655C87.6509 281.453 88.0032 281.352 88.3952 281.352C88.4691 281.352 88.5614 281.354 88.6722 281.357C88.783 281.359 88.8668 281.364 88.9237 281.369V282.392C88.8896 282.384 88.8114 282.371 88.6893 282.354C88.57 282.334 88.4435 282.324 88.31 282.324C87.9918 282.324 87.7077 282.391 87.4577 282.524C87.2106 282.655 87.0146 282.837 86.8697 283.07C86.7276 283.3 86.6566 283.562 86.6566 283.858V288H85.6509ZM92.6609 288.136C92.0302 288.136 91.4862 287.997 91.0288 287.719C90.5742 287.438 90.2234 287.045 89.9762 286.543C89.7319 286.037 89.6097 285.449 89.6097 284.778C89.6097 284.108 89.7319 283.517 89.9762 283.006C90.2234 282.491 90.5671 282.091 91.0075 281.804C91.4506 281.514 91.9677 281.369 92.5586 281.369C92.8995 281.369 93.2362 281.426 93.5685 281.54C93.9009 281.653 94.2035 281.838 94.4762 282.094C94.7489 282.347 94.9663 282.682 95.1282 283.099C95.2901 283.517 95.3711 284.031 95.3711 284.642V285.068H90.3256V284.199H94.3484C94.3484 283.83 94.2745 283.5 94.1268 283.21C93.9819 282.92 93.7745 282.692 93.5046 282.524C93.2376 282.357 92.9222 282.273 92.5586 282.273C92.158 282.273 91.8114 282.372 91.5188 282.571C91.229 282.767 91.006 283.023 90.8498 283.338C90.6935 283.653 90.6154 283.991 90.6154 284.352V284.932C90.6154 285.426 90.7006 285.845 90.8711 286.189C91.0444 286.53 91.2844 286.79 91.5913 286.969C91.8981 287.145 92.2546 287.233 92.6609 287.233C92.9251 287.233 93.1637 287.196 93.3768 287.122C93.5927 287.045 93.7788 286.932 93.935 286.781C94.0913 286.628 94.212 286.437 94.2972 286.21L95.2688 286.483C95.1665 286.812 94.9947 287.102 94.7532 287.352C94.5117 287.599 94.2134 287.793 93.8583 287.932C93.5032 288.068 93.104 288.136 92.6609 288.136ZM99.3725 288.136C98.8271 288.136 98.3455 287.999 97.9279 287.723C97.5103 287.445 97.1836 287.053 96.9478 286.547C96.712 286.038 96.5941 285.438 96.5941 284.744C96.5941 284.057 96.712 283.46 96.9478 282.955C97.1836 282.449 97.5117 282.058 97.9322 281.783C98.3526 281.507 98.8384 281.369 99.3896 281.369C99.8157 281.369 100.152 281.44 100.4 281.582C100.65 281.722 100.84 281.881 100.971 282.06C101.104 282.236 101.208 282.381 101.282 282.494H101.367V279.273H102.373V288H101.401V286.994H101.282C101.208 287.114 101.103 287.264 100.966 287.446C100.83 287.625 100.635 287.786 100.382 287.928C100.13 288.067 99.793 288.136 99.3725 288.136ZM99.5089 287.233C99.9123 287.233 100.253 287.128 100.532 286.918C100.81 286.705 101.022 286.411 101.167 286.036C101.311 285.658 101.384 285.222 101.384 284.727C101.384 284.239 101.313 283.811 101.171 283.445C101.029 283.075 100.819 282.788 100.54 282.584C100.262 282.376 99.918 282.273 99.5089 282.273C99.0827 282.273 98.7276 282.382 98.4435 282.601C98.1623 282.817 97.9506 283.111 97.8086 283.483C97.6694 283.852 97.5998 284.267 97.5998 284.727C97.5998 285.193 97.6708 285.616 97.8129 285.997C97.9577 286.375 98.1708 286.676 98.4521 286.901C98.7362 287.122 99.0884 287.233 99.5089 287.233ZM104.354 288V281.455H105.36V288H104.354ZM104.865 280.364C104.669 280.364 104.5 280.297 104.358 280.163C104.219 280.03 104.15 279.869 104.15 279.682C104.15 279.494 104.219 279.334 104.358 279.2C104.5 279.067 104.669 279 104.865 279C105.061 279 105.229 279.067 105.368 279.2C105.51 279.334 105.581 279.494 105.581 279.682C105.581 279.869 105.51 280.03 105.368 280.163C105.229 280.297 105.061 280.364 104.865 280.364ZM110.048 281.455V282.307H106.656V281.455H110.048ZM107.645 279.886H108.651V286.125C108.651 286.409 108.692 286.622 108.774 286.764C108.859 286.903 108.967 286.997 109.098 287.045C109.232 287.091 109.372 287.114 109.52 287.114C109.631 287.114 109.722 287.108 109.793 287.097C109.864 287.082 109.92 287.071 109.963 287.062L110.168 287.966C110.099 287.991 110.004 288.017 109.882 288.043C109.76 288.071 109.605 288.085 109.418 288.085C109.134 288.085 108.855 288.024 108.582 287.902C108.313 287.78 108.088 287.594 107.909 287.344C107.733 287.094 107.645 286.778 107.645 286.398V279.886ZM122.095 282H121.038C120.976 281.696 120.866 281.429 120.71 281.199C120.557 280.969 120.369 280.776 120.148 280.619C119.929 280.46 119.686 280.341 119.419 280.261C119.152 280.182 118.874 280.142 118.584 280.142C118.055 280.142 117.577 280.276 117.148 280.543C116.722 280.81 116.382 281.203 116.129 281.723C115.879 282.243 115.754 282.881 115.754 283.636C115.754 284.392 115.879 285.03 116.129 285.55C116.382 286.07 116.722 286.463 117.148 286.73C117.577 286.997 118.055 287.131 118.584 287.131C118.874 287.131 119.152 287.091 119.419 287.011C119.686 286.932 119.929 286.814 120.148 286.658C120.369 286.499 120.557 286.304 120.71 286.074C120.866 285.841 120.976 285.574 121.038 285.273H122.095C122.016 285.719 121.871 286.118 121.661 286.47C121.45 286.822 121.189 287.122 120.876 287.369C120.564 287.614 120.213 287.8 119.824 287.928C119.438 288.055 119.024 288.119 118.584 288.119C117.839 288.119 117.178 287.938 116.598 287.574C116.018 287.21 115.563 286.693 115.23 286.023C114.898 285.352 114.732 284.557 114.732 283.636C114.732 282.716 114.898 281.92 115.23 281.25C115.563 280.58 116.018 280.062 116.598 279.699C117.178 279.335 117.839 279.153 118.584 279.153C119.024 279.153 119.438 279.217 119.824 279.345C120.213 279.473 120.564 279.661 120.876 279.908C121.189 280.152 121.45 280.45 121.661 280.803C121.871 281.152 122.016 281.551 122.095 282ZM125.593 288.153C125.178 288.153 124.801 288.075 124.463 287.919C124.125 287.76 123.857 287.531 123.658 287.233C123.459 286.932 123.36 286.568 123.36 286.142C123.36 285.767 123.434 285.463 123.581 285.23C123.729 284.994 123.926 284.81 124.174 284.676C124.421 284.543 124.694 284.443 124.992 284.378C125.293 284.31 125.596 284.256 125.9 284.216C126.297 284.165 126.62 284.126 126.867 284.101C127.117 284.072 127.299 284.026 127.412 283.96C127.529 283.895 127.587 283.781 127.587 283.619V283.585C127.587 283.165 127.472 282.838 127.242 282.605C127.015 282.372 126.669 282.256 126.206 282.256C125.726 282.256 125.35 282.361 125.077 282.571C124.804 282.781 124.613 283.006 124.502 283.244L123.547 282.903C123.718 282.506 123.945 282.196 124.229 281.974C124.516 281.75 124.828 281.594 125.167 281.506C125.507 281.415 125.843 281.369 126.172 281.369C126.382 281.369 126.624 281.395 126.897 281.446C127.172 281.494 127.438 281.595 127.694 281.749C127.952 281.902 128.167 282.134 128.337 282.443C128.507 282.753 128.593 283.168 128.593 283.688V288H127.587V287.114H127.536C127.468 287.256 127.354 287.408 127.195 287.57C127.036 287.732 126.824 287.869 126.56 287.983C126.296 288.097 125.973 288.153 125.593 288.153ZM125.746 287.25C126.144 287.25 126.479 287.172 126.752 287.016C127.027 286.859 127.235 286.658 127.374 286.411C127.516 286.163 127.587 285.903 127.587 285.631V284.71C127.544 284.761 127.451 284.808 127.306 284.851C127.164 284.891 126.999 284.926 126.811 284.957C126.627 284.986 126.446 285.011 126.27 285.034C126.097 285.054 125.956 285.071 125.848 285.085C125.587 285.119 125.343 285.175 125.115 285.251C124.891 285.325 124.709 285.437 124.57 285.588C124.434 285.736 124.365 285.937 124.365 286.193C124.365 286.543 124.495 286.807 124.753 286.986C125.015 287.162 125.346 287.25 125.746 287.25ZM130.428 288V281.455H131.4V282.443H131.468C131.587 282.119 131.803 281.857 132.116 281.655C132.428 281.453 132.781 281.352 133.173 281.352C133.246 281.352 133.339 281.354 133.45 281.357C133.56 281.359 133.644 281.364 133.701 281.369V282.392C133.667 282.384 133.589 282.371 133.467 282.354C133.347 282.334 133.221 282.324 133.087 282.324C132.769 282.324 132.485 282.391 132.235 282.524C131.988 282.655 131.792 282.837 131.647 283.07C131.505 283.3 131.434 283.562 131.434 283.858V288H130.428ZM137.165 288.136C136.62 288.136 136.138 287.999 135.721 287.723C135.303 287.445 134.977 287.053 134.741 286.547C134.505 286.038 134.387 285.438 134.387 284.744C134.387 284.057 134.505 283.46 134.741 282.955C134.977 282.449 135.305 282.058 135.725 281.783C136.146 281.507 136.631 281.369 137.183 281.369C137.609 281.369 137.945 281.44 138.192 281.582C138.442 281.722 138.633 281.881 138.763 282.06C138.897 282.236 139.001 282.381 139.075 282.494H139.16V279.273H140.165V288H139.194V286.994H139.075C139.001 287.114 138.896 287.264 138.759 287.446C138.623 287.625 138.428 287.786 138.175 287.928C137.923 288.067 137.586 288.136 137.165 288.136ZM137.302 287.233C137.705 287.233 138.046 287.128 138.325 286.918C138.603 286.705 138.815 286.411 138.96 286.036C139.104 285.658 139.177 285.222 139.177 284.727C139.177 284.239 139.106 283.811 138.964 283.445C138.822 283.075 138.612 282.788 138.333 282.584C138.055 282.376 137.711 282.273 137.302 282.273C136.876 282.273 136.521 282.382 136.237 282.601C135.955 282.817 135.744 283.111 135.602 283.483C135.462 283.852 135.393 284.267 135.393 284.727C135.393 285.193 135.464 285.616 135.606 285.997C135.751 286.375 135.964 286.676 136.245 286.901C136.529 287.122 136.881 287.233 137.302 287.233Z" fill="black"/>
<path d="M87.75 86H85.0568V77.2727H87.8693C88.7159 77.2727 89.4403 77.4474 90.0426 77.7969C90.6449 78.1435 91.1065 78.642 91.4276 79.2926C91.7486 79.9403 91.9091 80.7159 91.9091 81.6193C91.9091 82.5284 91.7472 83.3111 91.4233 83.9673C91.0994 84.6207 90.6278 85.1236 90.0085 85.4759C89.3892 85.8253 88.6364 86 87.75 86ZM86.1136 85.0625H87.6818C88.4034 85.0625 89.0014 84.9233 89.4759 84.6449C89.9503 84.3665 90.304 83.9702 90.5369 83.456C90.7699 82.9418 90.8864 82.3295 90.8864 81.6193C90.8864 80.9148 90.7713 80.3082 90.5412 79.7997C90.3111 79.2884 89.9673 78.8963 89.5099 78.6236C89.0526 78.348 88.483 78.2102 87.8011 78.2102H86.1136V85.0625ZM93.5455 86V79.4545H94.5511V86H93.5455ZM94.0568 78.3636C93.8608 78.3636 93.6918 78.2969 93.5497 78.1634C93.4105 78.0298 93.3409 77.8693 93.3409 77.6818C93.3409 77.4943 93.4105 77.3338 93.5497 77.2003C93.6918 77.0668 93.8608 77 94.0568 77C94.2528 77 94.4205 77.0668 94.5597 77.2003C94.7017 77.3338 94.7727 77.4943 94.7727 77.6818C94.7727 77.8693 94.7017 78.0298 94.5597 78.1634C94.4205 78.2969 94.2528 78.3636 94.0568 78.3636ZM96.3931 88.4545V79.4545H97.3647V80.4943H97.484C97.5579 80.3807 97.6602 80.2358 97.7908 80.0597C97.9244 79.8807 98.1147 79.7216 98.3619 79.5824C98.6119 79.4403 98.9499 79.3693 99.3761 79.3693C99.9272 79.3693 100.413 79.5071 100.833 79.7827C101.254 80.0582 101.582 80.4489 101.818 80.9545C102.054 81.4602 102.172 82.0568 102.172 82.7443C102.172 83.4375 102.054 84.0384 101.818 84.5469C101.582 85.0526 101.255 85.4446 100.838 85.723C100.42 85.9986 99.9386 86.1364 99.3931 86.1364C98.9727 86.1364 98.636 86.0668 98.3832 85.9276C98.1303 85.7855 97.9357 85.625 97.7994 85.446C97.663 85.2642 97.5579 85.1136 97.484 84.9943H97.3988V88.4545H96.3931ZM97.3817 82.7273C97.3817 83.2216 97.4542 83.6577 97.5991 84.0355C97.744 84.4105 97.9556 84.7045 98.234 84.9176C98.5124 85.1278 98.8533 85.233 99.2567 85.233C99.6772 85.233 100.028 85.1222 100.309 84.9006C100.593 84.6761 100.806 84.375 100.949 83.9972C101.093 83.6165 101.166 83.1932 101.166 82.7273C101.166 82.267 101.095 81.8523 100.953 81.483C100.814 81.1108 100.602 80.8168 100.318 80.6009C100.037 80.3821 99.6829 80.2727 99.2567 80.2727C98.8477 80.2727 98.5039 80.3764 98.2255 80.5838C97.9471 80.7884 97.7369 81.0753 97.5948 81.4446C97.4528 81.8111 97.3817 82.2386 97.3817 82.7273ZM105.632 86.1534C105.217 86.1534 104.841 86.0753 104.502 85.919C104.164 85.7599 103.896 85.5312 103.697 85.233C103.498 84.9318 103.399 84.5682 103.399 84.142C103.399 83.767 103.473 83.4631 103.62 83.2301C103.768 82.9943 103.966 82.8097 104.213 82.6761C104.46 82.5426 104.733 82.4432 105.031 82.3778C105.332 82.3097 105.635 82.2557 105.939 82.2159C106.336 82.1648 106.659 82.1264 106.906 82.1009C107.156 82.0724 107.338 82.0256 107.451 81.9602C107.568 81.8949 107.626 81.7812 107.626 81.6193V81.5852C107.626 81.1648 107.511 80.8381 107.281 80.6051C107.054 80.3722 106.708 80.2557 106.245 80.2557C105.765 80.2557 105.389 80.3608 105.116 80.571C104.843 80.7812 104.652 81.0057 104.541 81.2443L103.586 80.9034C103.757 80.5057 103.984 80.196 104.268 79.9744C104.555 79.75 104.868 79.5937 105.206 79.5057C105.547 79.4148 105.882 79.3693 106.211 79.3693C106.422 79.3693 106.663 79.3949 106.936 79.446C107.211 79.4943 107.477 79.5952 107.733 79.7486C107.991 79.902 108.206 80.1335 108.376 80.4432C108.547 80.7528 108.632 81.1676 108.632 81.6875V86H107.626V85.1136H107.575C107.507 85.2557 107.393 85.4077 107.234 85.5696C107.075 85.7315 106.863 85.8693 106.599 85.983C106.335 86.0966 106.012 86.1534 105.632 86.1534ZM105.785 85.25C106.183 85.25 106.518 85.1719 106.791 85.0156C107.066 84.8594 107.274 84.6577 107.413 84.4105C107.555 84.1634 107.626 83.9034 107.626 83.6307V82.7102C107.583 82.7614 107.49 82.8082 107.345 82.8509C107.203 82.8906 107.038 82.9261 106.85 82.9574C106.666 82.9858 106.485 83.0114 106.309 83.0341C106.136 83.054 105.995 83.071 105.887 83.0852C105.626 83.1193 105.382 83.1747 105.154 83.2514C104.93 83.3253 104.748 83.4375 104.609 83.5881C104.473 83.7358 104.404 83.9375 104.404 84.1932C104.404 84.5426 104.534 84.8068 104.792 84.9858C105.054 85.1619 105.385 85.25 105.785 85.25ZM111.661 77.2727V86H110.604V77.2727H111.661ZM114.649 82.0625V86H113.643V79.4545H114.615V80.4773H114.7C114.853 80.1449 115.086 79.8778 115.399 79.6761C115.711 79.4716 116.115 79.3693 116.609 79.3693C117.052 79.3693 117.44 79.4602 117.772 79.642C118.105 79.821 118.363 80.0938 118.548 80.4602C118.733 80.8239 118.825 81.2841 118.825 81.8409V86H117.819V81.9091C117.819 81.3949 117.686 80.9943 117.419 80.7074C117.152 80.4176 116.785 80.2727 116.319 80.2727C115.998 80.2727 115.711 80.3423 115.458 80.4815C115.208 80.6207 115.011 80.8239 114.866 81.0909C114.721 81.358 114.649 81.6818 114.649 82.0625ZM121.668 82.0625V86H120.663V77.2727H121.668V80.4773H121.754C121.907 80.1392 122.137 79.8707 122.444 79.6719C122.754 79.4702 123.165 79.3693 123.68 79.3693C124.126 79.3693 124.516 79.4588 124.852 79.6378C125.187 79.8139 125.447 80.0852 125.631 80.4517C125.819 80.8153 125.913 81.2784 125.913 81.8409V86H124.907V81.9091C124.907 81.3892 124.772 80.9872 124.502 80.7031C124.235 80.4162 123.864 80.2727 123.39 80.2727C123.06 80.2727 122.765 80.3423 122.504 80.4815C122.245 80.6207 122.04 80.8239 121.89 81.0909C121.742 81.358 121.668 81.6818 121.668 82.0625ZM130.412 86.1364C129.821 86.1364 129.302 85.9957 128.856 85.7145C128.413 85.4332 128.066 85.0398 127.816 84.5341C127.569 84.0284 127.446 83.4375 127.446 82.7614C127.446 82.0795 127.569 81.4844 127.816 80.9759C128.066 80.4673 128.413 80.0724 128.856 79.7912C129.302 79.5099 129.821 79.3693 130.412 79.3693C131.002 79.3693 131.52 79.5099 131.963 79.7912C132.409 80.0724 132.755 80.4673 133.002 80.9759C133.252 81.4844 133.377 82.0795 133.377 82.7614C133.377 83.4375 133.252 84.0284 133.002 84.5341C132.755 85.0398 132.409 85.4332 131.963 85.7145C131.52 85.9957 131.002 86.1364 130.412 86.1364ZM130.412 85.233C130.86 85.233 131.23 85.1179 131.52 84.8878C131.809 84.6577 132.024 84.3551 132.163 83.9801C132.302 83.6051 132.372 83.1989 132.372 82.7614C132.372 82.3239 132.302 81.9162 132.163 81.5384C132.024 81.1605 131.809 80.8551 131.52 80.6222C131.23 80.3892 130.86 80.2727 130.412 80.2727C129.963 80.2727 129.593 80.3892 129.304 80.6222C129.014 80.8551 128.799 81.1605 128.66 81.5384C128.521 81.9162 128.451 82.3239 128.451 82.7614C128.451 83.1989 128.521 83.6051 128.66 83.9801C128.799 84.3551 129.014 84.6577 129.304 84.8878C129.593 85.1179 129.963 85.233 130.412 85.233ZM139.038 83.3239V79.4545H140.043V86H139.038V84.892H138.969C138.816 85.2244 138.577 85.5071 138.254 85.7401C137.93 85.9702 137.521 86.0852 137.026 86.0852C136.617 86.0852 136.254 85.9957 135.935 85.8168C135.617 85.6349 135.367 85.3622 135.185 84.9986C135.004 84.6321 134.913 84.1705 134.913 83.6136V79.4545H135.918V83.5455C135.918 84.0227 136.052 84.4034 136.319 84.6875C136.589 84.9716 136.933 85.1136 137.35 85.1136C137.6 85.1136 137.854 85.0497 138.113 84.9219C138.374 84.794 138.593 84.598 138.769 84.3338C138.948 84.0696 139.038 83.733 139.038 83.3239ZM146.522 80.9205L145.618 81.1761C145.561 81.0256 145.478 80.8793 145.367 80.7372C145.259 80.5923 145.111 80.473 144.924 80.3793C144.736 80.2855 144.496 80.2386 144.203 80.2386C143.803 80.2386 143.469 80.331 143.202 80.5156C142.938 80.6974 142.806 80.929 142.806 81.2102C142.806 81.4602 142.897 81.6577 143.078 81.8026C143.26 81.9474 143.544 82.0682 143.931 82.1648L144.902 82.4034C145.488 82.5455 145.924 82.7628 146.211 83.0554C146.498 83.3452 146.641 83.7187 146.641 84.1761C146.641 84.5511 146.533 84.8864 146.317 85.1818C146.104 85.4773 145.806 85.7102 145.422 85.8807C145.039 86.0511 144.593 86.1364 144.084 86.1364C143.417 86.1364 142.864 85.9915 142.426 85.7017C141.989 85.4119 141.712 84.9886 141.596 84.4318L142.55 84.1932C142.641 84.5455 142.813 84.8097 143.066 84.9858C143.321 85.1619 143.655 85.25 144.067 85.25C144.536 85.25 144.908 85.1506 145.184 84.9517C145.462 84.75 145.601 84.5085 145.601 84.2273C145.601 84 145.522 83.8097 145.363 83.6562C145.203 83.5 144.959 83.3835 144.63 83.3068L143.539 83.0511C142.939 82.9091 142.499 82.6889 142.218 82.3906C141.939 82.0895 141.8 81.7131 141.8 81.2614C141.8 80.892 141.904 80.5653 142.111 80.2812C142.321 79.9972 142.607 79.7741 142.968 79.6122C143.331 79.4503 143.743 79.3693 144.203 79.3693C144.851 79.3693 145.36 79.5114 145.729 79.7955C146.101 80.0795 146.365 80.4545 146.522 80.9205ZM150.899 86.1364C150.268 86.1364 149.724 85.9972 149.267 85.7188C148.812 85.4375 148.462 85.0455 148.214 84.5426C147.97 84.0369 147.848 83.4489 147.848 82.7784C147.848 82.108 147.97 81.517 148.214 81.0057C148.462 80.4915 148.805 80.0909 149.246 79.804C149.689 79.5142 150.206 79.3693 150.797 79.3693C151.138 79.3693 151.474 79.4261 151.807 79.5398C152.139 79.6534 152.442 79.8381 152.714 80.0938C152.987 80.3466 153.205 80.6818 153.366 81.0994C153.528 81.517 153.609 82.0312 153.609 82.642V83.0682H148.564V82.1989H152.587C152.587 81.8295 152.513 81.5 152.365 81.2102C152.22 80.9205 152.013 80.6918 151.743 80.5241C151.476 80.3565 151.161 80.2727 150.797 80.2727C150.396 80.2727 150.05 80.3722 149.757 80.571C149.467 80.767 149.244 81.0227 149.088 81.3381C148.932 81.6534 148.854 81.9915 148.854 82.3523V82.9318C148.854 83.4261 148.939 83.8452 149.109 84.1889C149.283 84.5298 149.523 84.7898 149.83 84.9688C150.136 85.1449 150.493 85.233 150.899 85.233C151.163 85.233 151.402 85.196 151.615 85.1222C151.831 85.0455 152.017 84.9318 152.173 84.7812C152.33 84.6278 152.45 84.4375 152.536 84.2102L153.507 84.483C153.405 84.8125 153.233 85.1023 152.991 85.3523C152.75 85.5994 152.452 85.7926 152.097 85.9318C151.741 86.0682 151.342 86.1364 150.899 86.1364Z" fill="black"/>
<path d="M88.392 108.136C87.8466 108.136 87.3651 107.999 86.9474 107.723C86.5298 107.445 86.2031 107.053 85.9673 106.547C85.7315 106.038 85.6136 105.438 85.6136 104.744C85.6136 104.057 85.7315 103.46 85.9673 102.955C86.2031 102.449 86.5313 102.058 86.9517 101.783C87.3722 101.507 87.858 101.369 88.4091 101.369C88.8352 101.369 89.1719 101.44 89.419 101.582C89.669 101.722 89.8594 101.881 89.9901 102.06C90.1236 102.236 90.2273 102.381 90.3011 102.494H90.3864V99.2727H91.392V108H90.4205V106.994H90.3011C90.2273 107.114 90.1222 107.264 89.9858 107.446C89.8494 107.625 89.6548 107.786 89.402 107.928C89.1491 108.067 88.8125 108.136 88.392 108.136ZM88.5284 107.233C88.9318 107.233 89.2727 107.128 89.5511 106.918C89.8295 106.705 90.0412 106.411 90.1861 106.036C90.331 105.658 90.4034 105.222 90.4034 104.727C90.4034 104.239 90.3324 103.811 90.1903 103.445C90.0483 103.075 89.8381 102.788 89.5597 102.584C89.2813 102.376 88.9375 102.273 88.5284 102.273C88.1023 102.273 87.7472 102.382 87.4631 102.601C87.1818 102.817 86.9702 103.111 86.8281 103.483C86.6889 103.852 86.6193 104.267 86.6193 104.727C86.6193 105.193 86.6903 105.616 86.8324 105.997C86.9773 106.375 87.1903 106.676 87.4716 106.901C87.7557 107.122 88.108 107.233 88.5284 107.233ZM93.3736 108V101.455H94.3793V108H93.3736ZM93.8849 100.364C93.6889 100.364 93.5199 100.297 93.3778 100.163C93.2386 100.03 93.169 99.8693 93.169 99.6818C93.169 99.4943 93.2386 99.3338 93.3778 99.2003C93.5199 99.0668 93.6889 99 93.8849 99C94.081 99 94.2486 99.0668 94.3878 99.2003C94.5298 99.3338 94.6009 99.4943 94.6009 99.6818C94.6009 99.8693 94.5298 100.03 94.3878 100.163C94.2486 100.297 94.081 100.364 93.8849 100.364ZM96.2212 110.455V101.455H97.1928V102.494H97.3121C97.386 102.381 97.4883 102.236 97.619 102.06C97.7525 101.881 97.9428 101.722 98.19 101.582C98.44 101.44 98.7781 101.369 99.2042 101.369C99.7553 101.369 100.241 101.507 100.662 101.783C101.082 102.058 101.41 102.449 101.646 102.955C101.882 103.46 102 104.057 102 104.744C102 105.438 101.882 106.038 101.646 106.547C101.41 107.053 101.083 107.445 100.666 107.723C100.248 107.999 99.7667 108.136 99.2212 108.136C98.8008 108.136 98.4641 108.067 98.2113 107.928C97.9585 107.786 97.7638 107.625 97.6275 107.446C97.4911 107.264 97.386 107.114 97.3121 106.994H97.2269V110.455H96.2212ZM97.2099 104.727C97.2099 105.222 97.2823 105.658 97.4272 106.036C97.5721 106.411 97.7837 106.705 98.0621 106.918C98.3406 107.128 98.6815 107.233 99.0849 107.233C99.5053 107.233 99.8562 107.122 100.137 106.901C100.422 106.676 100.635 106.375 100.777 105.997C100.922 105.616 100.994 105.193 100.994 104.727C100.994 104.267 100.923 103.852 100.781 103.483C100.642 103.111 100.43 102.817 100.146 102.601C99.8647 102.382 99.511 102.273 99.0849 102.273C98.6758 102.273 98.332 102.376 98.0536 102.584C97.7752 102.788 97.565 103.075 97.4229 103.445C97.2809 103.811 97.2099 104.239 97.2099 104.727ZM105.46 108.153C105.045 108.153 104.669 108.075 104.331 107.919C103.993 107.76 103.724 107.531 103.525 107.233C103.326 106.932 103.227 106.568 103.227 106.142C103.227 105.767 103.301 105.463 103.449 105.23C103.596 104.994 103.794 104.81 104.041 104.676C104.288 104.543 104.561 104.443 104.859 104.378C105.16 104.31 105.463 104.256 105.767 104.216C106.164 104.165 106.487 104.126 106.734 104.101C106.984 104.072 107.166 104.026 107.279 103.96C107.396 103.895 107.454 103.781 107.454 103.619V103.585C107.454 103.165 107.339 102.838 107.109 102.605C106.882 102.372 106.537 102.256 106.074 102.256C105.593 102.256 105.217 102.361 104.944 102.571C104.672 102.781 104.48 103.006 104.369 103.244L103.414 102.903C103.585 102.506 103.812 102.196 104.096 101.974C104.383 101.75 104.696 101.594 105.034 101.506C105.375 101.415 105.71 101.369 106.039 101.369C106.25 101.369 106.491 101.395 106.764 101.446C107.039 101.494 107.305 101.595 107.561 101.749C107.819 101.902 108.034 102.134 108.204 102.443C108.375 102.753 108.46 103.168 108.46 103.688V108H107.454V107.114H107.403C107.335 107.256 107.221 107.408 107.062 107.57C106.903 107.732 106.691 107.869 106.427 107.983C106.163 108.097 105.841 108.153 105.46 108.153ZM105.613 107.25C106.011 107.25 106.346 107.172 106.619 107.016C106.895 106.859 107.102 106.658 107.241 106.411C107.383 106.163 107.454 105.903 107.454 105.631V104.71C107.412 104.761 107.318 104.808 107.173 104.851C107.031 104.891 106.866 104.926 106.679 104.957C106.494 104.986 106.314 105.011 106.137 105.034C105.964 105.054 105.824 105.071 105.716 105.085C105.454 105.119 105.21 105.175 104.983 105.251C104.758 105.325 104.576 105.437 104.437 105.588C104.301 105.736 104.233 105.937 104.233 106.193C104.233 106.543 104.362 106.807 104.62 106.986C104.882 107.162 105.213 107.25 105.613 107.25ZM110.295 108V101.455H111.301V108H110.295ZM110.807 100.364C110.611 100.364 110.442 100.297 110.3 100.163C110.161 100.03 110.091 99.8693 110.091 99.6818C110.091 99.4943 110.161 99.3338 110.3 99.2003C110.442 99.0668 110.611 99 110.807 99C111.003 99 111.17 99.0668 111.31 99.2003C111.452 99.3338 111.523 99.4943 111.523 99.6818C111.523 99.8693 111.452 100.03 111.31 100.163C111.17 100.297 111.003 100.364 110.807 100.364ZM114.149 104.062V108H113.143V101.455H114.115V102.477H114.2C114.353 102.145 114.586 101.878 114.899 101.676C115.211 101.472 115.615 101.369 116.109 101.369C116.552 101.369 116.94 101.46 117.272 101.642C117.605 101.821 117.863 102.094 118.048 102.46C118.233 102.824 118.325 103.284 118.325 103.841V108H117.319V103.909C117.319 103.395 117.186 102.994 116.919 102.707C116.652 102.418 116.285 102.273 115.819 102.273C115.498 102.273 115.211 102.342 114.958 102.482C114.708 102.621 114.511 102.824 114.366 103.091C114.221 103.358 114.149 103.682 114.149 104.062ZM121.168 104.062V108H120.163V99.2727H121.168V102.477H121.254C121.407 102.139 121.637 101.871 121.944 101.672C122.254 101.47 122.665 101.369 123.18 101.369C123.626 101.369 124.016 101.459 124.352 101.638C124.687 101.814 124.947 102.085 125.131 102.452C125.319 102.815 125.413 103.278 125.413 103.841V108H124.407V103.909C124.407 103.389 124.272 102.987 124.002 102.703C123.735 102.416 123.364 102.273 122.89 102.273C122.56 102.273 122.265 102.342 122.004 102.482C121.745 102.621 121.54 102.824 121.39 103.091C121.242 103.358 121.168 103.682 121.168 104.062ZM129.912 108.136C129.321 108.136 128.802 107.996 128.356 107.714C127.913 107.433 127.566 107.04 127.316 106.534C127.069 106.028 126.946 105.437 126.946 104.761C126.946 104.08 127.069 103.484 127.316 102.976C127.566 102.467 127.913 102.072 128.356 101.791C128.802 101.51 129.321 101.369 129.912 101.369C130.502 101.369 131.02 101.51 131.463 101.791C131.909 102.072 132.255 102.467 132.502 102.976C132.752 103.484 132.877 104.08 132.877 104.761C132.877 105.437 132.752 106.028 132.502 106.534C132.255 107.04 131.909 107.433 131.463 107.714C131.02 107.996 130.502 108.136 129.912 108.136ZM129.912 107.233C130.36 107.233 130.73 107.118 131.02 106.888C131.309 106.658 131.524 106.355 131.663 105.98C131.802 105.605 131.872 105.199 131.872 104.761C131.872 104.324 131.802 103.916 131.663 103.538C131.524 103.161 131.309 102.855 131.02 102.622C130.73 102.389 130.36 102.273 129.912 102.273C129.463 102.273 129.093 102.389 128.804 102.622C128.514 102.855 128.299 103.161 128.16 103.538C128.021 103.916 127.951 104.324 127.951 104.761C127.951 105.199 128.021 105.605 128.16 105.98C128.299 106.355 128.514 106.658 128.804 106.888C129.093 107.118 129.463 107.233 129.912 107.233ZM138.538 105.324V101.455H139.543V108H138.538V106.892H138.469C138.316 107.224 138.077 107.507 137.754 107.74C137.43 107.97 137.021 108.085 136.526 108.085C136.117 108.085 135.754 107.996 135.435 107.817C135.117 107.635 134.867 107.362 134.685 106.999C134.504 106.632 134.413 106.17 134.413 105.614V101.455H135.418V105.545C135.418 106.023 135.552 106.403 135.819 106.688C136.089 106.972 136.433 107.114 136.85 107.114C137.1 107.114 137.354 107.05 137.613 106.922C137.874 106.794 138.093 106.598 138.269 106.334C138.448 106.07 138.538 105.733 138.538 105.324ZM146.022 102.92L145.118 103.176C145.061 103.026 144.978 102.879 144.867 102.737C144.759 102.592 144.611 102.473 144.424 102.379C144.236 102.286 143.996 102.239 143.703 102.239C143.303 102.239 142.969 102.331 142.702 102.516C142.438 102.697 142.306 102.929 142.306 103.21C142.306 103.46 142.397 103.658 142.578 103.803C142.76 103.947 143.044 104.068 143.431 104.165L144.402 104.403C144.988 104.545 145.424 104.763 145.711 105.055C145.998 105.345 146.141 105.719 146.141 106.176C146.141 106.551 146.033 106.886 145.817 107.182C145.604 107.477 145.306 107.71 144.922 107.881C144.539 108.051 144.093 108.136 143.584 108.136C142.917 108.136 142.364 107.991 141.926 107.702C141.489 107.412 141.212 106.989 141.096 106.432L142.05 106.193C142.141 106.545 142.313 106.81 142.566 106.986C142.821 107.162 143.155 107.25 143.567 107.25C144.036 107.25 144.408 107.151 144.684 106.952C144.962 106.75 145.101 106.509 145.101 106.227C145.101 106 145.022 105.81 144.863 105.656C144.703 105.5 144.459 105.384 144.13 105.307L143.039 105.051C142.439 104.909 141.999 104.689 141.718 104.391C141.439 104.089 141.3 103.713 141.3 103.261C141.3 102.892 141.404 102.565 141.611 102.281C141.821 101.997 142.107 101.774 142.468 101.612C142.831 101.45 143.243 101.369 143.703 101.369C144.351 101.369 144.86 101.511 145.229 101.795C145.601 102.08 145.865 102.455 146.022 102.92ZM150.399 108.136C149.768 108.136 149.224 107.997 148.767 107.719C148.312 107.438 147.962 107.045 147.714 106.543C147.47 106.037 147.348 105.449 147.348 104.778C147.348 104.108 147.47 103.517 147.714 103.006C147.962 102.491 148.305 102.091 148.746 101.804C149.189 101.514 149.706 101.369 150.297 101.369C150.638 101.369 150.974 101.426 151.307 101.54C151.639 101.653 151.942 101.838 152.214 102.094C152.487 102.347 152.705 102.682 152.866 103.099C153.028 103.517 153.109 104.031 153.109 104.642V105.068H148.064V104.199H152.087C152.087 103.83 152.013 103.5 151.865 103.21C151.72 102.92 151.513 102.692 151.243 102.524C150.976 102.357 150.661 102.273 150.297 102.273C149.896 102.273 149.55 102.372 149.257 102.571C148.967 102.767 148.744 103.023 148.588 103.338C148.432 103.653 148.354 103.991 148.354 104.352V104.932C148.354 105.426 148.439 105.845 148.609 106.189C148.783 106.53 149.023 106.79 149.33 106.969C149.636 107.145 149.993 107.233 150.399 107.233C150.663 107.233 150.902 107.196 151.115 107.122C151.331 107.045 151.517 106.932 151.673 106.781C151.83 106.628 151.95 106.437 152.036 106.21L153.007 106.483C152.905 106.812 152.733 107.102 152.491 107.352C152.25 107.599 151.952 107.793 151.597 107.932C151.241 108.068 150.842 108.136 150.399 108.136ZM159.668 110.301C158.798 110.301 158.03 110.182 157.362 109.943C156.695 109.707 156.134 109.359 155.679 108.899C155.224 108.439 154.881 107.875 154.648 107.207C154.415 106.54 154.298 105.776 154.298 104.915C154.298 104.082 154.416 103.338 154.652 102.682C154.891 102.026 155.236 101.469 155.688 101.011C156.142 100.551 156.693 100.2 157.341 99.9588C157.991 99.7173 158.727 99.5966 159.548 99.5966C160.347 99.5966 161.045 99.7273 161.645 99.9886C162.247 100.247 162.75 100.598 163.153 101.041C163.56 101.482 163.864 101.977 164.065 102.528C164.27 103.08 164.372 103.648 164.372 104.233C164.372 104.645 164.352 105.062 164.312 105.486C164.273 105.909 164.189 106.298 164.061 106.653C163.933 107.006 163.736 107.29 163.469 107.506C163.205 107.722 162.847 107.83 162.395 107.83C162.196 107.83 161.977 107.798 161.739 107.736C161.5 107.673 161.288 107.57 161.104 107.425C160.919 107.28 160.81 107.085 160.776 106.841H160.724C160.656 107.006 160.551 107.162 160.409 107.31C160.27 107.457 160.087 107.575 159.859 107.663C159.635 107.751 159.361 107.79 159.037 107.778C158.668 107.764 158.342 107.682 158.061 107.531C157.78 107.378 157.544 107.17 157.354 106.909C157.166 106.645 157.024 106.339 156.928 105.993C156.834 105.643 156.787 105.267 156.787 104.864C156.787 104.48 156.844 104.129 156.957 103.811C157.071 103.493 157.229 103.214 157.43 102.976C157.635 102.737 157.874 102.547 158.146 102.405C158.422 102.26 158.719 102.17 159.037 102.136C159.321 102.108 159.58 102.121 159.812 102.175C160.045 102.226 160.237 102.304 160.388 102.409C160.538 102.511 160.634 102.625 160.673 102.75H160.724V102.273H161.628V106.125C161.628 106.364 161.695 106.574 161.828 106.756C161.962 106.937 162.156 107.028 162.412 107.028C162.702 107.028 162.923 106.929 163.077 106.73C163.233 106.531 163.339 106.224 163.396 105.81C163.456 105.395 163.486 104.864 163.486 104.216C163.486 103.835 163.433 103.46 163.328 103.091C163.226 102.719 163.07 102.371 162.859 102.047C162.652 101.723 162.389 101.437 162.071 101.19C161.753 100.943 161.379 100.75 160.95 100.611C160.524 100.469 160.04 100.398 159.497 100.398C158.83 100.398 158.232 100.501 157.703 100.709C157.178 100.913 156.73 101.213 156.361 101.608C155.994 102 155.714 102.477 155.521 103.04C155.331 103.599 155.236 104.236 155.236 104.949C155.236 105.673 155.331 106.317 155.521 106.879C155.714 107.442 155.999 107.916 156.374 108.303C156.751 108.689 157.219 108.982 157.776 109.18C158.332 109.382 158.974 109.483 159.702 109.483C160.014 109.483 160.322 109.453 160.626 109.393C160.93 109.334 161.199 109.268 161.432 109.197C161.665 109.126 161.832 109.074 161.935 109.04L162.173 109.824C161.997 109.898 161.767 109.972 161.483 110.045C161.202 110.119 160.901 110.18 160.58 110.229C160.261 110.277 159.957 110.301 159.668 110.301ZM159.173 106.909C159.554 106.909 159.862 106.832 160.098 106.679C160.334 106.526 160.506 106.294 160.614 105.984C160.722 105.675 160.776 105.284 160.776 104.812C160.776 104.335 160.716 103.963 160.597 103.696C160.477 103.429 160.301 103.241 160.068 103.134C159.835 103.026 159.548 102.972 159.207 102.972C158.884 102.972 158.607 103.057 158.376 103.227C158.149 103.395 157.974 103.619 157.852 103.901C157.733 104.179 157.673 104.483 157.673 104.812C157.673 105.176 157.722 105.518 157.818 105.839C157.915 106.158 158.072 106.416 158.291 106.615C158.51 106.811 158.804 106.909 159.173 106.909ZM168.52 110.591C168.034 110.591 167.616 110.528 167.267 110.403C166.917 110.281 166.626 110.119 166.393 109.918C166.163 109.719 165.98 109.506 165.843 109.278L166.645 108.716C166.735 108.835 166.85 108.972 166.99 109.125C167.129 109.281 167.319 109.416 167.561 109.53C167.805 109.646 168.125 109.705 168.52 109.705C169.048 109.705 169.484 109.577 169.828 109.321C170.172 109.065 170.343 108.665 170.343 108.119V106.79H170.258C170.184 106.909 170.079 107.057 169.943 107.233C169.809 107.406 169.616 107.561 169.363 107.697C169.113 107.831 168.775 107.898 168.349 107.898C167.821 107.898 167.346 107.773 166.926 107.523C166.508 107.273 166.177 106.909 165.933 106.432C165.691 105.955 165.571 105.375 165.571 104.693C165.571 104.023 165.689 103.439 165.924 102.942C166.16 102.442 166.488 102.055 166.909 101.783C167.329 101.507 167.815 101.369 168.366 101.369C168.792 101.369 169.13 101.44 169.38 101.582C169.633 101.722 169.826 101.881 169.96 102.06C170.096 102.236 170.201 102.381 170.275 102.494H170.377V101.455H171.349V108.188C171.349 108.75 171.221 109.207 170.966 109.56C170.713 109.915 170.372 110.175 169.943 110.339C169.517 110.507 169.042 110.591 168.52 110.591ZM168.485 106.994C168.889 106.994 169.23 106.902 169.508 106.717C169.787 106.533 169.998 106.267 170.143 105.92C170.288 105.574 170.36 105.159 170.36 104.676C170.36 104.205 170.289 103.788 170.147 103.428C170.005 103.067 169.795 102.784 169.517 102.58C169.238 102.375 168.895 102.273 168.485 102.273C168.059 102.273 167.704 102.381 167.42 102.597C167.139 102.812 166.927 103.102 166.785 103.466C166.646 103.83 166.576 104.233 166.576 104.676C166.576 105.131 166.647 105.533 166.789 105.882C166.934 106.229 167.147 106.501 167.429 106.7C167.713 106.896 168.065 106.994 168.485 106.994ZM173.19 108V101.455H174.162V102.477H174.247C174.383 102.128 174.603 101.857 174.907 101.663C175.211 101.467 175.576 101.369 176.002 101.369C176.434 101.369 176.794 101.467 177.081 101.663C177.37 101.857 177.596 102.128 177.758 102.477H177.826C177.994 102.139 178.245 101.871 178.581 101.672C178.916 101.47 179.318 101.369 179.787 101.369C180.372 101.369 180.85 101.553 181.223 101.919C181.595 102.283 181.781 102.849 181.781 103.619V108H180.775V103.619C180.775 103.136 180.643 102.791 180.379 102.584C180.115 102.376 179.804 102.273 179.446 102.273C178.985 102.273 178.629 102.412 178.376 102.69C178.123 102.966 177.997 103.315 177.997 103.739V108H176.974V103.517C176.974 103.145 176.853 102.845 176.612 102.618C176.37 102.388 176.059 102.273 175.679 102.273C175.417 102.273 175.173 102.342 174.946 102.482C174.721 102.621 174.539 102.814 174.4 103.061C174.264 103.305 174.196 103.588 174.196 103.909V108H173.19ZM185.546 108.153C185.131 108.153 184.755 108.075 184.417 107.919C184.078 107.76 183.81 107.531 183.611 107.233C183.412 106.932 183.313 106.568 183.313 106.142C183.313 105.767 183.387 105.463 183.534 105.23C183.682 104.994 183.88 104.81 184.127 104.676C184.374 104.543 184.647 104.443 184.945 104.378C185.246 104.31 185.549 104.256 185.853 104.216C186.25 104.165 186.573 104.126 186.82 104.101C187.07 104.072 187.252 104.026 187.365 103.96C187.482 103.895 187.54 103.781 187.54 103.619V103.585C187.54 103.165 187.425 102.838 187.195 102.605C186.968 102.372 186.623 102.256 186.159 102.256C185.679 102.256 185.303 102.361 185.03 102.571C184.757 102.781 184.566 103.006 184.455 103.244L183.5 102.903C183.671 102.506 183.898 102.196 184.182 101.974C184.469 101.75 184.782 101.594 185.12 101.506C185.461 101.415 185.796 101.369 186.125 101.369C186.336 101.369 186.577 101.395 186.85 101.446C187.125 101.494 187.391 101.595 187.647 101.749C187.905 101.902 188.12 102.134 188.29 102.443C188.461 102.753 188.546 103.168 188.546 103.688V108H187.54V107.114H187.489C187.421 107.256 187.307 107.408 187.148 107.57C186.989 107.732 186.777 107.869 186.513 107.983C186.249 108.097 185.926 108.153 185.546 108.153ZM185.699 107.25C186.097 107.25 186.432 107.172 186.705 107.016C186.98 106.859 187.188 106.658 187.327 106.411C187.469 106.163 187.54 105.903 187.54 105.631V104.71C187.498 104.761 187.404 104.808 187.259 104.851C187.117 104.891 186.952 104.926 186.765 104.957C186.58 104.986 186.4 105.011 186.223 105.034C186.05 105.054 185.909 105.071 185.801 105.085C185.54 105.119 185.296 105.175 185.069 105.251C184.844 105.325 184.662 105.437 184.523 105.588C184.387 105.736 184.319 105.937 184.319 106.193C184.319 106.543 184.448 106.807 184.706 106.986C184.968 107.162 185.299 107.25 185.699 107.25ZM190.381 108V101.455H191.387V108H190.381ZM190.893 100.364C190.697 100.364 190.528 100.297 190.386 100.163C190.246 100.03 190.177 99.8693 190.177 99.6818C190.177 99.4943 190.246 99.3338 190.386 99.2003C190.528 99.0668 190.697 99 190.893 99C191.089 99 191.256 99.0668 191.396 99.2003C191.538 99.3338 191.609 99.4943 191.609 99.6818C191.609 99.8693 191.538 100.03 191.396 100.163C191.256 100.297 191.089 100.364 190.893 100.364ZM194.235 99.2727V108H193.229V99.2727H194.235ZM196.81 108.068C196.599 108.068 196.419 107.993 196.268 107.842C196.118 107.692 196.043 107.511 196.043 107.301C196.043 107.091 196.118 106.911 196.268 106.76C196.419 106.609 196.599 106.534 196.81 106.534C197.02 106.534 197.2 106.609 197.351 106.76C197.501 106.911 197.577 107.091 197.577 107.301C197.577 107.44 197.541 107.568 197.47 107.685C197.402 107.801 197.31 107.895 197.193 107.966C197.08 108.034 196.952 108.068 196.81 108.068ZM202.04 108.136C201.427 108.136 200.898 107.991 200.455 107.702C200.012 107.412 199.671 107.013 199.433 106.504C199.194 105.996 199.075 105.415 199.075 104.761C199.075 104.097 199.197 103.51 199.441 103.001C199.688 102.49 200.032 102.091 200.472 101.804C200.915 101.514 201.433 101.369 202.023 101.369C202.484 101.369 202.898 101.455 203.268 101.625C203.637 101.795 203.94 102.034 204.175 102.341C204.411 102.648 204.558 103.006 204.614 103.415H203.609C203.532 103.116 203.362 102.852 203.097 102.622C202.836 102.389 202.484 102.273 202.04 102.273C201.648 102.273 201.305 102.375 201.009 102.58C200.717 102.781 200.488 103.067 200.323 103.436C200.161 103.803 200.08 104.233 200.08 104.727C200.08 105.233 200.16 105.673 200.319 106.048C200.481 106.423 200.708 106.714 201.001 106.922C201.296 107.129 201.643 107.233 202.04 107.233C202.302 107.233 202.539 107.188 202.752 107.097C202.965 107.006 203.146 106.875 203.293 106.705C203.441 106.534 203.546 106.33 203.609 106.091H204.614C204.558 106.477 204.417 106.825 204.192 107.135C203.971 107.442 203.677 107.686 203.31 107.868C202.947 108.047 202.523 108.136 202.04 108.136ZM208.744 108.136C208.153 108.136 207.634 107.996 207.188 107.714C206.745 107.433 206.398 107.04 206.148 106.534C205.901 106.028 205.778 105.437 205.778 104.761C205.778 104.08 205.901 103.484 206.148 102.976C206.398 102.467 206.745 102.072 207.188 101.791C207.634 101.51 208.153 101.369 208.744 101.369C209.335 101.369 209.852 101.51 210.295 101.791C210.741 102.072 211.087 102.467 211.335 102.976C211.585 103.484 211.71 104.08 211.71 104.761C211.71 105.437 211.585 106.028 211.335 106.534C211.087 107.04 210.741 107.433 210.295 107.714C209.852 107.996 209.335 108.136 208.744 108.136ZM208.744 107.233C209.192 107.233 209.562 107.118 209.852 106.888C210.141 106.658 210.356 106.355 210.495 105.98C210.634 105.605 210.704 105.199 210.704 104.761C210.704 104.324 210.634 103.916 210.495 103.538C210.356 103.161 210.141 102.855 209.852 102.622C209.562 102.389 209.192 102.273 208.744 102.273C208.295 102.273 207.925 102.389 207.636 102.622C207.346 102.855 207.131 103.161 206.992 103.538C206.853 103.916 206.783 104.324 206.783 104.761C206.783 105.199 206.853 105.605 206.992 105.98C207.131 106.355 207.346 106.658 207.636 106.888C207.925 107.118 208.295 107.233 208.744 107.233ZM213.245 108V101.455H214.216V102.477H214.301C214.438 102.128 214.658 101.857 214.962 101.663C215.266 101.467 215.631 101.369 216.057 101.369C216.489 101.369 216.848 101.467 217.135 101.663C217.425 101.857 217.651 102.128 217.813 102.477H217.881C218.049 102.139 218.3 101.871 218.635 101.672C218.971 101.47 219.373 101.369 219.841 101.369C220.426 101.369 220.905 101.553 221.277 101.919C221.65 102.283 221.836 102.849 221.836 103.619V108H220.83V103.619C220.83 103.136 220.698 102.791 220.434 102.584C220.169 102.376 219.858 102.273 219.5 102.273C219.04 102.273 218.684 102.412 218.431 102.69C218.178 102.966 218.051 103.315 218.051 103.739V108H217.029V103.517C217.029 103.145 216.908 102.845 216.667 102.618C216.425 102.388 216.114 102.273 215.733 102.273C215.472 102.273 215.228 102.342 215 102.482C214.776 102.621 214.594 102.814 214.455 103.061C214.319 103.305 214.25 103.588 214.25 103.909V108H213.245Z" fill="black"/>
<path d="M50.4148 223H49.3068L52.5114 214.273H53.6023L56.8068 223H55.6989L53.0909 215.653H53.0227L50.4148 223ZM50.8239 219.591H55.2898V220.528H50.8239V219.591ZM58.0298 225.455V216.455H59.0014V217.494H59.1207C59.1946 217.381 59.2969 217.236 59.4276 217.06C59.5611 216.881 59.7514 216.722 59.9986 216.582C60.2486 216.44 60.5866 216.369 61.0128 216.369C61.5639 216.369 62.0497 216.507 62.4702 216.783C62.8906 217.058 63.2188 217.449 63.4545 217.955C63.6903 218.46 63.8082 219.057 63.8082 219.744C63.8082 220.438 63.6903 221.038 63.4545 221.547C63.2188 222.053 62.892 222.445 62.4744 222.723C62.0568 222.999 61.5753 223.136 61.0298 223.136C60.6094 223.136 60.2727 223.067 60.0199 222.928C59.767 222.786 59.5724 222.625 59.4361 222.446C59.2997 222.264 59.1946 222.114 59.1207 221.994H59.0355V225.455H58.0298ZM59.0185 219.727C59.0185 220.222 59.0909 220.658 59.2358 221.036C59.3807 221.411 59.5923 221.705 59.8707 221.918C60.1491 222.128 60.4901 222.233 60.8935 222.233C61.3139 222.233 61.6648 222.122 61.946 221.901C62.2301 221.676 62.4432 221.375 62.5852 220.997C62.7301 220.616 62.8026 220.193 62.8026 219.727C62.8026 219.267 62.7315 218.852 62.5895 218.483C62.4503 218.111 62.2386 217.817 61.9545 217.601C61.6733 217.382 61.3196 217.273 60.8935 217.273C60.4844 217.273 60.1406 217.376 59.8622 217.584C59.5838 217.788 59.3736 218.075 59.2315 218.445C59.0895 218.811 59.0185 219.239 59.0185 219.727ZM65.3423 223V216.455H66.3139V217.443H66.3821C66.5014 217.119 66.7173 216.857 67.0298 216.655C67.3423 216.453 67.6946 216.352 68.0866 216.352C68.1605 216.352 68.2528 216.354 68.3636 216.357C68.4744 216.359 68.5582 216.364 68.6151 216.369V217.392C68.581 217.384 68.5028 217.371 68.3807 217.354C68.2614 217.334 68.1349 217.324 68.0014 217.324C67.6832 217.324 67.3991 217.391 67.1491 217.524C66.902 217.655 66.706 217.837 66.5611 218.07C66.419 218.3 66.348 218.562 66.348 218.858V223H65.3423ZM69.8072 223V216.455H70.8129V223H69.8072ZM70.3185 215.364C70.1225 215.364 69.9535 215.297 69.8114 215.163C69.6722 215.03 69.6026 214.869 69.6026 214.682C69.6026 214.494 69.6722 214.334 69.8114 214.2C69.9535 214.067 70.1225 214 70.3185 214C70.5146 214 70.6822 214.067 70.8214 214.2C70.9634 214.334 71.0344 214.494 71.0344 214.682C71.0344 214.869 70.9634 215.03 70.8214 215.163C70.6822 215.297 70.5146 215.364 70.3185 215.364ZM73.6605 214.273V223H72.6548V214.273H73.6605ZM78.8604 223V222.233L81.7411 219.08C82.0792 218.71 82.3576 218.389 82.5763 218.116C82.7951 217.841 82.957 217.582 83.0621 217.341C83.1701 217.097 83.2241 216.841 83.2241 216.574C83.2241 216.267 83.1502 216.001 83.0025 215.777C82.8576 215.553 82.6587 215.379 82.4059 215.257C82.1531 215.135 81.869 215.074 81.5536 215.074C81.2184 215.074 80.9258 215.143 80.6758 215.283C80.4286 215.419 80.2369 215.611 80.1005 215.858C79.967 216.105 79.9002 216.395 79.9002 216.727H78.8945C78.8945 216.216 79.0124 215.767 79.2482 215.381C79.484 214.994 79.805 214.693 80.2113 214.477C80.6204 214.261 81.0792 214.153 81.5877 214.153C82.0991 214.153 82.5522 214.261 82.9471 214.477C83.342 214.693 83.6516 214.984 83.8761 215.351C84.1005 215.717 84.2127 216.125 84.2127 216.574C84.2127 216.895 84.1545 217.209 84.038 217.516C83.9244 217.82 83.7255 218.159 83.4414 218.534C83.1602 218.906 82.7695 219.361 82.2695 219.898L80.3093 221.994V222.062H84.3661V223H78.8604ZM89.1942 214.273V223H88.1374V215.381H88.0863L85.9556 216.795V215.722L88.1374 214.273H89.1942ZM92.7056 221.807L92.6374 222.267C92.5891 222.591 92.5153 222.938 92.4158 223.307C92.3192 223.676 92.2184 224.024 92.1133 224.351C92.0082 224.678 91.9215 224.938 91.8533 225.131H91.0863C91.1232 224.949 91.1715 224.709 91.2312 224.411C91.2908 224.112 91.3505 223.778 91.4102 223.409C91.4727 223.043 91.5238 222.668 91.5636 222.284L91.6147 221.807H92.7056ZM97.9268 223V222.233L100.808 219.08C101.146 218.71 101.424 218.389 101.643 218.116C101.862 217.841 102.023 217.582 102.129 217.341C102.237 217.097 102.29 216.841 102.29 216.574C102.29 216.267 102.217 216.001 102.069 215.777C101.924 215.553 101.725 215.379 101.472 215.257C101.219 215.135 100.935 215.074 100.62 215.074C100.285 215.074 99.9922 215.143 99.7422 215.283C99.495 215.419 99.3033 215.611 99.1669 215.858C99.0334 216.105 98.9666 216.395 98.9666 216.727H97.9609C97.9609 216.216 98.0788 215.767 98.3146 215.381C98.5504 214.994 98.8714 214.693 99.2777 214.477C99.6868 214.261 100.146 214.153 100.654 214.153C101.165 214.153 101.619 214.261 102.013 214.477C102.408 214.693 102.718 214.984 102.942 215.351C103.167 215.717 103.279 216.125 103.279 216.574C103.279 216.895 103.221 217.209 103.104 217.516C102.991 217.82 102.792 218.159 102.508 218.534C102.227 218.906 101.836 219.361 101.336 219.898L99.3757 221.994V222.062H103.433V223H97.9268ZM108.039 223.119C107.397 223.119 106.85 222.945 106.398 222.595C105.947 222.243 105.602 221.733 105.363 221.065C105.124 220.395 105.005 219.585 105.005 218.636C105.005 217.693 105.124 216.888 105.363 216.22C105.604 215.55 105.951 215.038 106.403 214.686C106.857 214.331 107.403 214.153 108.039 214.153C108.675 214.153 109.219 214.331 109.671 214.686C110.126 215.038 110.472 215.55 110.711 216.22C110.952 216.888 111.073 217.693 111.073 218.636C111.073 219.585 110.954 220.395 110.715 221.065C110.477 221.733 110.131 222.243 109.68 222.595C109.228 222.945 108.681 223.119 108.039 223.119ZM108.039 222.182C108.675 222.182 109.17 221.875 109.522 221.261C109.874 220.648 110.05 219.773 110.05 218.636C110.05 217.881 109.969 217.237 109.808 216.706C109.648 216.175 109.418 215.77 109.117 215.491C108.819 215.213 108.46 215.074 108.039 215.074C107.408 215.074 106.915 215.385 106.56 216.007C106.205 216.626 106.028 217.503 106.028 218.636C106.028 219.392 106.107 220.034 106.266 220.562C106.425 221.091 106.654 221.493 106.952 221.768C107.254 222.044 107.616 222.182 108.039 222.182ZM112.692 223V222.233L115.573 219.08C115.911 218.71 116.19 218.389 116.408 218.116C116.627 217.841 116.789 217.582 116.894 217.341C117.002 217.097 117.056 216.841 117.056 216.574C117.056 216.267 116.982 216.001 116.835 215.777C116.69 215.553 116.491 215.379 116.238 215.257C115.985 215.135 115.701 215.074 115.386 215.074C115.05 215.074 114.758 215.143 114.508 215.283C114.261 215.419 114.069 215.611 113.933 215.858C113.799 216.105 113.732 216.395 113.732 216.727H112.727C112.727 216.216 112.844 215.767 113.08 215.381C113.316 214.994 113.637 214.693 114.043 214.477C114.452 214.261 114.911 214.153 115.42 214.153C115.931 214.153 116.384 214.261 116.779 214.477C117.174 214.693 117.484 214.984 117.708 215.351C117.933 215.717 118.045 216.125 118.045 216.574C118.045 216.895 117.987 217.209 117.87 217.516C117.756 217.82 117.558 218.159 117.273 218.534C116.992 218.906 116.602 219.361 116.102 219.898L114.141 221.994V222.062H118.198V223H112.692ZM119.566 221.21V220.341L123.401 214.273H124.032V215.619H123.606L120.708 220.205V220.273H125.873V221.21H119.566ZM123.674 223V220.946V220.541V214.273H124.68V223H123.674Z" fill="black"/>
<path d="M51.1136 156.273V165H50.0568V156.273H51.1136ZM54.1019 161.062V165H53.0962V158.455H54.0678V159.477H54.1531C54.3065 159.145 54.5394 158.878 54.8519 158.676C55.1644 158.472 55.5678 158.369 56.0621 158.369C56.5053 158.369 56.8931 158.46 57.2255 158.642C57.5579 158.821 57.8164 159.094 58.0011 159.46C58.1857 159.824 58.2781 160.284 58.2781 160.841V165H57.2724V160.909C57.2724 160.395 57.1388 159.994 56.8718 159.707C56.6048 159.418 56.2383 159.273 55.7724 159.273C55.4513 159.273 55.1644 159.342 54.9116 159.482C54.6616 159.621 54.4641 159.824 54.3192 160.091C54.1744 160.358 54.1019 160.682 54.1019 161.062ZM65.2337 158.455L62.8132 165H61.7905L59.37 158.455H60.4609L62.2678 163.67H62.3359L64.1428 158.455H65.2337ZM68.9858 165.136C68.3949 165.136 67.8764 164.996 67.4304 164.714C66.9872 164.433 66.6406 164.04 66.3906 163.534C66.1435 163.028 66.0199 162.437 66.0199 161.761C66.0199 161.08 66.1435 160.484 66.3906 159.976C66.6406 159.467 66.9872 159.072 67.4304 158.791C67.8764 158.51 68.3949 158.369 68.9858 158.369C69.5767 158.369 70.0938 158.51 70.5369 158.791C70.983 159.072 71.3295 159.467 71.5767 159.976C71.8267 160.484 71.9517 161.08 71.9517 161.761C71.9517 162.437 71.8267 163.028 71.5767 163.534C71.3295 164.04 70.983 164.433 70.5369 164.714C70.0938 164.996 69.5767 165.136 68.9858 165.136ZM68.9858 164.233C69.4347 164.233 69.804 164.118 70.0938 163.888C70.3835 163.658 70.598 163.355 70.7372 162.98C70.8764 162.605 70.946 162.199 70.946 161.761C70.946 161.324 70.8764 160.916 70.7372 160.538C70.598 160.161 70.3835 159.855 70.0938 159.622C69.804 159.389 69.4347 159.273 68.9858 159.273C68.5369 159.273 68.1676 159.389 67.8778 159.622C67.5881 159.855 67.3736 160.161 67.2344 160.538C67.0952 160.916 67.0256 161.324 67.0256 161.761C67.0256 162.199 67.0952 162.605 67.2344 162.98C67.3736 163.355 67.5881 163.658 67.8778 163.888C68.1676 164.118 68.5369 164.233 68.9858 164.233ZM73.4869 165V158.455H74.4925V165H73.4869ZM73.9982 157.364C73.8022 157.364 73.6332 157.297 73.4911 157.163C73.3519 157.03 73.2823 156.869 73.2823 156.682C73.2823 156.494 73.3519 156.334 73.4911 156.2C73.6332 156.067 73.8022 156 73.9982 156C74.1942 156 74.3619 156.067 74.5011 156.2C74.6431 156.334 74.7141 156.494 74.7141 156.682C74.7141 156.869 74.6431 157.03 74.5011 157.163C74.3619 157.297 74.1942 157.364 73.9982 157.364ZM78.9936 165.136C78.38 165.136 77.8516 164.991 77.4084 164.702C76.9652 164.412 76.6243 164.013 76.3857 163.504C76.147 162.996 76.0277 162.415 76.0277 161.761C76.0277 161.097 76.1499 160.51 76.3942 160.001C76.6413 159.49 76.9851 159.091 77.4254 158.804C77.8686 158.514 78.3857 158.369 78.9766 158.369C79.4368 158.369 79.8516 158.455 80.2209 158.625C80.5902 158.795 80.8928 159.034 81.1286 159.341C81.3643 159.648 81.5107 160.006 81.5675 160.415H80.5618C80.4851 160.116 80.3146 159.852 80.0504 159.622C79.7891 159.389 79.4368 159.273 78.9936 159.273C78.6016 159.273 78.2578 159.375 77.9624 159.58C77.6697 159.781 77.4411 160.067 77.2763 160.436C77.1143 160.803 77.0334 161.233 77.0334 161.727C77.0334 162.233 77.1129 162.673 77.272 163.048C77.4339 163.423 77.6612 163.714 77.9538 163.922C78.2493 164.129 78.5959 164.233 78.9936 164.233C79.255 164.233 79.4922 164.188 79.7053 164.097C79.9183 164.006 80.0987 163.875 80.2464 163.705C80.3942 163.534 80.4993 163.33 80.5618 163.091H81.5675C81.5107 163.477 81.37 163.825 81.1456 164.135C80.924 164.442 80.63 164.686 80.2635 164.868C79.8999 165.047 79.4766 165.136 78.9936 165.136ZM85.782 165.136C85.1513 165.136 84.6072 164.997 84.1499 164.719C83.6953 164.438 83.3445 164.045 83.0973 163.543C82.853 163.037 82.7308 162.449 82.7308 161.778C82.7308 161.108 82.853 160.517 83.0973 160.006C83.3445 159.491 83.6882 159.091 84.1286 158.804C84.5717 158.514 85.0888 158.369 85.6797 158.369C86.0206 158.369 86.3572 158.426 86.6896 158.54C87.022 158.653 87.3246 158.838 87.5973 159.094C87.87 159.347 88.0874 159.682 88.2493 160.099C88.4112 160.517 88.4922 161.031 88.4922 161.642V162.068H83.4467V161.199H87.4695C87.4695 160.83 87.3956 160.5 87.2479 160.21C87.103 159.92 86.8956 159.692 86.6257 159.524C86.3587 159.357 86.0433 159.273 85.6797 159.273C85.2791 159.273 84.9325 159.372 84.6399 159.571C84.3501 159.767 84.1271 160.023 83.9709 160.338C83.8146 160.653 83.7365 160.991 83.7365 161.352V161.932C83.7365 162.426 83.8217 162.845 83.9922 163.189C84.1655 163.53 84.4055 163.79 84.7124 163.969C85.0192 164.145 85.3757 164.233 85.782 164.233C86.0462 164.233 86.2848 164.196 86.4979 164.122C86.7138 164.045 86.8999 163.932 87.0561 163.781C87.2124 163.628 87.3331 163.437 87.4183 163.21L88.3899 163.483C88.2876 163.812 88.1158 164.102 87.8743 164.352C87.6328 164.599 87.3345 164.793 86.9794 164.932C86.6243 165.068 86.2251 165.136 85.782 165.136Z" fill="black"/>
<path d="M56.4915 203.545V178.091H58.1222V203.545H56.4915ZM60.8168 186.493C60.7372 185.691 60.3958 185.068 59.7926 184.624C59.1894 184.179 58.3707 183.957 57.3366 183.957C56.634 183.957 56.0407 184.057 55.5568 184.256C55.0729 184.448 54.7017 184.716 54.4432 185.061C54.1913 185.406 54.0653 185.797 54.0653 186.234C54.0521 186.599 54.1283 186.917 54.294 187.189C54.4664 187.461 54.7017 187.696 55 187.895C55.2983 188.087 55.643 188.256 56.0341 188.402C56.4252 188.541 56.8428 188.661 57.2869 188.76L59.1165 189.197C60.0047 189.396 60.8201 189.661 61.5625 189.993C62.3049 190.324 62.9479 190.732 63.4915 191.216C64.035 191.7 64.456 192.27 64.7543 192.926C65.0592 193.582 65.215 194.335 65.2216 195.183C65.215 196.429 64.8968 197.51 64.267 198.425C63.6439 199.333 62.7424 200.039 61.5625 200.543C60.3892 201.04 58.974 201.288 57.3168 201.288C55.6728 201.288 54.241 201.036 53.0213 200.533C51.8082 200.029 50.8603 199.283 50.1776 198.295C49.5014 197.301 49.1468 196.071 49.1136 194.607H53.2798C53.3262 195.289 53.5218 195.859 53.8665 196.317C54.2178 196.768 54.6851 197.109 55.2685 197.341C55.8584 197.566 56.5246 197.679 57.267 197.679C57.9962 197.679 58.6293 197.573 59.1662 197.361C59.7098 197.149 60.1307 196.854 60.429 196.476C60.7273 196.098 60.8764 195.664 60.8764 195.173C60.8764 194.716 60.7405 194.331 60.4688 194.02C60.2036 193.708 59.8125 193.443 59.2955 193.224C58.785 193.006 58.1586 192.807 57.4162 192.628L55.1989 192.071C53.482 191.653 52.1264 191 51.1321 190.112C50.1378 189.224 49.6439 188.027 49.6506 186.523C49.6439 185.29 49.9721 184.213 50.6349 183.291C51.3045 182.37 52.2225 181.651 53.3892 181.134C54.5559 180.616 55.8816 180.358 57.3665 180.358C58.8778 180.358 60.197 180.616 61.3239 181.134C62.4574 181.651 63.339 182.37 63.9688 183.291C64.5985 184.213 64.9233 185.28 64.9432 186.493H60.8168ZM76.8576 180.636V201H72.5522V184.723H72.4329L67.7695 187.646V183.828L72.8107 180.636H76.8576ZM85.2472 198.216L85.1378 199.31C85.0516 200.185 84.8859 201.056 84.6406 201.925C84.402 202.8 84.1501 203.592 83.8849 204.301C83.6264 205.01 83.4176 205.567 83.2585 205.972H80.5142C80.6136 205.58 80.7495 205.034 80.9219 204.331C81.0942 203.635 81.2566 202.853 81.4091 201.984C81.5616 201.116 81.6577 200.231 81.6974 199.33L81.7472 198.216H85.2472ZM95.8565 201.278C94.3253 201.278 92.9631 201.03 91.7699 200.533C90.5833 200.029 89.652 199.343 88.9759 198.474C88.2997 197.606 87.9616 196.622 87.9616 195.521C87.9616 194.673 88.1539 193.894 88.5384 193.185C88.9295 192.469 89.4598 191.875 90.1293 191.405C90.7988 190.928 91.5478 190.623 92.3764 190.49V190.351C91.2893 190.132 90.4077 189.605 89.7315 188.77C89.0554 187.928 88.7173 186.95 88.7173 185.837C88.7173 184.783 89.0256 183.845 89.642 183.023C90.2585 182.194 91.1037 181.545 92.1776 181.074C93.258 180.597 94.4844 180.358 95.8565 180.358C97.2287 180.358 98.4517 180.597 99.5256 181.074C100.606 181.551 101.455 182.204 102.071 183.033C102.688 183.855 102.999 184.789 103.006 185.837C102.999 186.957 102.654 187.935 101.972 188.77C101.289 189.605 100.414 190.132 99.3466 190.351V190.49C100.162 190.623 100.901 190.928 101.564 191.405C102.233 191.875 102.764 192.469 103.155 193.185C103.553 193.894 103.755 194.673 103.761 195.521C103.755 196.622 103.413 197.606 102.737 198.474C102.061 199.343 101.126 200.029 99.9332 200.533C98.7467 201.03 97.3878 201.278 95.8565 201.278ZM95.8565 198.116C96.5393 198.116 97.1359 197.994 97.6463 197.749C98.1567 197.497 98.5545 197.152 98.8395 196.714C99.1312 196.27 99.277 195.76 99.277 195.183C99.277 194.593 99.1278 194.073 98.8295 193.622C98.5313 193.165 98.1269 192.807 97.6165 192.548C97.1061 192.283 96.5194 192.151 95.8565 192.151C95.2003 192.151 94.6136 192.283 94.0966 192.548C93.5795 192.807 93.1719 193.165 92.8736 193.622C92.5819 194.073 92.4361 194.593 92.4361 195.183C92.4361 195.76 92.5786 196.27 92.8636 196.714C93.1487 197.152 93.5497 197.497 94.0668 197.749C94.5838 197.994 95.1804 198.116 95.8565 198.116ZM95.8565 189.018C96.4266 189.018 96.9337 188.902 97.3778 188.67C97.822 188.438 98.17 188.117 98.4219 187.706C98.6738 187.295 98.7997 186.821 98.7997 186.284C98.7997 185.754 98.6738 185.29 98.4219 184.892C98.17 184.488 97.8253 184.173 97.3878 183.947C96.9503 183.715 96.4399 183.599 95.8565 183.599C95.2798 183.599 94.7694 183.715 94.3253 183.947C93.8812 184.173 93.5331 184.488 93.2812 184.892C93.036 185.29 92.9134 185.754 92.9134 186.284C92.9134 186.821 93.0393 187.295 93.2912 187.706C93.5431 188.117 93.8911 188.438 94.3352 188.67C94.7794 188.902 95.2865 189.018 95.8565 189.018ZM107.577 201L116.019 184.295V184.156H106.185V180.636H120.473V184.206L112.022 201H107.577ZM130.802 201.278C129.754 201.272 128.744 201.096 127.769 200.751C126.801 200.407 125.933 199.847 125.164 199.071C124.395 198.295 123.785 197.268 123.335 195.989C122.89 194.709 122.668 193.138 122.668 191.276C122.675 189.565 122.871 188.037 123.255 186.692C123.646 185.339 124.203 184.193 124.925 183.251C125.655 182.31 126.526 181.594 127.54 181.104C128.555 180.607 129.692 180.358 130.951 180.358C132.31 180.358 133.51 180.623 134.55 181.153C135.591 181.677 136.426 182.39 137.056 183.291C137.692 184.193 138.077 185.204 138.21 186.324H133.964C133.798 185.615 133.45 185.058 132.92 184.653C132.389 184.249 131.733 184.047 130.951 184.047C129.625 184.047 128.618 184.624 127.928 185.777C127.246 186.93 126.897 188.498 126.884 190.48H127.023C127.328 189.877 127.739 189.363 128.256 188.939C128.78 188.508 129.373 188.18 130.036 187.955C130.706 187.723 131.412 187.607 132.154 187.607C133.361 187.607 134.434 187.892 135.376 188.462C136.317 189.025 137.059 189.801 137.603 190.788C138.147 191.776 138.418 192.906 138.418 194.179C138.418 195.558 138.097 196.784 137.454 197.858C136.817 198.932 135.926 199.774 134.779 200.384C133.639 200.987 132.313 201.285 130.802 201.278ZM130.782 197.898C131.445 197.898 132.038 197.739 132.562 197.42C133.085 197.102 133.496 196.671 133.795 196.128C134.093 195.584 134.242 194.974 134.242 194.298C134.242 193.622 134.093 193.016 133.795 192.479C133.503 191.942 133.099 191.514 132.582 191.196C132.065 190.878 131.475 190.719 130.812 190.719C130.315 190.719 129.854 190.812 129.43 190.997C129.012 191.183 128.644 191.441 128.326 191.773C128.014 192.104 127.769 192.489 127.59 192.926C127.411 193.357 127.322 193.818 127.322 194.308C127.322 194.964 127.471 195.564 127.769 196.108C128.074 196.652 128.485 197.086 129.002 197.411C129.526 197.735 130.119 197.898 130.782 197.898ZM145.267 198.216L145.157 199.31C145.071 200.185 144.905 201.056 144.66 201.925C144.422 202.8 144.17 203.592 143.904 204.301C143.646 205.01 143.437 205.567 143.278 205.972H140.534C140.633 205.58 140.769 205.034 140.941 204.331C141.114 203.635 141.276 202.853 141.429 201.984C141.581 201.116 141.677 200.231 141.717 199.33L141.767 198.216H145.267ZM156.373 201.278C154.968 201.278 153.715 201.02 152.615 200.503C151.521 199.986 150.653 199.273 150.01 198.365C149.367 197.457 149.032 196.416 149.005 195.243H153.181C153.228 196.032 153.559 196.671 154.176 197.162C154.792 197.652 155.525 197.898 156.373 197.898C157.049 197.898 157.646 197.749 158.163 197.45C158.687 197.145 159.094 196.724 159.386 196.188C159.684 195.644 159.833 195.021 159.833 194.318C159.833 193.602 159.681 192.973 159.376 192.429C159.078 191.885 158.663 191.461 158.133 191.156C157.603 190.851 156.996 190.696 156.314 190.689C155.717 190.689 155.137 190.812 154.574 191.057C154.017 191.302 153.583 191.637 153.271 192.061L149.443 191.375L150.407 180.636H162.856V184.156H153.957L153.43 189.257H153.549C153.907 188.753 154.448 188.336 155.17 188.004C155.893 187.673 156.701 187.507 157.596 187.507C158.823 187.507 159.916 187.795 160.877 188.372C161.839 188.949 162.598 189.741 163.154 190.749C163.711 191.75 163.986 192.903 163.98 194.209C163.986 195.581 163.668 196.801 163.025 197.868C162.389 198.929 161.497 199.764 160.35 200.374C159.21 200.977 157.885 201.278 156.373 201.278ZM174.579 201.278C173.048 201.278 171.686 201.03 170.493 200.533C169.306 200.029 168.375 199.343 167.699 198.474C167.022 197.606 166.684 196.622 166.684 195.521C166.684 194.673 166.877 193.894 167.261 193.185C167.652 192.469 168.182 191.875 168.852 191.405C169.521 190.928 170.27 190.623 171.099 190.49V190.351C170.012 190.132 169.13 189.605 168.454 188.77C167.778 187.928 167.44 186.95 167.44 185.837C167.44 184.783 167.748 183.845 168.365 183.023C168.981 182.194 169.826 181.545 170.9 181.074C171.981 180.597 173.207 180.358 174.579 180.358C175.951 180.358 177.174 180.597 178.248 181.074C179.329 181.551 180.177 182.204 180.794 183.033C181.41 183.855 181.722 184.789 181.728 185.837C181.722 186.957 181.377 187.935 180.694 188.77C180.011 189.605 179.136 190.132 178.069 190.351V190.49C178.885 190.623 179.624 190.928 180.287 191.405C180.956 191.875 181.486 192.469 181.877 193.185C182.275 193.894 182.477 194.673 182.484 195.521C182.477 196.622 182.136 197.606 181.46 198.474C180.784 199.343 179.849 200.029 178.656 200.533C177.469 201.03 176.11 201.278 174.579 201.278ZM174.579 198.116C175.262 198.116 175.859 197.994 176.369 197.749C176.879 197.497 177.277 197.152 177.562 196.714C177.854 196.27 178 195.76 178 195.183C178 194.593 177.85 194.073 177.552 193.622C177.254 193.165 176.85 192.807 176.339 192.548C175.829 192.283 175.242 192.151 174.579 192.151C173.923 192.151 173.336 192.283 172.819 192.548C172.302 192.807 171.895 193.165 171.596 193.622C171.305 194.073 171.159 194.593 171.159 195.183C171.159 195.76 171.301 196.27 171.586 196.714C171.871 197.152 172.272 197.497 172.789 197.749C173.306 197.994 173.903 198.116 174.579 198.116ZM174.579 189.018C175.149 189.018 175.656 188.902 176.1 188.67C176.545 188.438 176.893 188.117 177.145 187.706C177.396 187.295 177.522 186.821 177.522 186.284C177.522 185.754 177.396 185.29 177.145 184.892C176.893 184.488 176.548 184.173 176.11 183.947C175.673 183.715 175.163 183.599 174.579 183.599C174.002 183.599 173.492 183.715 173.048 183.947C172.604 184.173 172.256 184.488 172.004 184.892C171.759 185.29 171.636 185.754 171.636 186.284C171.636 186.821 171.762 187.295 172.014 187.706C172.266 188.117 172.614 188.438 173.058 188.67C173.502 188.902 174.009 189.018 174.579 189.018ZM193.479 201.447C191.768 201.441 190.297 201.02 189.064 200.185C187.838 199.349 186.893 198.14 186.23 196.555C185.574 194.971 185.249 193.065 185.256 190.838C185.256 188.617 185.584 186.725 186.24 185.161C186.903 183.596 187.848 182.406 189.074 181.591C190.307 180.769 191.775 180.358 193.479 180.358C195.182 180.358 196.647 180.769 197.874 181.591C199.107 182.413 200.054 183.606 200.717 185.17C201.38 186.728 201.708 188.617 201.702 190.838C201.702 193.072 201.37 194.981 200.707 196.565C200.051 198.15 199.11 199.359 197.884 200.195C196.657 201.03 195.189 201.447 193.479 201.447ZM193.479 197.878C194.645 197.878 195.577 197.291 196.273 196.118C196.969 194.945 197.313 193.185 197.307 190.838C197.307 189.294 197.148 188.008 196.83 186.98C196.518 185.953 196.074 185.18 195.497 184.663C194.927 184.146 194.254 183.888 193.479 183.888C192.319 183.888 191.391 184.468 190.695 185.628C189.999 186.788 189.647 188.525 189.641 190.838C189.641 192.402 189.796 193.708 190.108 194.756C190.426 195.796 190.874 196.579 191.45 197.102C192.027 197.619 192.703 197.878 193.479 197.878Z" fill="black"/>
<rect x="27" y="71" width="42" height="40" rx="10" fill="#2A8E9E"/>
<mask id="mask0_35_176" style="mask-type:alpha" maskUnits="userSpaceOnUse" x="46" y="330" width="24" height="24">
<rect x="46" y="330" width="24" height="24" fill="#D9D9D9"/>
</mask>
<g mask="url(#mask0_35_176)">
<path d="M51 347V340H53V347H51ZM57 347V340H59V347H57ZM48 351V349H68V351H48ZM63 347V340H65V347H63ZM48 338V336L58 331L68 336V338H48ZM52.45 336H63.55L58 333.25L52.45 336Z" fill="#1C1B1F"/>
</g>
<mask id="mask1_35_176" style="mask-type:alpha" maskUnits="userSpaceOnUse" x="46" y="273" width="24" height="24">
<rect x="46" y="273" width="24" height="24" fill="#D9D9D9"/>
</mask>
<g mask="url(#mask1_35_176)">
<path d="M68 279V291C68 291.55 67.8042 292.021 67.4125 292.413C67.0208 292.804 66.55 293 66 293H50C49.45 293 48.9792 292.804 48.5875 292.413C48.1958 292.021 48 291.55 48 291V279C48 278.45 48.1958 277.979 48.5875 277.588C48.9792 277.196 49.45 277 50 277H66C66.55 277 67.0208 277.196 67.4125 277.588C67.8042 277.979 68 278.45 68 279ZM50 281H66V279H50V281ZM50 285V291H66V285H50Z" fill="#1C1B1F"/>
</g>
<rect x="207.5" y="0.5" width="205" height="266" rx="14.5" fill="#2A8E9E" stroke="#2A8E9E"/>
<path d="M207 191H413V252C413 260.284 406.284 267 398 267H222C213.716 267 207 260.284 207 252V191Z" fill="#023347"/>
<path d="M240.477 219.545L242.506 232.807H242.668L249.085 219.545H253.176L244.261 237H239.506L236.378 219.545H240.477ZM258.967 219.545L256.07 237H252.379L255.277 219.545H258.967ZM270.62 224.616C270.648 223.906 270.441 223.358 269.998 222.972C269.56 222.585 268.898 222.392 268.012 222.392C267.41 222.392 266.887 222.477 266.444 222.648C266.001 222.812 265.646 223.043 265.379 223.338C265.117 223.628 264.955 223.963 264.893 224.344C264.83 224.656 264.85 224.929 264.952 225.162C265.06 225.395 265.228 225.597 265.455 225.767C265.688 225.932 265.964 226.077 266.282 226.202C266.6 226.321 266.938 226.423 267.296 226.509L268.796 226.884C269.529 227.054 270.188 227.281 270.773 227.565C271.364 227.849 271.859 228.199 272.256 228.614C272.66 229.028 272.944 229.517 273.109 230.08C273.273 230.642 273.296 231.287 273.177 232.014C272.995 233.082 272.572 234.009 271.907 234.793C271.242 235.571 270.37 236.176 269.29 236.608C268.211 237.034 266.961 237.247 265.54 237.247C264.131 237.247 262.941 237.031 261.969 236.599C260.998 236.168 260.29 235.528 259.847 234.682C259.41 233.83 259.279 232.776 259.455 231.52H263.026C262.964 232.105 263.049 232.594 263.282 232.986C263.521 233.372 263.876 233.665 264.347 233.864C264.819 234.057 265.373 234.153 266.009 234.153C266.64 234.153 267.2 234.062 267.688 233.881C268.183 233.699 268.583 233.446 268.89 233.122C269.197 232.798 269.384 232.426 269.452 232.006C269.521 231.614 269.461 231.284 269.273 231.017C269.086 230.75 268.785 230.523 268.37 230.335C267.961 230.142 267.452 229.972 266.844 229.824L265.021 229.347C263.612 228.989 262.546 228.429 261.825 227.668C261.103 226.906 260.844 225.881 261.049 224.591C261.231 223.534 261.671 222.611 262.37 221.821C263.075 221.026 263.961 220.409 265.029 219.972C266.103 219.528 267.276 219.307 268.549 219.307C269.844 219.307 270.938 219.531 271.83 219.98C272.722 220.423 273.373 221.043 273.782 221.838C274.191 222.634 274.316 223.56 274.157 224.616H270.62ZM277.442 237H273.488L282.411 219.545H287.167L290.286 237H286.332L284.21 223.534H284.073L277.442 237ZM278.346 230.139H287.687L287.192 233.02H277.852L278.346 230.139Z" fill="white"/>
<path d="M238.459 33.3281H236.592C236.558 33.0866 236.489 32.8722 236.384 32.6847C236.278 32.4943 236.143 32.3324 235.979 32.1989C235.814 32.0653 235.624 31.9631 235.408 31.892C235.195 31.821 234.963 31.7855 234.713 31.7855C234.261 31.7855 233.868 31.8977 233.533 32.1222C233.197 32.3437 232.938 32.6676 232.753 33.0938C232.568 33.517 232.476 34.0312 232.476 34.6364C232.476 35.2585 232.568 35.7812 232.753 36.2045C232.94 36.6278 233.202 36.9474 233.537 37.1634C233.872 37.3793 234.26 37.4872 234.7 37.4872C234.947 37.4872 235.176 37.4545 235.386 37.3892C235.599 37.3239 235.788 37.2287 235.953 37.1037C236.118 36.9759 236.254 36.821 236.362 36.6392C236.473 36.4574 236.55 36.25 236.592 36.017L238.459 36.0256C238.411 36.4261 238.29 36.8125 238.097 37.1847C237.906 37.554 237.649 37.8849 237.325 38.1776C237.004 38.4673 236.621 38.6974 236.175 38.8679C235.732 39.0355 235.23 39.1193 234.67 39.1193C233.892 39.1193 233.196 38.9432 232.582 38.5909C231.972 38.2386 231.489 37.7287 231.134 37.0611C230.781 36.3935 230.605 35.5852 230.605 34.6364C230.605 33.6847 230.784 32.875 231.142 32.2074C231.5 31.5398 231.986 31.0312 232.599 30.6818C233.213 30.3295 233.903 30.1534 234.67 30.1534C235.176 30.1534 235.645 30.2244 236.077 30.3665C236.511 30.5085 236.896 30.7159 237.232 30.9886C237.567 31.2585 237.839 31.5895 238.05 31.9815C238.263 32.3736 238.399 32.8224 238.459 33.3281ZM239.748 39V32.4545H241.508V33.5966H241.576C241.695 33.1903 241.896 32.8835 242.177 32.6761C242.458 32.4659 242.782 32.3608 243.148 32.3608C243.239 32.3608 243.337 32.3665 243.442 32.3778C243.548 32.3892 243.64 32.4048 243.719 32.4247V34.0355C243.634 34.0099 243.516 33.9872 243.366 33.9673C243.215 33.9474 243.077 33.9375 242.952 33.9375C242.685 33.9375 242.447 33.9957 242.237 34.1122C242.029 34.2259 241.864 34.3849 241.742 34.5895C241.623 34.794 241.563 35.0298 241.563 35.2969V39H239.748ZM247.336 39.1278C246.663 39.1278 246.083 38.9915 245.598 38.7188C245.115 38.4432 244.743 38.054 244.481 37.5511C244.22 37.0455 244.089 36.4474 244.089 35.7571C244.089 35.0838 244.22 34.4929 244.481 33.9844C244.743 33.4759 245.11 33.0795 245.585 32.7955C246.062 32.5114 246.622 32.3693 247.264 32.3693C247.696 32.3693 248.098 32.4389 248.47 32.5781C248.845 32.7145 249.172 32.9205 249.45 33.196C249.731 33.4716 249.95 33.8182 250.106 34.2358C250.262 34.6506 250.341 35.1364 250.341 35.6932V36.1918H244.814V35.0668H248.632C248.632 34.8054 248.575 34.5739 248.461 34.3722C248.348 34.1705 248.19 34.0128 247.988 33.8991C247.789 33.7827 247.558 33.7244 247.294 33.7244C247.018 33.7244 246.774 33.7884 246.561 33.9162C246.35 34.0412 246.186 34.2102 246.066 34.4233C245.947 34.6335 245.886 34.8679 245.883 35.1264V36.196C245.883 36.5199 245.943 36.7997 246.062 37.0355C246.184 37.2713 246.356 37.4531 246.578 37.581C246.799 37.7088 247.062 37.7727 247.366 37.7727C247.568 37.7727 247.752 37.7443 247.92 37.6875C248.088 37.6307 248.231 37.5455 248.35 37.4318C248.47 37.3182 248.561 37.179 248.623 37.0142L250.302 37.125C250.217 37.5284 250.042 37.8807 249.778 38.1818C249.517 38.4801 249.179 38.7131 248.764 38.8807C248.352 39.0455 247.876 39.1278 247.336 39.1278ZM253.937 39.1065C253.44 39.1065 252.99 38.9787 252.586 38.723C252.186 38.4645 251.868 38.0852 251.632 37.5852C251.399 37.0824 251.282 36.4659 251.282 35.7358C251.282 34.9858 251.403 34.3622 251.645 33.8651C251.886 33.3651 252.207 32.9915 252.608 32.7443C253.011 32.4943 253.453 32.3693 253.933 32.3693C254.299 32.3693 254.605 32.4318 254.849 32.5568C255.096 32.679 255.295 32.8324 255.446 33.017C255.599 33.1989 255.716 33.3778 255.795 33.554H255.85V30.2727H257.662V39H255.872V37.9517H255.795C255.71 38.1335 255.589 38.3139 255.433 38.4929C255.279 38.669 255.079 38.8153 254.832 38.9318C254.588 39.0483 254.289 39.1065 253.937 39.1065ZM254.512 37.6619C254.805 37.6619 255.052 37.5824 255.254 37.4233C255.458 37.2614 255.615 37.0355 255.723 36.7457C255.833 36.456 255.889 36.1165 255.889 35.7273C255.889 35.3381 255.835 35 255.727 34.7131C255.619 34.4261 255.463 34.2045 255.258 34.0483C255.054 33.892 254.805 33.8139 254.512 33.8139C254.214 33.8139 253.963 33.8949 253.758 34.0568C253.554 34.2187 253.399 34.4432 253.294 34.7301C253.189 35.017 253.136 35.3494 253.136 35.7273C253.136 36.108 253.189 36.4446 253.294 36.7372C253.402 37.027 253.556 37.2543 253.758 37.419C253.963 37.581 254.214 37.6619 254.512 37.6619ZM259.154 39V32.4545H260.969V39H259.154ZM260.066 31.6108C259.796 31.6108 259.565 31.5213 259.371 31.3423C259.181 31.1605 259.086 30.9432 259.086 30.6903C259.086 30.4403 259.181 30.2259 259.371 30.0469C259.565 29.8651 259.796 29.7741 260.066 29.7741C260.336 29.7741 260.566 29.8651 260.756 30.0469C260.95 30.2259 261.046 30.4403 261.046 30.6903C261.046 30.9432 260.95 31.1605 260.756 31.3423C260.566 31.5213 260.336 31.6108 260.066 31.6108ZM265.905 32.4545V33.8182H261.963V32.4545H265.905ZM262.858 30.8864H264.674V36.9886C264.674 37.1562 264.699 37.2869 264.75 37.3807C264.801 37.4716 264.873 37.5355 264.963 37.5724C265.057 37.6094 265.165 37.6278 265.287 37.6278C265.373 37.6278 265.458 37.6207 265.543 37.6065C265.628 37.5895 265.694 37.5767 265.739 37.5682L266.025 38.919C265.934 38.9474 265.806 38.9801 265.641 39.017C265.476 39.0568 265.276 39.081 265.04 39.0895C264.603 39.1065 264.219 39.0483 263.89 38.9148C263.563 38.7812 263.309 38.5739 263.127 38.2926C262.945 38.0114 262.855 37.6562 262.858 37.2273V30.8864ZM277.599 33.3281H275.733C275.699 33.0866 275.629 32.8722 275.524 32.6847C275.419 32.4943 275.284 32.3324 275.119 32.1989C274.955 32.0653 274.764 31.9631 274.548 31.892C274.335 31.821 274.104 31.7855 273.854 31.7855C273.402 31.7855 273.009 31.8977 272.673 32.1222C272.338 32.3437 272.078 32.6676 271.893 33.0938C271.709 33.517 271.616 34.0312 271.616 34.6364C271.616 35.2585 271.709 35.7812 271.893 36.2045C272.081 36.6278 272.342 36.9474 272.678 37.1634C273.013 37.3793 273.401 37.4872 273.841 37.4872C274.088 37.4872 274.317 37.4545 274.527 37.3892C274.74 37.3239 274.929 37.2287 275.094 37.1037C275.259 36.9759 275.395 36.821 275.503 36.6392C275.614 36.4574 275.69 36.25 275.733 36.017L277.599 36.0256C277.551 36.4261 277.43 36.8125 277.237 37.1847C277.047 37.554 276.79 37.8849 276.466 38.1776C276.145 38.4673 275.761 38.6974 275.315 38.8679C274.872 39.0355 274.371 39.1193 273.811 39.1193C273.033 39.1193 272.337 38.9432 271.723 38.5909C271.112 38.2386 270.629 37.7287 270.274 37.0611C269.922 36.3935 269.746 35.5852 269.746 34.6364C269.746 33.6847 269.925 32.875 270.283 32.2074C270.641 31.5398 271.126 31.0312 271.74 30.6818C272.354 30.3295 273.044 30.1534 273.811 30.1534C274.317 30.1534 274.786 30.2244 275.217 30.3665C275.652 30.5085 276.037 30.7159 276.372 30.9886C276.707 31.2585 276.98 31.5895 277.19 31.9815C277.403 32.3736 277.54 32.8224 277.599 33.3281ZM280.755 39.1236C280.337 39.1236 279.965 39.0511 279.638 38.9062C279.312 38.7585 279.053 38.5412 278.863 38.2543C278.675 37.9645 278.582 37.6037 278.582 37.1719C278.582 36.8082 278.648 36.5028 278.782 36.2557C278.915 36.0085 279.097 35.8097 279.327 35.6591C279.558 35.5085 279.819 35.3949 280.112 35.3182C280.407 35.2415 280.717 35.1875 281.04 35.1562C281.421 35.1165 281.728 35.0795 281.961 35.0455C282.194 35.0085 282.363 34.9545 282.468 34.8835C282.573 34.8125 282.626 34.7074 282.626 34.5682V34.5426C282.626 34.2727 282.54 34.0639 282.37 33.9162C282.202 33.7685 281.964 33.6946 281.654 33.6946C281.327 33.6946 281.067 33.767 280.874 33.9119C280.681 34.054 280.553 34.233 280.491 34.4489L278.812 34.3125C278.897 33.9148 279.065 33.571 279.315 33.2812C279.565 32.9886 279.887 32.7642 280.282 32.608C280.68 32.4489 281.14 32.3693 281.663 32.3693C282.026 32.3693 282.374 32.4119 282.707 32.4972C283.042 32.5824 283.339 32.7145 283.597 32.8935C283.859 33.0724 284.065 33.3026 284.215 33.5838C284.366 33.8622 284.441 34.196 284.441 34.5852V39H282.719V38.0923H282.668C282.563 38.2969 282.423 38.4773 282.246 38.6335C282.07 38.7869 281.859 38.9077 281.612 38.9957C281.364 39.081 281.079 39.1236 280.755 39.1236ZM281.275 37.8707C281.542 37.8707 281.778 37.8182 281.982 37.7131C282.187 37.6051 282.347 37.4602 282.464 37.2784C282.58 37.0966 282.638 36.8906 282.638 36.6605V35.9659C282.582 36.0028 282.504 36.0369 282.404 36.0682C282.308 36.0966 282.198 36.1236 282.076 36.1491C281.954 36.1719 281.832 36.1932 281.71 36.2131C281.587 36.2301 281.477 36.2457 281.377 36.2599C281.164 36.2912 280.978 36.3409 280.819 36.4091C280.66 36.4773 280.536 36.5696 280.448 36.6861C280.36 36.7997 280.316 36.9418 280.316 37.1122C280.316 37.3594 280.406 37.5483 280.585 37.679C280.766 37.8068 280.996 37.8707 281.275 37.8707ZM285.849 39V32.4545H287.609V33.5966H287.678C287.797 33.1903 287.997 32.8835 288.278 32.6761C288.56 32.4659 288.884 32.3608 289.25 32.3608C289.341 32.3608 289.439 32.3665 289.544 32.3778C289.649 32.3892 289.741 32.4048 289.821 32.4247V34.0355C289.736 34.0099 289.618 33.9872 289.467 33.9673C289.317 33.9474 289.179 33.9375 289.054 33.9375C288.787 33.9375 288.548 33.9957 288.338 34.1122C288.131 34.2259 287.966 34.3849 287.844 34.5895C287.724 34.794 287.665 35.0298 287.665 35.2969V39H285.849ZM292.867 39.1065C292.37 39.1065 291.919 38.9787 291.516 38.723C291.115 38.4645 290.797 38.0852 290.561 37.5852C290.328 37.0824 290.212 36.4659 290.212 35.7358C290.212 34.9858 290.333 34.3622 290.574 33.8651C290.816 33.3651 291.137 32.9915 291.537 32.7443C291.941 32.4943 292.382 32.3693 292.863 32.3693C293.229 32.3693 293.534 32.4318 293.779 32.5568C294.026 32.679 294.225 32.8324 294.375 33.017C294.529 33.1989 294.645 33.3778 294.725 33.554H294.78V30.2727H296.591V39H294.801V37.9517H294.725C294.64 38.1335 294.519 38.3139 294.363 38.4929C294.209 38.669 294.009 38.8153 293.762 38.9318C293.517 39.0483 293.219 39.1065 292.867 39.1065ZM293.442 37.6619C293.735 37.6619 293.982 37.5824 294.184 37.4233C294.388 37.2614 294.544 37.0355 294.652 36.7457C294.763 36.456 294.819 36.1165 294.819 35.7273C294.819 35.3381 294.765 35 294.657 34.7131C294.549 34.4261 294.392 34.2045 294.188 34.0483C293.983 33.892 293.735 33.8139 293.442 33.8139C293.144 33.8139 292.892 33.8949 292.688 34.0568C292.483 34.2187 292.328 34.4432 292.223 34.7301C292.118 35.017 292.066 35.3494 292.066 35.7273C292.066 36.108 292.118 36.4446 292.223 36.7372C292.331 37.027 292.486 37.2543 292.688 37.419C292.892 37.581 293.144 37.6619 293.442 37.6619Z" fill="white"/>
<path d="M233.179 68V65.7841L238.357 60.9901C238.797 60.5639 239.166 60.1804 239.464 59.8395C239.768 59.4986 239.997 59.1648 240.153 58.8381C240.31 58.5066 240.388 58.1491 240.388 57.7656C240.388 57.3395 240.291 56.9725 240.097 56.6648C239.902 56.3523 239.637 56.1132 239.301 55.9474C238.965 55.777 238.584 55.6918 238.158 55.6918C237.713 55.6918 237.324 55.7817 236.993 55.9616C236.661 56.1416 236.406 56.3996 236.226 56.7358C236.046 57.072 235.956 57.4721 235.956 57.9361H233.037C233.037 56.9844 233.252 56.1581 233.683 55.4574C234.114 54.7566 234.718 54.2145 235.494 53.831C236.271 53.4474 237.166 53.2557 238.179 53.2557C239.221 53.2557 240.127 53.4403 240.899 53.8097C241.676 54.1742 242.279 54.6809 242.71 55.3295C243.141 55.9782 243.357 56.7216 243.357 57.5597C243.357 58.1089 243.248 58.651 243.03 59.1861C242.817 59.7211 242.436 60.3153 241.886 60.9688C241.337 61.6174 240.563 62.3963 239.564 63.3054L237.44 65.3864V65.4858H243.548V68H233.179ZM251.153 68.1989C250.092 68.1989 249.148 68.0166 248.319 67.652C247.495 67.2827 246.844 66.776 246.366 66.1321C245.893 65.4834 245.649 64.7353 245.635 63.8878H248.731C248.75 64.2429 248.866 64.5554 249.079 64.8253C249.297 65.0904 249.586 65.2964 249.946 65.4432C250.306 65.59 250.71 65.6634 251.16 65.6634C251.629 65.6634 252.043 65.5805 252.403 65.4148C252.763 65.2491 253.045 65.0194 253.248 64.7259C253.452 64.4323 253.554 64.0937 253.554 63.7102C253.554 63.322 253.445 62.9787 253.227 62.6804C253.014 62.3774 252.706 62.1406 252.304 61.9702C251.906 61.7997 251.432 61.7145 250.883 61.7145H249.527V59.456H250.883C251.347 59.456 251.757 59.3755 252.112 59.2145C252.472 59.0535 252.751 58.831 252.95 58.5469C253.149 58.258 253.248 57.9219 253.248 57.5384C253.248 57.1738 253.161 56.8542 252.985 56.5795C252.815 56.3002 252.574 56.0824 252.261 55.9261C251.953 55.7699 251.593 55.6918 251.181 55.6918C250.765 55.6918 250.384 55.7675 250.038 55.919C249.692 56.0658 249.415 56.2765 249.207 56.5511C248.999 56.8258 248.887 57.1477 248.873 57.517H245.926C245.94 56.679 246.179 55.9403 246.643 55.3011C247.107 54.6619 247.732 54.1624 248.518 53.8026C249.309 53.438 250.201 53.2557 251.196 53.2557C252.199 53.2557 253.078 53.438 253.831 53.8026C254.583 54.1671 255.168 54.6596 255.585 55.2798C256.006 55.8954 256.215 56.5866 256.21 57.3537C256.215 58.1681 255.961 58.8475 255.45 59.392C254.943 59.9366 254.283 60.2822 253.468 60.429V60.5426C254.538 60.6799 255.353 61.0516 255.912 61.6577C256.475 62.259 256.754 63.0118 256.75 63.9162C256.754 64.7448 256.515 65.4811 256.032 66.125C255.554 66.7689 254.894 67.2756 254.051 67.6449C253.208 68.0142 252.242 68.1989 251.153 68.1989ZM258.74 65.4432V63.0213L264.812 53.4545H266.901V56.8068H265.665L261.837 62.8651V62.9787H270.466V65.4432H258.74ZM265.722 68V64.7045L265.778 63.6321V53.4545H268.662V68H265.722Z" fill="white"/>
<path d="M281.225 64.2727L281.385 61.799L279.314 63.1861L278.457 61.6776L280.688 60.5909L278.457 59.5043L279.314 57.9957L281.385 59.3828L281.225 56.9091H282.945L282.778 59.3828L284.849 57.9957L285.706 59.5043L283.482 60.5909L285.706 61.6776L284.849 63.1861L282.778 61.799L282.945 64.2727H281.225ZM291.385 64.2727L291.545 61.799L289.474 63.1861L288.618 61.6776L290.848 60.5909L288.618 59.5043L289.474 57.9957L291.545 59.3828L291.385 56.9091H293.105L292.939 59.3828L295.01 57.9957L295.866 59.5043L293.642 60.5909L295.866 61.6776L295.01 63.1861L292.939 61.799L293.105 64.2727H291.385ZM301.545 64.2727L301.705 61.799L299.634 63.1861L298.778 61.6776L301.009 60.5909L298.778 59.5043L299.634 57.9957L301.705 59.3828L301.545 56.9091H303.265L303.099 59.3828L305.17 57.9957L306.026 59.5043L303.802 60.5909L306.026 61.6776L305.17 63.1861L303.099 61.799L303.265 64.2727H301.545ZM311.706 64.2727L311.865 61.799L309.794 63.1861L308.938 61.6776L311.169 60.5909L308.938 59.5043L309.794 57.9957L311.865 59.3828L311.706 56.9091H313.425L313.259 59.3828L315.33 57.9957L316.186 59.5043L313.962 60.5909L316.186 61.6776L315.33 63.1861L313.259 61.799L313.425 64.2727H311.706Z" fill="white"/>
<path d="M332.225 64.2727L332.385 61.799L330.314 63.1861L329.457 61.6776L331.688 60.5909L329.457 59.5043L330.314 57.9957L332.385 59.3828L332.225 56.9091H333.945L333.778 59.3828L335.849 57.9957L336.706 59.5043L334.482 60.5909L336.706 61.6776L335.849 63.1861L333.778 61.799L333.945 64.2727H332.225ZM342.385 64.2727L342.545 61.799L340.474 63.1861L339.618 61.6776L341.848 60.5909L339.618 59.5043L340.474 57.9957L342.545 59.3828L342.385 56.9091H344.105L343.939 59.3828L346.01 57.9957L346.866 59.5043L344.642 60.5909L346.866 61.6776L346.01 63.1861L343.939 61.799L344.105 64.2727H342.385ZM352.545 64.2727L352.705 61.799L350.634 63.1861L349.778 61.6776L352.009 60.5909L349.778 59.5043L350.634 57.9957L352.705 59.3828L352.545 56.9091H354.265L354.099 59.3828L356.17 57.9957L357.026 59.5043L354.802 60.5909L357.026 61.6776L356.17 63.1861L354.099 61.799L354.265 64.2727H352.545ZM362.706 64.2727L362.865 61.799L360.794 63.1861L359.938 61.6776L362.169 60.5909L359.938 59.5043L360.794 57.9957L362.865 59.3828L362.706 56.9091H364.425L364.259 59.3828L366.33 57.9957L367.186 59.5043L364.962 60.5909L367.186 61.6776L366.33 63.1861L364.259 61.799L364.425 64.2727H362.706Z" fill="white"/>
</svg>
