<svg width="138" height="28" viewBox="0 0 138 28" fill="none" xmlns="http://www.w3.org/2000/svg">
<path d="M9.396 12.384C7.188 12.384 6.084 14.28 6.084 18.072C6.084 19.992 6.384 21.336 6.984 22.104C7.608 22.848 8.496 23.22 9.648 23.22C11.472 23.22 13.08 23.052 14.472 22.716L15.552 25.488C14.784 25.992 13.752 26.424 12.456 26.784C11.16 27.12 9.9 27.288 8.676 27.288C3.492 27.288 0.9 24.288 0.9 18.288C0.9 14.784 1.8 12.264 3.6 10.728C5.208 9.384 7.164 8.712 9.468 8.712C11.772 8.712 13.692 9.144 15.228 10.008C15.252 10.248 15.264 10.476 15.264 10.692C15.264 12.06 14.952 13.356 14.328 14.58H11.16C10.824 13.98 10.62 13.26 10.548 12.42C10.26 12.396 9.876 12.384 9.396 12.384ZM25.3184 27.288C22.4864 27.288 20.3864 26.532 19.0184 25.02C17.6504 23.508 16.9664 21.228 16.9664 18.18C16.9664 15.108 17.7224 12.768 19.2344 11.16C20.7704 9.528 22.9664 8.712 25.8224 8.712C28.6784 8.712 30.7904 9.432 32.1584 10.872C33.5504 12.312 34.2464 14.568 34.2464 17.64C34.2464 20.688 33.4664 23.064 31.9064 24.768C30.3704 26.448 28.1744 27.288 25.3184 27.288ZM22.1504 17.856C22.1504 21.696 23.3024 23.616 25.6064 23.616C26.7824 23.616 27.6464 23.184 28.1984 22.32C28.7744 21.432 29.0624 19.992 29.0624 18C29.0624 14.256 27.8864 12.384 25.5344 12.384C24.3824 12.384 23.5304 12.804 22.9784 13.644C22.4264 14.46 22.1504 15.864 22.1504 17.856ZM36.5243 9C37.8683 8.688 39.1163 8.532 40.2683 8.532C41.4203 8.532 42.3923 8.568 43.1843 8.64V23.004C44.1203 23.364 44.7803 23.772 45.1643 24.228L44.8043 27H36.5243L36.1643 24.228C36.5003 23.772 37.1603 23.364 38.1443 23.004V12.996C37.3043 12.708 36.6443 12.3 36.1643 11.772L36.5243 9ZM40.5923 6.516C38.6003 6.516 37.6043 5.616 37.6043 3.816C37.6043 1.992 38.6003 1.08 40.5923 1.08C42.6083 1.08 43.6163 1.992 43.6163 3.816C43.6163 5.616 42.6083 6.516 40.5923 6.516ZM46.964 9C48.284 8.712 49.472 8.568 50.528 8.568C51.584 8.568 52.46 8.592 53.156 8.64V10.44C53.756 9.936 54.548 9.528 55.532 9.216C56.54 8.88 57.5 8.712 58.412 8.712C60.764 8.712 62.408 9.264 63.344 10.368C64.304 11.472 64.784 13.38 64.784 16.092V23.004C65.72 23.364 66.38 23.772 66.764 24.228L66.404 27H58.124L57.764 24.228C58.1 23.772 58.76 23.364 59.744 23.004V15.876C59.744 14.58 59.528 13.716 59.096 13.284C58.688 12.828 57.944 12.6 56.864 12.6C55.784 12.6 54.704 12.984 53.624 13.752V23.004C54.56 23.364 55.22 23.772 55.604 24.228L55.244 27H46.964L46.604 24.228C46.94 23.772 47.6 23.364 48.584 23.004V12.996C47.744 12.708 47.084 12.3 46.604 11.772L46.964 9ZM67.2581 1.44C68.6021 1.128 69.8501 0.971998 71.0021 0.971998C72.1541 0.971998 73.1261 1.008 73.9181 1.08V10.08C74.4221 9.72 75.0941 9.408 75.9341 9.144C76.7741 8.856 77.5781 8.712 78.3461 8.712C80.9621 8.712 82.7981 9.384 83.8541 10.728C84.9101 12.072 85.4381 14.364 85.4381 17.604C85.4381 19.404 85.1861 20.964 84.6821 22.284C84.2021 23.58 83.5421 24.576 82.7021 25.272C81.1181 26.616 79.2461 27.288 77.0861 27.288C75.4541 27.288 73.8461 26.88 72.2621 26.064C71.8061 26.688 71.2781 27 70.6781 27H68.8781V5.436C68.0381 5.148 67.3781 4.74 66.8981 4.212L67.2581 1.44ZM76.7981 23.616C79.1021 23.616 80.2541 21.684 80.2541 17.82C80.2541 15.78 80.0501 14.4 79.6421 13.68C79.2581 12.936 78.5741 12.564 77.5901 12.564C76.1021 12.564 74.8781 12.96 73.9181 13.752V23.004C74.9501 23.412 75.9101 23.616 76.7981 23.616ZM88.0701 11.664C88.0701 11.304 88.0821 10.92 88.1061 10.512C90.3381 9.312 92.7381 8.712 95.3061 8.712C97.8741 8.712 99.7101 9.204 100.814 10.188C101.942 11.148 102.506 12.756 102.506 15.012V22.68C103.346 22.848 104.006 23.052 104.486 23.292V26.424C103.262 27 101.51 27.288 99.2301 27.288C98.9901 26.664 98.7861 25.908 98.6181 25.02C97.5861 26.532 95.7141 27.288 93.0021 27.288C91.3941 27.288 90.0141 26.82 88.8621 25.884C87.7341 24.948 87.1701 23.676 87.1701 22.068C87.1701 20.46 87.6981 19.2 88.7541 18.288C89.8341 17.352 91.4301 16.884 93.5421 16.884H97.4661V15.156C97.4661 13.284 96.4701 12.348 94.4781 12.348C93.7341 12.348 93.1221 12.42 92.6421 12.564C92.5941 13.572 92.4501 14.352 92.2101 14.904H88.6821C88.2741 14.064 88.0701 12.984 88.0701 11.664ZM94.5501 23.616C95.7741 23.616 96.7461 23.256 97.4661 22.536V19.584H94.9461C93.2181 19.584 92.3541 20.244 92.3541 21.564C92.3541 22.164 92.5341 22.656 92.8941 23.04C93.2781 23.424 93.8301 23.616 94.5501 23.616ZM112.972 11.952C111.388 11.952 110.596 12.42 110.596 13.356C110.596 14.244 111.424 14.904 113.08 15.336L115.924 16.092C118.852 16.86 120.316 18.552 120.316 21.168C120.316 22.968 119.68 24.444 118.408 25.596C117.16 26.724 115.156 27.288 112.396 27.288C109.66 27.288 107.524 26.904 105.988 26.136C105.964 25.872 105.952 25.608 105.952 25.344C105.952 24.024 106.216 22.836 106.744 21.78H109.732C110.044 22.356 110.248 22.956 110.344 23.58C110.824 23.724 111.508 23.796 112.396 23.796C114.508 23.796 115.564 23.196 115.564 21.996C115.564 21.612 115.42 21.3 115.132 21.06C114.844 20.796 114.28 20.544 113.44 20.304L110.596 19.476C109.132 19.068 107.992 18.468 107.176 17.676C106.36 16.86 105.952 15.672 105.952 14.112C105.952 12.528 106.588 11.232 107.86 10.224C109.132 9.216 110.944 8.712 113.296 8.712C115.672 8.712 117.676 9.06 119.308 9.756C119.332 9.996 119.344 10.236 119.344 10.476C119.344 11.724 119.08 12.876 118.552 13.932H115.6C115.288 13.38 115.084 12.804 114.988 12.204C114.316 12.036 113.644 11.952 112.972 11.952ZM130.654 27.288C127.774 27.288 125.602 26.52 124.138 24.984C122.698 23.448 121.978 21.216 121.978 18.288C121.978 16.512 122.23 14.988 122.734 13.716C123.238 12.42 123.922 11.424 124.786 10.728C126.466 9.384 128.422 8.712 130.654 8.712C132.886 8.712 134.59 9.288 135.766 10.44C136.966 11.568 137.566 13.608 137.566 16.56C137.566 18.288 136.714 19.152 135.01 19.152H127.198C127.294 20.664 127.678 21.732 128.35 22.356C129.046 22.98 130.138 23.292 131.626 23.292C132.442 23.292 133.222 23.196 133.966 23.004C134.71 22.812 135.25 22.62 135.586 22.428L136.09 22.14L137.17 25.02C137.026 25.188 136.81 25.404 136.522 25.668C136.258 25.908 135.562 26.244 134.434 26.676C133.33 27.084 132.07 27.288 130.654 27.288ZM132.922 15.948C132.97 15.612 132.994 15.204 132.994 14.724C132.994 14.244 132.802 13.74 132.418 13.212C132.034 12.66 131.362 12.384 130.402 12.384C129.466 12.384 128.746 12.672 128.242 13.248C127.738 13.824 127.402 14.796 127.234 16.164L132.922 15.948Z" fill="#023247"/>
</svg>
