<svg width="399" height="200" viewBox="0 0 399 200" fill="none" xmlns="http://www.w3.org/2000/svg">
<rect width="399" height="200" rx="10" fill="white"/>
<path d="M81.9206 123.159L27 149.92V159L373 156.133V51L332.059 59.1239L265.156 83.9734L206.241 92.5752L81.9206 123.159Z" fill="url(#paint0_linear_69_144)"/>
<path d="M27 150L81.9206 123.217L206.241 92.6087L265.156 84L332.059 59.1304L373 51" stroke="#2A8E9E"/>
<line x1="27" y1="166.5" x2="373" y2="166.5" stroke="#023347" stroke-opacity="0.2"/>
<path d="M28.7656 23.6378C28.7277 23.3016 28.5715 23.0412 28.2969 22.8565C28.0223 22.6695 27.6766 22.576 27.2599 22.576C26.9616 22.576 26.7036 22.6233 26.4858 22.718C26.268 22.8104 26.0987 22.9382 25.978 23.1016C25.8596 23.2625 25.8004 23.446 25.8004 23.652C25.8004 23.8248 25.8407 23.974 25.9212 24.0994C26.004 24.2249 26.1117 24.3303 26.2443 24.4155C26.3793 24.4983 26.5237 24.5682 26.6776 24.625C26.8314 24.6795 26.9794 24.7244 27.1214 24.7599L27.8317 24.9446C28.0637 25.0014 28.3016 25.0784 28.5455 25.1754C28.7893 25.2725 29.0154 25.4003 29.2237 25.5589C29.4321 25.7176 29.6001 25.9141 29.728 26.1484C29.8582 26.3828 29.9233 26.6634 29.9233 26.9901C29.9233 27.402 29.8168 27.7678 29.6037 28.0874C29.393 28.407 29.0864 28.6591 28.6839 28.8438C28.2839 29.0284 27.7997 29.1207 27.2315 29.1207C26.687 29.1207 26.2159 29.0343 25.8182 28.8615C25.4205 28.6887 25.1091 28.4437 24.8842 28.1264C24.6593 27.8068 24.535 27.428 24.5114 26.9901H25.6122C25.6335 27.2528 25.7188 27.4718 25.8679 27.647C26.0194 27.8198 26.2124 27.9489 26.4467 28.0341C26.6835 28.117 26.9427 28.1584 27.2244 28.1584C27.5346 28.1584 27.8104 28.1098 28.0518 28.0128C28.2957 27.9134 28.4875 27.776 28.6271 27.6009C28.7668 27.4233 28.8366 27.2161 28.8366 26.9794C28.8366 26.764 28.7751 26.5876 28.652 26.4503C28.5313 26.313 28.3667 26.1993 28.1584 26.1094C27.9524 26.0194 27.7192 25.9401 27.4588 25.8714L26.5994 25.6371C26.017 25.4785 25.5554 25.2453 25.2145 24.9375C24.8759 24.6297 24.7067 24.2225 24.7067 23.7159C24.7067 23.2969 24.8203 22.9311 25.0476 22.6186C25.2749 22.3061 25.5826 22.0634 25.9709 21.8906C26.3591 21.7154 26.7971 21.6278 27.2848 21.6278C27.7772 21.6278 28.2116 21.7143 28.5881 21.8871C28.9669 22.0599 29.2652 22.2978 29.483 22.6009C29.7008 22.9015 29.8144 23.2472 29.8239 23.6378H28.7656ZM34.6046 26.7379V23.5455H35.6699V29H34.6259V28.0554H34.5691C34.4436 28.3466 34.2424 28.5893 33.9654 28.7834C33.6908 28.9751 33.3487 29.071 32.9391 29.071C32.5887 29.071 32.2786 28.9941 32.0087 28.8402C31.7412 28.6839 31.5305 28.4531 31.3766 28.1477C31.2251 27.8423 31.1493 27.4647 31.1493 27.0149V23.5455H32.2111V26.8871C32.2111 27.2588 32.3141 27.5547 32.5201 27.7749C32.726 27.995 32.9935 28.1051 33.3226 28.1051C33.5215 28.1051 33.7192 28.0554 33.9157 27.956C34.1145 27.8565 34.2791 27.7062 34.4093 27.505C34.5418 27.3037 34.6069 27.0481 34.6046 26.7379ZM37.0966 29V23.5455H38.1158V24.4332H38.1832C38.2969 24.1326 38.4827 23.8982 38.7408 23.7301C38.9988 23.5597 39.3078 23.4744 39.6676 23.4744C40.0322 23.4744 40.3376 23.5597 40.5838 23.7301C40.8324 23.9006 41.0159 24.1349 41.1342 24.4332H41.1911C41.3213 24.142 41.5284 23.91 41.8125 23.7372C42.0966 23.562 42.4351 23.4744 42.8281 23.4744C43.3229 23.4744 43.7266 23.6295 44.0391 23.9396C44.3539 24.2498 44.5114 24.7173 44.5114 25.3423V29H43.4496V25.4418C43.4496 25.0724 43.349 24.8049 43.1477 24.6392C42.9465 24.4735 42.7062 24.3906 42.4268 24.3906C42.0812 24.3906 41.8125 24.4972 41.6207 24.7102C41.429 24.9209 41.3331 25.192 41.3331 25.5234V29H40.2749V25.3743C40.2749 25.0784 40.1825 24.8404 39.9979 24.6605C39.8132 24.4806 39.5729 24.3906 39.277 24.3906C39.0758 24.3906 38.8899 24.4439 38.7195 24.5504C38.5514 24.6546 38.4152 24.8002 38.3111 24.9872C38.2093 25.1742 38.1584 25.3909 38.1584 25.6371V29H37.0966ZM45.9345 29V23.5455H46.9537V24.4332H47.0211C47.1348 24.1326 47.3206 23.8982 47.5787 23.7301C47.8367 23.5597 48.1457 23.4744 48.5055 23.4744C48.8701 23.4744 49.1755 23.5597 49.4217 23.7301C49.6703 23.9006 49.8538 24.1349 49.9721 24.4332H50.0289C50.1592 24.142 50.3663 23.91 50.6504 23.7372C50.9345 23.562 51.273 23.4744 51.666 23.4744C52.1608 23.4744 52.5645 23.6295 52.877 23.9396C53.1918 24.2498 53.3493 24.7173 53.3493 25.3423V29H52.2875V25.4418C52.2875 25.0724 52.1868 24.8049 51.9856 24.6392C51.7844 24.4735 51.5441 24.3906 51.2647 24.3906C50.9191 24.3906 50.6504 24.4972 50.4586 24.7102C50.2669 24.9209 50.171 25.192 50.171 25.5234V29H49.1127V25.3743C49.1127 25.0784 49.0204 24.8404 48.8358 24.6605C48.6511 24.4806 48.4108 24.3906 48.1149 24.3906C47.9136 24.3906 47.7278 24.4439 47.5574 24.5504C47.3893 24.6546 47.2531 24.8002 47.149 24.9872C47.0472 25.1742 46.9963 25.3909 46.9963 25.6371V29H45.9345ZM56.3597 29.1207C56.0141 29.1207 55.7016 29.0568 55.4222 28.929C55.1429 28.7988 54.9215 28.6106 54.7582 28.3643C54.5972 28.1181 54.5167 27.8163 54.5167 27.4588C54.5167 27.151 54.5759 26.8977 54.6942 26.6989C54.8126 26.5 54.9724 26.3426 55.1737 26.2266C55.3749 26.1106 55.5998 26.023 55.8484 25.9638C56.0969 25.9046 56.3503 25.8596 56.6083 25.8288C56.935 25.791 57.2002 25.7602 57.4038 25.7365C57.6074 25.7105 57.7553 25.669 57.8477 25.6122C57.94 25.5554 57.9862 25.4631 57.9862 25.3352V25.3104C57.9862 25.0002 57.8986 24.7599 57.7234 24.5895C57.5505 24.419 57.2925 24.3338 56.9492 24.3338C56.5917 24.3338 56.31 24.4131 56.104 24.5717C55.9004 24.728 55.7596 24.902 55.6815 25.0938L54.6836 24.8665C54.802 24.535 54.9748 24.2675 55.2021 24.0639C55.4317 23.858 55.6957 23.7088 55.994 23.6165C56.2923 23.5218 56.6059 23.4744 56.935 23.4744C57.1528 23.4744 57.3836 23.5005 57.6275 23.5526C57.8737 23.6023 58.1033 23.6946 58.3164 23.8295C58.5318 23.9645 58.7082 24.1574 58.8455 24.4084C58.9828 24.657 59.0515 24.9801 59.0515 25.3778V29H58.0146V28.2543H57.9719C57.9033 28.3916 57.8003 28.5265 57.663 28.6591C57.5257 28.7917 57.3493 28.9018 57.1339 28.9893C56.9184 29.0769 56.6604 29.1207 56.3597 29.1207ZM56.5906 28.2685C56.8841 28.2685 57.1351 28.2105 57.3434 28.0945C57.5541 27.9785 57.7139 27.8269 57.8228 27.6399C57.9341 27.4505 57.9897 27.2481 57.9897 27.0327V26.3295C57.9518 26.3674 57.8784 26.4029 57.7695 26.4361C57.663 26.4669 57.5411 26.4941 57.4038 26.5178C57.2665 26.5391 57.1327 26.5592 57.0025 26.5781C56.8723 26.5947 56.7634 26.6089 56.6758 26.6207C56.4698 26.6468 56.2816 26.6906 56.1112 26.7521C55.9431 26.8137 55.8081 26.9025 55.7063 27.0185C55.6069 27.1321 55.5572 27.2836 55.5572 27.473C55.5572 27.7358 55.6542 27.9347 55.8484 28.0696C56.0425 28.2022 56.2899 28.2685 56.5906 28.2685ZM60.4657 29V23.5455H61.492V24.4119H61.5488C61.6483 24.1184 61.8234 23.8875 62.0744 23.7195C62.3277 23.549 62.6142 23.4638 62.9338 23.4638C63.0001 23.4638 63.0782 23.4661 63.1681 23.4709C63.2605 23.4756 63.3327 23.4815 63.3848 23.4886V24.5043C63.3422 24.4924 63.2664 24.4794 63.1575 24.4652C63.0486 24.4486 62.9397 24.4403 62.8308 24.4403C62.5798 24.4403 62.3561 24.4936 62.1596 24.6001C61.9655 24.7043 61.8116 24.8499 61.698 25.0369C61.5843 25.2216 61.5275 25.4323 61.5275 25.669V29H60.4657ZM65.1408 31.0455C64.9822 31.0455 64.8378 31.0324 64.7076 31.0064C64.5774 30.9827 64.4803 30.9567 64.4164 30.9283L64.6721 30.0582C64.8662 30.1103 65.039 30.1328 65.1905 30.1257C65.342 30.1186 65.4758 30.0618 65.5918 29.9553C65.7102 29.8487 65.8143 29.6747 65.9043 29.4332L66.0357 29.071L64.04 23.5455H65.1763L66.5577 27.7784H66.6145L67.9959 23.5455H69.1358L66.888 29.728C66.7838 30.0121 66.6512 30.2524 66.4902 30.4489C66.3292 30.6477 66.1375 30.7969 65.915 30.8963C65.6924 30.9957 65.4344 31.0455 65.1408 31.0455Z" fill="#7B808C"/>
<path d="M29.9006 176.182H30.7756V180.307C30.7756 180.68 30.7017 180.999 30.554 181.264C30.4081 181.529 30.2027 181.732 29.9375 181.872C29.6723 182.01 29.3617 182.08 29.0057 182.08C28.678 182.08 28.3835 182.02 28.1222 181.901C27.8627 181.781 27.6572 181.608 27.5057 181.381C27.3561 181.152 27.2812 180.873 27.2812 180.545H28.1534C28.1534 180.706 28.1903 180.846 28.2642 180.963C28.34 181.08 28.4432 181.172 28.5739 181.239C28.7064 181.303 28.858 181.335 29.0284 181.335C29.214 181.335 29.3712 181.296 29.5 181.219C29.6307 181.139 29.7301 181.023 29.7983 180.869C29.8665 180.716 29.9006 180.528 29.9006 180.307V176.182ZM33.255 182.097C32.9785 182.097 32.7285 182.045 32.505 181.943C32.2815 181.839 32.1044 181.688 31.9737 181.491C31.8449 181.295 31.7805 181.053 31.7805 180.767C31.7805 180.521 31.8279 180.318 31.9226 180.159C32.0173 180 32.1451 179.874 32.3061 179.781C32.4671 179.688 32.647 179.618 32.8459 179.571C33.0447 179.524 33.2474 179.488 33.4538 179.463C33.7152 179.433 33.9273 179.408 34.0902 179.389C34.2531 179.368 34.3714 179.335 34.4453 179.29C34.5192 179.244 34.5561 179.17 34.5561 179.068V179.048C34.5561 178.8 34.486 178.608 34.3459 178.472C34.2076 178.335 34.0012 178.267 33.7266 178.267C33.4406 178.267 33.2152 178.33 33.0504 178.457C32.8875 178.582 32.7749 178.722 32.7124 178.875L31.9141 178.693C32.0088 178.428 32.147 178.214 32.3288 178.051C32.5125 177.886 32.7237 177.767 32.9624 177.693C33.201 177.617 33.4519 177.58 33.7152 177.58C33.8894 177.58 34.0741 177.6 34.2692 177.642C34.4661 177.682 34.6499 177.756 34.8203 177.864C34.9927 177.972 35.1338 178.126 35.2436 178.327C35.3535 178.526 35.4084 178.784 35.4084 179.102V182H34.5788V181.403H34.5447C34.4898 181.513 34.4074 181.621 34.2976 181.727C34.1877 181.833 34.0466 181.921 33.8743 181.991C33.7019 182.062 33.4955 182.097 33.255 182.097ZM33.4396 181.415C33.6745 181.415 33.8752 181.368 34.0419 181.276C34.2105 181.183 34.3383 181.062 34.4254 180.912C34.5144 180.76 34.5589 180.598 34.5589 180.426V179.864C34.5286 179.894 34.4699 179.922 34.3828 179.949C34.2976 179.973 34.2 179.995 34.0902 180.014C33.9804 180.031 33.8733 180.047 33.7692 180.062C33.665 180.076 33.5779 180.087 33.5078 180.097C33.343 180.117 33.1925 180.152 33.0561 180.202C32.9216 180.251 32.8137 180.322 32.7322 180.415C32.6527 180.506 32.6129 180.627 32.6129 180.778C32.6129 180.989 32.6906 181.148 32.8459 181.256C33.0012 181.362 33.1991 181.415 33.4396 181.415ZM37.3892 179.409V182H36.5398V177.636H37.3551V178.347H37.4091C37.5095 178.116 37.6667 177.93 37.8807 177.79C38.0966 177.65 38.3684 177.58 38.696 177.58C38.9934 177.58 39.2538 177.642 39.4773 177.767C39.7008 177.89 39.8741 178.074 39.9972 178.318C40.1203 178.562 40.1818 178.865 40.1818 179.224V182H39.3324V179.327C39.3324 179.01 39.25 178.763 39.0852 178.585C38.9205 178.405 38.6941 178.315 38.4062 178.315C38.2093 178.315 38.0341 178.358 37.8807 178.443C37.7292 178.528 37.6089 178.653 37.5199 178.818C37.4328 178.981 37.3892 179.178 37.3892 179.409Z" fill="#7B808C"/>
<path d="M92.6392 182V176.182H96.2472V176.938H93.517V178.71H95.9886V179.463H93.517V182H92.6392ZM98.8189 182.088C98.389 182.088 98.0187 181.996 97.7081 181.812C97.3994 181.627 97.1607 181.366 96.9922 181.031C96.8255 180.694 96.7422 180.299 96.7422 179.847C96.7422 179.4 96.8255 179.006 96.9922 178.665C97.1607 178.324 97.3956 178.058 97.6967 177.866C97.9998 177.675 98.3539 177.58 98.7592 177.58C99.0054 177.58 99.2441 177.62 99.4751 177.702C99.7062 177.783 99.9136 177.911 100.097 178.085C100.281 178.259 100.426 178.486 100.532 178.764C100.638 179.041 100.691 179.377 100.691 179.773V180.074H97.2223V179.438H99.8587C99.8587 179.214 99.8132 179.016 99.7223 178.844C99.6314 178.67 99.5036 178.532 99.3388 178.432C99.1759 178.331 98.9846 178.281 98.7649 178.281C98.5263 178.281 98.3179 178.34 98.1399 178.457C97.9638 178.573 97.8274 178.724 97.7308 178.912C97.6361 179.098 97.5888 179.299 97.5888 179.517V180.014C97.5888 180.306 97.6399 180.554 97.7422 180.759C97.8464 180.963 97.9912 181.119 98.1768 181.227C98.3625 181.333 98.5793 181.386 98.8274 181.386C98.9884 181.386 99.1352 181.364 99.2678 181.318C99.4003 181.271 99.5149 181.201 99.6115 181.108C99.7081 181.015 99.782 180.901 99.8331 180.764L100.637 180.909C100.573 181.146 100.457 181.353 100.29 181.531C100.126 181.707 99.9183 181.845 99.6683 181.943C99.4202 182.04 99.1371 182.088 98.8189 182.088ZM105.241 177.636L103.659 182H102.75L101.165 177.636H102.077L103.182 180.994H103.227L104.33 177.636H105.241Z" fill="#7B808C"/>
<path d="M157.639 176.182H158.705L160.557 180.705H160.625L162.477 176.182H163.543V182H162.707V177.79H162.653L160.938 181.991H160.244L158.528 177.787H158.474V182H157.639V176.182ZM166.021 182.097C165.744 182.097 165.494 182.045 165.271 181.943C165.047 181.839 164.87 181.688 164.739 181.491C164.611 181.295 164.546 181.053 164.546 180.767C164.546 180.521 164.594 180.318 164.688 180.159C164.783 180 164.911 179.874 165.072 179.781C165.233 179.688 165.413 179.618 165.612 179.571C165.81 179.524 166.013 179.488 166.219 179.463C166.481 179.433 166.693 179.408 166.856 179.389C167.019 179.368 167.137 179.335 167.211 179.29C167.285 179.244 167.322 179.17 167.322 179.068V179.048C167.322 178.8 167.252 178.608 167.112 178.472C166.973 178.335 166.767 178.267 166.492 178.267C166.206 178.267 165.981 178.33 165.816 178.457C165.653 178.582 165.54 178.722 165.478 178.875L164.68 178.693C164.774 178.428 164.913 178.214 165.094 178.051C165.278 177.886 165.489 177.767 165.728 177.693C165.967 177.617 166.218 177.58 166.481 177.58C166.655 177.58 166.84 177.6 167.035 177.642C167.232 177.682 167.415 177.756 167.586 177.864C167.758 177.972 167.899 178.126 168.009 178.327C168.119 178.526 168.174 178.784 168.174 179.102V182H167.344V181.403H167.31C167.255 181.513 167.173 181.621 167.063 181.727C166.953 181.833 166.812 181.921 166.64 181.991C166.468 182.062 166.261 182.097 166.021 182.097ZM166.205 181.415C166.44 181.415 166.641 181.368 166.808 181.276C166.976 181.183 167.104 181.062 167.191 180.912C167.28 180.76 167.325 180.598 167.325 180.426V179.864C167.294 179.894 167.236 179.922 167.148 179.949C167.063 179.973 166.966 179.995 166.856 180.014C166.746 180.031 166.639 180.047 166.535 180.062C166.431 180.076 166.344 180.087 166.273 180.097C166.109 180.117 165.958 180.152 165.822 180.202C165.687 180.251 165.579 180.322 165.498 180.415C165.418 180.506 165.379 180.627 165.379 180.778C165.379 180.989 165.456 181.148 165.612 181.256C165.767 181.362 165.965 181.415 166.205 181.415ZM169.305 182V177.636H170.126V178.33H170.172C170.251 178.095 170.392 177.91 170.592 177.776C170.795 177.639 171.024 177.571 171.28 177.571C171.333 177.571 171.395 177.573 171.467 177.577C171.541 177.58 171.599 177.585 171.641 177.591V178.403C171.607 178.394 171.546 178.384 171.459 178.372C171.372 178.359 171.285 178.352 171.197 178.352C170.997 178.352 170.818 178.395 170.661 178.48C170.505 178.563 170.382 178.68 170.291 178.83C170.2 178.977 170.155 179.146 170.155 179.335V182H169.305Z" fill="#7B808C"/>
<path d="M224.131 182H223.199L225.293 176.182H226.307L228.401 182H227.469L225.824 177.239H225.778L224.131 182ZM224.287 179.722H227.31V180.46H224.287V179.722ZM229.173 183.636V177.636H230.002V178.344H230.073C230.122 178.253 230.193 178.148 230.286 178.028C230.379 177.909 230.508 177.805 230.673 177.716C230.837 177.625 231.055 177.58 231.326 177.58C231.678 177.58 231.993 177.669 232.269 177.847C232.546 178.025 232.763 178.281 232.92 178.616C233.079 178.952 233.158 179.355 233.158 179.827C233.158 180.298 233.08 180.703 232.923 181.04C232.765 181.375 232.549 181.634 232.275 181.815C232 181.995 231.687 182.085 231.335 182.085C231.069 182.085 230.853 182.041 230.684 181.952C230.517 181.863 230.387 181.759 230.292 181.639C230.197 181.52 230.124 181.414 230.073 181.321H230.022V183.636H229.173ZM230.005 179.818C230.005 180.125 230.049 180.394 230.138 180.625C230.228 180.856 230.356 181.037 230.525 181.168C230.693 181.296 230.9 181.361 231.144 181.361C231.398 181.361 231.61 181.294 231.781 181.159C231.951 181.023 232.08 180.838 232.167 180.605C232.256 180.372 232.3 180.11 232.3 179.818C232.3 179.53 232.257 179.272 232.17 179.043C232.085 178.813 231.956 178.633 231.783 178.5C231.613 178.367 231.4 178.301 231.144 178.301C230.898 178.301 230.69 178.365 230.519 178.491C230.351 178.618 230.223 178.795 230.136 179.023C230.049 179.25 230.005 179.515 230.005 179.818ZM234.11 182V177.636H234.931V178.33H234.977C235.056 178.095 235.196 177.91 235.397 177.776C235.6 177.639 235.829 177.571 236.085 177.571C236.138 177.571 236.2 177.573 236.272 177.577C236.346 177.58 236.404 177.585 236.445 177.591V178.403C236.411 178.394 236.351 178.384 236.263 178.372C236.176 178.359 236.089 178.352 236.002 178.352C235.801 178.352 235.622 178.395 235.465 178.48C235.31 178.563 235.187 178.68 235.096 178.83C235.005 178.977 234.96 179.146 234.96 179.335V182H234.11Z" fill="#7B808C"/>
<path d="M288.639 176.182H289.705L291.557 180.705H291.625L293.477 176.182H294.543V182H293.707V177.79H293.653L291.938 181.991H291.244L289.528 177.787H289.474V182H288.639V176.182ZM297.021 182.097C296.744 182.097 296.494 182.045 296.271 181.943C296.047 181.839 295.87 181.688 295.739 181.491C295.611 181.295 295.546 181.053 295.546 180.767C295.546 180.521 295.594 180.318 295.688 180.159C295.783 180 295.911 179.874 296.072 179.781C296.233 179.688 296.413 179.618 296.612 179.571C296.81 179.524 297.013 179.488 297.219 179.463C297.481 179.433 297.693 179.408 297.856 179.389C298.019 179.368 298.137 179.335 298.211 179.29C298.285 179.244 298.322 179.17 298.322 179.068V179.048C298.322 178.8 298.252 178.608 298.112 178.472C297.973 178.335 297.767 178.267 297.492 178.267C297.206 178.267 296.981 178.33 296.816 178.457C296.653 178.582 296.54 178.722 296.478 178.875L295.68 178.693C295.774 178.428 295.913 178.214 296.094 178.051C296.278 177.886 296.489 177.767 296.728 177.693C296.967 177.617 297.218 177.58 297.481 177.58C297.655 177.58 297.84 177.6 298.035 177.642C298.232 177.682 298.415 177.756 298.586 177.864C298.758 177.972 298.899 178.126 299.009 178.327C299.119 178.526 299.174 178.784 299.174 179.102V182H298.344V181.403H298.31C298.255 181.513 298.173 181.621 298.063 181.727C297.953 181.833 297.812 181.921 297.64 181.991C297.468 182.062 297.261 182.097 297.021 182.097ZM297.205 181.415C297.44 181.415 297.641 181.368 297.808 181.276C297.976 181.183 298.104 181.062 298.191 180.912C298.28 180.76 298.325 180.598 298.325 180.426V179.864C298.294 179.894 298.236 179.922 298.148 179.949C298.063 179.973 297.966 179.995 297.856 180.014C297.746 180.031 297.639 180.047 297.535 180.062C297.431 180.076 297.344 180.087 297.273 180.097C297.109 180.117 296.958 180.152 296.822 180.202C296.687 180.251 296.579 180.322 296.498 180.415C296.418 180.506 296.379 180.627 296.379 180.778C296.379 180.989 296.456 181.148 296.612 181.256C296.767 181.362 296.965 181.415 297.205 181.415ZM300.686 183.636C300.559 183.636 300.444 183.626 300.339 183.605C300.235 183.586 300.158 183.565 300.107 183.543L300.311 182.847C300.466 182.888 300.605 182.906 300.726 182.901C300.847 182.895 300.954 182.849 301.047 182.764C301.142 182.679 301.225 182.54 301.297 182.347L301.402 182.057L299.805 177.636H300.714L301.82 181.023H301.865L302.97 177.636H303.882L302.084 182.582C302 182.81 301.894 183.002 301.766 183.159C301.637 183.318 301.483 183.438 301.305 183.517C301.127 183.597 300.921 183.636 300.686 183.636Z" fill="#7B808C"/>
<path d="M358.901 176.182H359.776V180.307C359.776 180.68 359.702 180.999 359.554 181.264C359.408 181.529 359.203 181.732 358.938 181.872C358.672 182.01 358.362 182.08 358.006 182.08C357.678 182.08 357.384 182.02 357.122 181.901C356.863 181.781 356.657 181.608 356.506 181.381C356.356 181.152 356.281 180.873 356.281 180.545H357.153C357.153 180.706 357.19 180.846 357.264 180.963C357.34 181.08 357.443 181.172 357.574 181.239C357.706 181.303 357.858 181.335 358.028 181.335C358.214 181.335 358.371 181.296 358.5 181.219C358.631 181.139 358.73 181.023 358.798 180.869C358.866 180.716 358.901 180.528 358.901 180.307V176.182ZM363.749 180.19V177.636H364.602V182H363.766V181.244H363.721C363.621 181.477 363.46 181.671 363.238 181.827C363.018 181.98 362.745 182.057 362.417 182.057C362.137 182.057 361.888 181.995 361.673 181.872C361.459 181.747 361.29 181.562 361.167 181.318C361.046 181.074 360.985 180.772 360.985 180.412V177.636H361.835V180.31C361.835 180.607 361.917 180.844 362.082 181.02C362.246 181.196 362.46 181.284 362.724 181.284C362.883 181.284 363.041 181.244 363.198 181.165C363.357 181.085 363.489 180.965 363.593 180.804C363.699 180.643 363.751 180.438 363.749 180.19ZM366.592 179.409V182H365.743V177.636H366.558V178.347H366.612C366.713 178.116 366.87 177.93 367.084 177.79C367.3 177.65 367.571 177.58 367.899 177.58C368.196 177.58 368.457 177.642 368.68 177.767C368.904 177.89 369.077 178.074 369.2 178.318C369.323 178.562 369.385 178.865 369.385 179.224V182H368.536V179.327C368.536 179.01 368.453 178.763 368.288 178.585C368.124 178.405 367.897 178.315 367.609 178.315C367.412 178.315 367.237 178.358 367.084 178.443C366.932 178.528 366.812 178.653 366.723 178.818C366.636 178.981 366.592 179.178 366.592 179.409Z" fill="#7B808C"/>
<path d="M29.8878 54.8182V36.6364H31.0526V54.8182H29.8878ZM33.5312 42.2756C33.4555 41.6032 33.143 41.0824 32.5938 40.7131C32.0445 40.339 31.3532 40.152 30.5199 40.152C29.9233 40.152 29.4072 40.2467 28.9716 40.4361C28.536 40.6207 28.1974 40.8764 27.956 41.2031C27.7192 41.5251 27.6009 41.892 27.6009 42.304C27.6009 42.6496 27.6813 42.9479 27.8423 43.1989C28.008 43.4498 28.2235 43.6605 28.4886 43.831C28.7585 43.9967 29.0473 44.1364 29.3551 44.25C29.6629 44.3589 29.9588 44.4489 30.2429 44.5199L31.6634 44.8892C32.1274 45.0028 32.6032 45.1567 33.0909 45.3509C33.5786 45.545 34.0308 45.8007 34.4474 46.1179C34.8641 46.4351 35.2003 46.8281 35.456 47.2969C35.7164 47.7656 35.8466 48.3267 35.8466 48.9801C35.8466 49.804 35.6335 50.5355 35.2074 51.1747C34.786 51.8139 34.1728 52.3182 33.3679 52.6875C32.5677 53.0568 31.5994 53.2415 30.4631 53.2415C29.3741 53.2415 28.4318 53.0687 27.6364 52.723C26.8409 52.3774 26.2183 51.8873 25.7685 51.2528C25.3187 50.6136 25.0701 49.8561 25.0227 48.9801H27.2244C27.267 49.5057 27.4375 49.9437 27.7358 50.294C28.0388 50.6397 28.4247 50.8977 28.8935 51.0682C29.367 51.2339 29.8854 51.3168 30.4489 51.3168C31.0691 51.3168 31.6207 51.2197 32.1037 51.0256C32.5914 50.8267 32.9749 50.5521 33.2543 50.2017C33.5336 49.8466 33.6733 49.4323 33.6733 48.9588C33.6733 48.5279 33.5502 48.1752 33.304 47.9006C33.0625 47.6259 32.7334 47.3987 32.3168 47.2188C31.9048 47.0388 31.4384 46.8802 30.9176 46.7429L29.1989 46.2741C28.0341 45.9569 27.1108 45.4905 26.429 44.875C25.7519 44.2595 25.4134 43.4451 25.4134 42.4318C25.4134 41.5937 25.6406 40.8622 26.0952 40.2372C26.5497 39.6122 27.1652 39.1269 27.9418 38.7812C28.7183 38.4309 29.5942 38.2557 30.5696 38.2557C31.5545 38.2557 32.4233 38.4285 33.1761 38.7741C33.9337 39.1198 34.5303 39.5956 34.9659 40.2017C35.4015 40.803 35.6288 41.4943 35.6477 42.2756H33.5312ZM43.7887 38.4545V53H41.587V40.6562H41.5018L38.0217 42.929V40.8267L41.6509 38.4545H43.7887ZM49.6747 51.0114L49.5682 51.7855C49.4972 52.3537 49.3764 52.9455 49.206 53.5611C49.0402 54.1813 48.8674 54.7566 48.6875 55.2869C48.5123 55.8172 48.3679 56.2386 48.2543 56.5511H46.7486C46.8101 56.2576 46.8954 55.8598 47.0043 55.358C47.1132 54.8608 47.2197 54.3045 47.3239 53.6889C47.428 53.0734 47.5062 52.446 47.5582 51.8068L47.6293 51.0114H49.6747ZM57.0717 53.1989C56.0537 53.1989 55.1541 53.0237 54.3729 52.6733C53.5964 52.3229 52.9879 51.84 52.5476 51.2244C52.1072 50.6089 51.8894 49.9081 51.8942 49.1222C51.8894 48.5066 52.0149 47.9408 52.2706 47.4247C52.531 46.9039 52.8838 46.4706 53.3288 46.125C53.7739 45.7746 54.2711 45.5521 54.8203 45.4574V45.3722C54.0959 45.197 53.5159 44.8087 53.0803 44.2074C52.6446 43.6061 52.4292 42.9148 52.4339 42.1335C52.4292 41.3902 52.6257 40.7273 53.0234 40.1449C53.4259 39.5578 53.9775 39.0961 54.6783 38.7599C55.379 38.4238 56.1768 38.2557 57.0717 38.2557C57.9571 38.2557 58.7479 38.4261 59.4439 38.767C60.1446 39.1032 60.6963 39.5649 61.0987 40.152C61.5012 40.7344 61.7048 41.3949 61.7095 42.1335C61.7048 42.9148 61.4822 43.6061 61.0419 44.2074C60.6016 44.8087 60.0286 45.197 59.3232 45.3722V45.4574C59.8677 45.5521 60.3577 45.7746 60.7933 46.125C61.2337 46.4706 61.584 46.9039 61.8445 47.4247C62.1096 47.9408 62.2446 48.5066 62.2493 49.1222C62.2446 49.9081 62.022 50.6089 61.5817 51.2244C61.1413 51.84 60.5305 52.3229 59.7493 52.6733C58.9728 53.0237 58.0803 53.1989 57.0717 53.1989ZM57.0717 51.402C57.6731 51.402 58.1939 51.3026 58.6342 51.1037C59.0746 50.9001 59.4155 50.6184 59.657 50.2585C59.8984 49.8939 60.0215 49.4678 60.0263 48.9801C60.0215 48.4735 59.889 48.026 59.6286 47.6378C59.3729 47.2495 59.0249 46.9441 58.5845 46.7216C58.1442 46.4991 57.6399 46.3878 57.0717 46.3878C56.4988 46.3878 55.9898 46.4991 55.5447 46.7216C55.0997 46.9441 54.7493 47.2495 54.4936 47.6378C54.2379 48.026 54.1125 48.4735 54.1172 48.9801C54.1125 49.4678 54.2285 49.8939 54.4652 50.2585C54.7067 50.6184 55.05 50.9001 55.495 51.1037C55.9401 51.3026 56.4657 51.402 57.0717 51.402ZM57.0717 44.6335C57.5547 44.6335 57.9832 44.5365 58.3572 44.3423C58.7313 44.1482 59.0249 43.8783 59.2379 43.5327C59.4557 43.187 59.567 42.7822 59.5717 42.3182C59.567 41.8636 59.4581 41.4659 59.245 41.125C59.0367 40.7841 58.7455 40.5213 58.3714 40.3366C57.9974 40.1473 57.5642 40.0526 57.0717 40.0526C56.5698 40.0526 56.1295 40.1473 55.7507 40.3366C55.3767 40.5213 55.0855 40.7841 54.8771 41.125C54.6688 41.4659 54.567 41.8636 54.5717 42.3182C54.567 42.7822 54.6712 43.187 54.8842 43.5327C55.0973 43.8783 55.3909 44.1482 55.7649 44.3423C56.1437 44.5365 56.5793 44.6335 57.0717 44.6335ZM65.2837 53L71.6332 40.4432V40.3366H64.2894V38.4545H73.9059V40.4006L67.5778 53H65.2837ZM81.1413 53.1989C80.4927 53.1894 79.8535 53.071 79.2237 52.8438C78.5987 52.6165 78.0305 52.2377 77.5192 51.7074C77.0078 51.1771 76.5982 50.4645 76.2905 49.5696C75.9875 48.6747 75.8359 47.5573 75.8359 46.2173C75.8359 44.9484 75.9614 43.8215 76.2124 42.8366C76.468 41.8518 76.835 41.0208 77.3132 40.3438C77.7914 39.6619 78.3691 39.1435 79.0462 38.7884C79.7232 38.4332 80.4832 38.2557 81.326 38.2557C82.1925 38.2557 82.9619 38.4261 83.6342 38.767C84.3066 39.108 84.8511 39.5791 85.2678 40.1804C85.6892 40.7817 85.9567 41.4659 86.0703 42.233H83.9041C83.7573 41.6269 83.4661 41.1321 83.0305 40.7486C82.5949 40.3651 82.0268 40.1733 81.326 40.1733C80.2607 40.1733 79.4297 40.6373 78.8331 41.5653C78.2412 42.4934 77.9429 43.7836 77.9382 45.4361H78.0447C78.2957 45.0241 78.6035 44.6738 78.968 44.3849C79.3374 44.0914 79.7493 43.8665 80.2038 43.7102C80.6631 43.5492 81.1461 43.4688 81.6527 43.4688C82.4955 43.4688 83.2578 43.6747 83.9396 44.0866C84.6262 44.4938 85.1731 45.0573 85.5803 45.777C85.9875 46.4967 86.1911 47.3205 86.1911 48.2486C86.1911 49.1766 85.9804 50.017 85.5589 50.7699C85.1423 51.5227 84.5552 52.1193 83.7976 52.5597C83.04 52.9953 82.1546 53.2083 81.1413 53.1989ZM81.1342 51.3523C81.6929 51.3523 82.1925 51.215 82.6328 50.9403C83.0732 50.6657 83.4212 50.2964 83.6768 49.8324C83.9325 49.3684 84.0604 48.8499 84.0604 48.277C84.0604 47.7183 83.9349 47.2093 83.6839 46.75C83.4377 46.2907 83.0968 45.9261 82.6612 45.6562C82.2304 45.3864 81.7379 45.2514 81.1839 45.2514C80.7625 45.2514 80.3719 45.3319 80.0121 45.4929C79.657 45.6539 79.3445 45.8764 79.0746 46.1605C78.8047 46.4446 78.5916 46.7713 78.4354 47.1406C78.2839 47.5052 78.2081 47.8911 78.2081 48.2983C78.2081 48.8428 78.3336 49.3471 78.5845 49.8111C78.8402 50.2751 79.1882 50.6491 79.6286 50.9332C80.0736 51.2126 80.5755 51.3523 81.1342 51.3523ZM90.9052 51.0114L90.7987 51.7855C90.7276 52.3537 90.6069 52.9455 90.4364 53.5611C90.2707 54.1813 90.0979 54.7566 89.918 55.2869C89.7428 55.8172 89.5984 56.2386 89.4847 56.5511H87.979C88.0406 56.2576 88.1258 55.8598 88.2347 55.358C88.3436 54.8608 88.4502 54.3045 88.5543 53.6889C88.6585 53.0734 88.7366 52.446 88.7887 51.8068L88.8597 51.0114H90.9052ZM98.4425 53.1989C97.5523 53.1989 96.7521 53.0284 96.0419 52.6875C95.3364 52.3419 94.773 51.8684 94.3516 51.267C93.9302 50.6657 93.7053 49.9792 93.6768 49.2074H95.8075C95.8596 49.8324 96.1366 50.3461 96.6385 50.7486C97.1404 51.151 97.7417 51.3523 98.4425 51.3523C99.0012 51.3523 99.496 51.2244 99.9268 50.9688C100.362 50.7083 100.703 50.3509 100.95 49.8963C101.201 49.4418 101.326 48.9233 101.326 48.3409C101.326 47.7491 101.198 47.2211 100.942 46.7571C100.687 46.2931 100.334 45.9285 99.8842 45.6634C99.4392 45.3982 98.9278 45.2633 98.3501 45.2585C97.9098 45.2585 97.4671 45.3343 97.022 45.4858C96.5769 45.6373 96.2171 45.8362 95.9425 46.0824L93.9325 45.7841L94.7493 38.4545H102.746V40.3366H96.5746L96.1129 44.4062H96.1982C96.4822 44.1316 96.8587 43.902 97.3274 43.7173C97.8009 43.5327 98.3075 43.4403 98.8473 43.4403C99.7327 43.4403 100.521 43.651 101.212 44.0724C101.908 44.4938 102.455 45.0691 102.853 45.7983C103.255 46.5227 103.454 47.3561 103.45 48.2983C103.454 49.2405 103.241 50.081 102.81 50.8196C102.384 51.5582 101.792 52.1406 101.035 52.5668C100.282 52.9882 99.4179 53.1989 98.4425 53.1989ZM110.958 53.1989C109.94 53.1989 109.041 53.0237 108.26 52.6733C107.483 52.3229 106.875 51.84 106.434 51.2244C105.994 50.6089 105.776 49.9081 105.781 49.1222C105.776 48.5066 105.902 47.9408 106.157 47.4247C106.418 46.9039 106.77 46.4706 107.216 46.125C107.661 45.7746 108.158 45.5521 108.707 45.4574V45.3722C107.983 45.197 107.403 44.8087 106.967 44.2074C106.531 43.6061 106.316 42.9148 106.321 42.1335C106.316 41.3902 106.512 40.7273 106.91 40.1449C107.313 39.5578 107.864 39.0961 108.565 38.7599C109.266 38.4238 110.064 38.2557 110.958 38.2557C111.844 38.2557 112.635 38.4261 113.331 38.767C114.031 39.1032 114.583 39.5649 114.985 40.152C115.388 40.7344 115.592 41.3949 115.596 42.1335C115.592 42.9148 115.369 43.6061 114.929 44.2074C114.488 44.8087 113.915 45.197 113.21 45.3722V45.4574C113.754 45.5521 114.244 45.7746 114.68 46.125C115.12 46.4706 115.471 46.9039 115.731 47.4247C115.996 47.9408 116.131 48.5066 116.136 49.1222C116.131 49.9081 115.909 50.6089 115.468 51.2244C115.028 51.84 114.417 52.3229 113.636 52.6733C112.859 53.0237 111.967 53.1989 110.958 53.1989ZM110.958 51.402C111.56 51.402 112.081 51.3026 112.521 51.1037C112.961 50.9001 113.302 50.6184 113.544 50.2585C113.785 49.8939 113.908 49.4678 113.913 48.9801C113.908 48.4735 113.776 48.026 113.515 47.6378C113.26 47.2495 112.912 46.9441 112.471 46.7216C112.031 46.4991 111.527 46.3878 110.958 46.3878C110.386 46.3878 109.877 46.4991 109.431 46.7216C108.986 46.9441 108.636 47.2495 108.38 47.6378C108.125 48.026 107.999 48.4735 108.004 48.9801C107.999 49.4678 108.115 49.8939 108.352 50.2585C108.593 50.6184 108.937 50.9001 109.382 51.1037C109.827 51.3026 110.352 51.402 110.958 51.402ZM110.958 44.6335C111.441 44.6335 111.87 44.5365 112.244 44.3423C112.618 44.1482 112.912 43.8783 113.125 43.5327C113.342 43.187 113.454 42.7822 113.458 42.3182C113.454 41.8636 113.345 41.4659 113.132 41.125C112.923 40.7841 112.632 40.5213 112.258 40.3366C111.884 40.1473 111.451 40.0526 110.958 40.0526C110.457 40.0526 110.016 40.1473 109.637 40.3366C109.263 40.5213 108.972 40.7841 108.764 41.125C108.556 41.4659 108.454 41.8636 108.458 42.3182C108.454 42.7822 108.558 43.187 108.771 43.5327C108.984 43.8783 109.278 44.1482 109.652 44.3423C110.03 44.5365 110.466 44.6335 110.958 44.6335ZM123.744 53.2415C122.622 53.2367 121.663 52.9408 120.868 52.3537C120.072 51.7666 119.464 50.9119 119.043 49.7898C118.621 48.6676 118.411 47.3158 118.411 45.7344C118.411 44.1577 118.621 42.8106 119.043 41.6932C119.469 40.5758 120.08 39.7235 120.875 39.1364C121.675 38.5492 122.632 38.2557 123.744 38.2557C124.857 38.2557 125.811 38.5516 126.607 39.1435C127.402 39.7306 128.01 40.5829 128.432 41.7003C128.858 42.813 129.071 44.1577 129.071 45.7344C129.071 47.3205 128.86 48.6747 128.439 49.7969C128.018 50.9143 127.409 51.7689 126.614 52.3608C125.818 52.9479 124.862 53.2415 123.744 53.2415ZM123.744 51.3452C124.729 51.3452 125.499 50.8646 126.053 49.9034C126.611 48.9422 126.891 47.5526 126.891 45.7344C126.891 44.527 126.763 43.5066 126.507 42.6733C126.256 41.8352 125.894 41.2008 125.42 40.7699C124.952 40.3343 124.393 40.1165 123.744 40.1165C122.764 40.1165 121.995 40.5994 121.436 41.5653C120.877 42.5312 120.596 43.9209 120.591 45.7344C120.591 46.9465 120.716 47.9716 120.967 48.8097C121.223 49.643 121.585 50.2751 122.054 50.706C122.523 51.1321 123.086 51.3452 123.744 51.3452Z" fill="#242121"/>
<path d="M317.239 29.2382C316.914 29.2335 316.595 29.1743 316.28 29.0607C315.967 28.947 315.683 28.7576 315.428 28.4925C315.172 28.2273 314.967 27.871 314.813 27.4236C314.662 26.9762 314.586 26.4174 314.586 25.7475C314.586 25.113 314.649 24.5495 314.774 24.0571C314.902 23.5647 315.085 23.1492 315.325 22.8107C315.564 22.4698 315.853 22.2105 316.191 22.033C316.53 21.8554 316.91 21.7666 317.331 21.7666C317.764 21.7666 318.149 21.8519 318.485 22.0223C318.821 22.1928 319.094 22.4283 319.302 22.729C319.513 23.0297 319.646 23.3717 319.703 23.7553H318.62C318.547 23.4522 318.401 23.2048 318.183 23.0131C317.965 22.8213 317.681 22.7254 317.331 22.7254C316.798 22.7254 316.383 22.9574 316.085 23.4215C315.789 23.8855 315.639 24.5306 315.637 25.3568H315.69C315.816 25.1509 315.97 24.9757 316.152 24.8313C316.337 24.6845 316.543 24.572 316.77 24.4939C317 24.4134 317.241 24.3732 317.494 24.3732C317.916 24.3732 318.297 24.4762 318.638 24.6821C318.981 24.8857 319.254 25.1674 319.458 25.5273C319.662 25.8871 319.763 26.2991 319.763 26.7631C319.763 27.2271 319.658 27.6473 319.447 28.0237C319.239 28.4002 318.946 28.6985 318.567 28.9186C318.188 29.1364 317.745 29.243 317.239 29.2382ZM317.235 28.3149C317.514 28.3149 317.764 28.2463 317.984 28.109C318.205 27.9717 318.379 27.787 318.506 27.555C318.634 27.323 318.698 27.0637 318.698 26.7773C318.698 26.4979 318.635 26.2434 318.51 26.0138C318.387 25.7842 318.216 25.6019 317.999 25.4669C317.783 25.332 317.537 25.2645 317.26 25.2645C317.049 25.2645 316.854 25.3048 316.674 25.3852C316.496 25.4657 316.34 25.577 316.205 25.719C316.07 25.8611 315.964 26.0244 315.886 26.2091C315.81 26.3914 315.772 26.5843 315.772 26.7879C315.772 27.0602 315.835 27.3123 315.96 27.5443C316.088 27.7763 316.262 27.9634 316.482 28.1054C316.705 28.2451 316.956 28.3149 317.235 28.3149ZM323.718 29.1388V23.6842H324.737V24.572H324.804C324.918 24.2714 325.104 24.037 325.362 23.8689C325.62 23.6985 325.929 23.6132 326.289 23.6132C326.653 23.6132 326.959 23.6985 327.205 23.8689C327.453 24.0394 327.637 24.2737 327.755 24.572H327.812C327.942 24.2808 328.15 24.0488 328.434 23.876C328.718 23.7008 329.056 23.6132 329.449 23.6132C329.944 23.6132 330.348 23.7683 330.66 24.0784C330.975 24.3886 331.132 24.8561 331.132 25.4811V29.1388H330.071V25.5806C330.071 25.2112 329.97 24.9437 329.769 24.778C329.568 24.6123 329.327 24.5294 329.048 24.5294C328.702 24.5294 328.434 24.636 328.242 24.849C328.05 25.0597 327.954 25.3308 327.954 25.6622V29.1388H326.896V25.5131C326.896 25.2172 326.804 24.9792 326.619 24.7993C326.434 24.6194 326.194 24.5294 325.898 24.5294C325.697 24.5294 325.511 24.5827 325.341 24.6892C325.172 24.7934 325.036 24.939 324.932 25.126C324.83 25.313 324.779 25.5297 324.779 25.7759V29.1388H323.718ZM334.853 29.2489C334.342 29.2489 333.896 29.1317 333.514 28.8973C333.133 28.6629 332.837 28.3351 332.627 27.9137C332.416 27.4923 332.311 26.9998 332.311 26.4364C332.311 25.8706 332.416 25.3758 332.627 24.952C332.837 24.5282 333.133 24.1992 333.514 23.9648C333.896 23.7304 334.342 23.6132 334.853 23.6132C335.365 23.6132 335.811 23.7304 336.192 23.9648C336.573 24.1992 336.869 24.5282 337.08 24.952C337.29 25.3758 337.396 25.8706 337.396 26.4364C337.396 26.9998 337.29 27.4923 337.08 27.9137C336.869 28.3351 336.573 28.6629 336.192 28.8973C335.811 29.1317 335.365 29.2489 334.853 29.2489ZM334.857 28.3575C335.188 28.3575 335.463 28.2699 335.681 28.0948C335.898 27.9196 336.059 27.6864 336.164 27.3952C336.27 27.104 336.323 26.7832 336.323 26.4328C336.323 26.0848 336.27 25.7652 336.164 25.474C336.059 25.1805 335.898 24.9449 335.681 24.7673C335.463 24.5898 335.188 24.501 334.857 24.501C334.523 24.501 334.246 24.5898 334.026 24.7673C333.808 24.9449 333.646 25.1805 333.539 25.474C333.435 25.7652 333.383 26.0848 333.383 26.4328C333.383 26.7832 333.435 27.104 333.539 27.3952C333.646 27.6864 333.808 27.9196 334.026 28.0948C334.246 28.2699 334.523 28.3575 334.857 28.3575ZM339.643 25.9002V29.1388H338.581V23.6842H339.6V24.572H339.668C339.793 24.2832 339.99 24.0512 340.257 23.876C340.527 23.7008 340.867 23.6132 341.276 23.6132C341.648 23.6132 341.973 23.6914 342.253 23.8476C342.532 24.0015 342.749 24.2311 342.903 24.5365C343.057 24.8419 343.134 25.2195 343.134 25.6693V29.1388H342.072V25.7972C342.072 25.4018 341.969 25.0929 341.763 24.8703C341.557 24.6454 341.274 24.533 340.914 24.533C340.668 24.533 340.449 24.5862 340.257 24.6928C340.068 24.7993 339.917 24.9556 339.806 25.1615C339.697 25.3651 339.643 25.6113 339.643 25.9002ZM347.104 23.6842V24.5365H344.124V23.6842H347.104ZM344.923 22.3774H345.985V27.5372C345.985 27.7432 346.016 27.8983 346.077 28.0024C346.139 28.1042 346.218 28.1741 346.315 28.2119C346.415 28.2475 346.522 28.2652 346.638 28.2652C346.724 28.2652 346.798 28.2593 346.862 28.2475C346.926 28.2356 346.976 28.2262 347.011 28.219L347.203 29.0962C347.142 29.1199 347.054 29.1435 346.94 29.1672C346.827 29.1932 346.685 29.2074 346.514 29.2098C346.235 29.2146 345.974 29.1648 345.733 29.0607C345.491 28.9565 345.296 28.7955 345.147 28.5777C344.998 28.3599 344.923 28.0865 344.923 27.7574V22.3774ZM349.457 25.9002V29.1388H348.395V21.8661H349.443V24.572H349.51C349.638 24.2785 349.834 24.0453 350.096 23.8725C350.359 23.6996 350.702 23.6132 351.126 23.6132C351.5 23.6132 351.827 23.6902 352.106 23.844C352.388 23.9979 352.606 24.2276 352.76 24.533C352.916 24.836 352.994 25.2148 352.994 25.6693V29.1388H351.932V25.7972C351.932 25.3971 351.829 25.0869 351.623 24.8668C351.417 24.6442 351.131 24.533 350.764 24.533C350.513 24.533 350.288 24.5862 350.089 24.6928C349.893 24.7993 349.738 24.9556 349.624 25.1615C349.513 25.3651 349.457 25.6113 349.457 25.9002ZM358.498 25.0159L357.536 25.1864C357.496 25.0633 357.432 24.9461 357.344 24.8348C357.259 24.7235 357.143 24.6324 356.996 24.5614C356.849 24.4904 356.666 24.4548 356.446 24.4548C356.145 24.4548 355.894 24.5223 355.693 24.6573C355.492 24.7898 355.391 24.9615 355.391 25.1722C355.391 25.3545 355.459 25.5012 355.594 25.6125C355.729 25.7238 355.946 25.8149 356.247 25.886L357.113 26.0848C357.615 26.2008 357.989 26.3796 358.236 26.621C358.482 26.8625 358.605 27.1762 358.605 27.5621C358.605 27.8888 358.51 28.18 358.321 28.4357C358.134 28.689 357.872 28.8878 357.536 29.0323C357.202 29.1767 356.815 29.2489 356.375 29.2489C355.764 29.2489 355.266 29.1187 354.88 28.8583C354.494 28.5955 354.257 28.2226 354.17 27.7396L355.196 27.5834C355.26 27.8509 355.391 28.0533 355.59 28.1906C355.789 28.3256 356.048 28.3931 356.368 28.3931C356.716 28.3931 356.994 28.3208 357.202 28.1764C357.411 28.0297 357.515 27.8509 357.515 27.6402C357.515 27.4698 357.451 27.3265 357.323 27.2105C357.198 27.0945 357.005 27.0069 356.744 26.9477L355.821 26.7453C355.312 26.6293 354.935 26.4447 354.692 26.1914C354.45 25.938 354.329 25.6173 354.329 25.229C354.329 24.907 354.419 24.6253 354.599 24.3838C354.779 24.1423 355.028 23.9541 355.345 23.8192C355.662 23.6819 356.026 23.6132 356.435 23.6132C357.025 23.6132 357.489 23.7411 357.827 23.9967C358.166 24.2501 358.39 24.5898 358.498 25.0159Z" fill="#7B808C"/>
<mask id="mask0_69_144" style="mask-type:alpha" maskUnits="userSpaceOnUse" x="363" y="20" width="10" height="11">
<rect x="373" y="20.8397" width="9.78232" height="9.78232" transform="rotate(90 373 20.8397)" fill="#D9D9D9"/>
</mask>
<g mask="url(#mask0_69_144)">
<path d="M364.033 24.1106L364.756 23.3871L368.109 26.7396L371.461 23.3871L372.185 24.1106L368.109 28.1865L364.033 24.1106Z" fill="#7B808C"/>
</g>
<defs>
<linearGradient id="paint0_linear_69_144" x1="272.645" y1="122.681" x2="257.492" y2="50.7213" gradientUnits="userSpaceOnUse">
<stop stop-color="#D9D9D9" stop-opacity="0"/>
<stop offset="1" stop-color="#2A8E9E"/>
</linearGradient>
</defs>
</svg>
