<svg width="219" height="56" viewBox="0 0 219 56" fill="none" xmlns="http://www.w3.org/2000/svg">
<rect y="1.14844" width="51.6797" height="51.6797" rx="10" fill="#2A8E9E"/>
<path d="M26.4141 25.2656L13.7812 14.9297V23.543L20.0977 30.4336L18.375 31.582L19.5234 40.7695L26.4141 35.0273L33.8789 40.1953V31.582L32.1562 30.4336L39.0469 24.1172L39.6211 14.9297L26.4141 25.2656Z" fill="white" stroke="#FFFEFE"/>
<path d="M74.301 19.1638C74.1024 19.3557 74.097 19.6722 74.2888 19.8708L77.4155 23.1072C77.6074 23.3058 77.9239 23.3113 78.1225 23.1194C78.3211 22.9275 78.3266 22.611 78.1347 22.4124L75.3554 19.5356L78.2322 16.7564C78.4308 16.5645 78.4363 16.248 78.2444 16.0494C78.0525 15.8508 77.736 15.8453 77.5374 16.0372L74.301 19.1638ZM141.258 20.6719L141.266 20.1719L74.6571 19.0235L74.6484 19.5234L74.6398 20.0234L141.249 21.1718L141.258 20.6719Z" fill="#1C1B1F" fill-opacity="0.28"/>
<path d="M142.76 37.1036C142.955 36.9083 142.955 36.5917 142.76 36.3964L139.578 33.2145C139.383 33.0192 139.066 33.0192 138.871 33.2145C138.675 33.4097 138.675 33.7263 138.871 33.9216L141.699 36.75L138.871 39.5784C138.675 39.7737 138.675 40.0903 138.871 40.2855C139.066 40.4808 139.383 40.4808 139.578 40.2855L142.76 37.1036ZM75.7969 36.75V37.25H142.406V36.75V36.25H75.7969V36.75Z" fill="#1C1B1F" fill-opacity="0.28"/>
<circle cx="190.641" cy="27.5625" r="27.5625" fill="#023347"/>
<mask id="mask0_67_161" style="mask-type:alpha" maskUnits="userSpaceOnUse" x="176" y="13" width="29" height="29">
<rect x="176.859" y="13.7812" width="27.5625" height="27.5625" fill="#D9D9D9"/>
</mask>
<g mask="url(#mask0_67_161)">
<path d="M182.602 33.3047V25.2656H184.898V33.3047H182.602ZM189.492 33.3047V25.2656H191.789V33.3047H189.492ZM179.156 37.8984V35.6016H202.125V37.8984H179.156ZM196.383 33.3047V25.2656H198.68V33.3047H196.383ZM179.156 22.9688V20.6719L190.641 14.9297L202.125 20.6719V22.9688H179.156ZM184.267 20.6719H197.014L190.641 17.5137L184.267 20.6719Z" fill="white"/>
</g>
</svg>
