<svg width="141" height="27" viewBox="0 0 141 27" fill="none" xmlns="http://www.w3.org/2000/svg">
<path d="M0.368 8C1.712 7.688 2.96 7.532 4.112 7.532C5.264 7.532 6.236 7.568 7.028 7.64V22.004C7.964 22.364 8.624 22.772 9.008 23.228L8.648 26H0.368L0.00800003 23.228C0.344 22.772 1.004 22.364 1.988 22.004V11.996C1.148 11.708 0.488 11.3 0.00800003 10.772L0.368 8ZM4.436 5.516C2.444 5.516 1.448 4.616 1.448 2.816C1.448 0.991999 2.444 0.079999 4.436 0.079999C6.452 0.079999 7.46 0.991999 7.46 2.816C7.46 4.616 6.452 5.516 4.436 5.516ZM10.8077 8C12.1277 7.712 13.3157 7.568 14.3717 7.568C15.4277 7.568 16.3037 7.592 16.9997 7.64V9.44C17.5997 8.936 18.3917 8.528 19.3757 8.216C20.3837 7.88 21.3437 7.712 22.2557 7.712C24.6077 7.712 26.2517 8.264 27.1877 9.368C28.1477 10.472 28.6277 12.38 28.6277 15.092V22.004C29.5637 22.364 30.2237 22.772 30.6077 23.228L30.2477 26H21.9677L21.6077 23.228C21.9437 22.772 22.6037 22.364 23.5877 22.004V14.876C23.5877 13.58 23.3717 12.716 22.9397 12.284C22.5317 11.828 21.7877 11.6 20.7077 11.6C19.6277 11.6 18.5477 11.984 17.4677 12.752V22.004C18.4037 22.364 19.0637 22.772 19.4477 23.228L19.0877 26H10.8077L10.4477 23.228C10.7837 22.772 11.4437 22.364 12.4277 22.004V11.996C11.5877 11.708 10.9277 11.3 10.4477 10.772L10.8077 8ZM39.0579 10.952C37.4739 10.952 36.6819 11.42 36.6819 12.356C36.6819 13.244 37.5099 13.904 39.1659 14.336L42.0099 15.092C44.9379 15.86 46.4019 17.552 46.4019 20.168C46.4019 21.968 45.7659 23.444 44.4939 24.596C43.2459 25.724 41.2419 26.288 38.4819 26.288C35.7459 26.288 33.6099 25.904 32.0739 25.136C32.0499 24.872 32.0379 24.608 32.0379 24.344C32.0379 23.024 32.3019 21.836 32.8299 20.78H35.8179C36.1299 21.356 36.3339 21.956 36.4299 22.58C36.9099 22.724 37.5939 22.796 38.4819 22.796C40.5939 22.796 41.6499 22.196 41.6499 20.996C41.6499 20.612 41.5059 20.3 41.2179 20.06C40.9299 19.796 40.3659 19.544 39.5259 19.304L36.6819 18.476C35.2179 18.068 34.0779 17.468 33.2619 16.676C32.4459 15.86 32.0379 14.672 32.0379 13.112C32.0379 11.528 32.6739 10.232 33.9459 9.224C35.2179 8.216 37.0299 7.712 39.3819 7.712C41.7579 7.712 43.7619 8.06 45.3939 8.756C45.4179 8.996 45.4299 9.236 45.4299 9.476C45.4299 10.724 45.1659 11.876 44.6379 12.932H41.6859C41.3739 12.38 41.1699 11.804 41.0739 11.204C40.4019 11.036 39.7299 10.952 39.0579 10.952ZM54.6521 3.464V8H59.8001V11.024H54.6521V20.132C54.6521 20.9 54.7601 21.464 54.9761 21.824C55.1921 22.16 55.7081 22.328 56.5241 22.328C57.3401 22.328 58.2161 22.148 59.1521 21.788L60.2321 24.596C58.3841 25.532 56.4881 26 54.5441 26C52.6241 26 51.3161 25.592 50.6201 24.776C49.9481 23.936 49.6121 22.724 49.6121 21.14V11.024H47.9921L47.5961 8.828C47.9801 8.372 48.7721 7.916 49.9721 7.46C50.2601 5.492 50.9441 4.16 52.0241 3.464H54.6521ZM62.2146 10.664C62.2146 10.304 62.2266 9.92 62.2506 9.512C64.4826 8.312 66.8826 7.712 69.4506 7.712C72.0186 7.712 73.8546 8.204 74.9586 9.188C76.0866 10.148 76.6506 11.756 76.6506 14.012V21.68C77.4906 21.848 78.1506 22.052 78.6306 22.292V25.424C77.4066 26 75.6546 26.288 73.3746 26.288C73.1346 25.664 72.9306 24.908 72.7626 24.02C71.7306 25.532 69.8586 26.288 67.1466 26.288C65.5386 26.288 64.1586 25.82 63.0066 24.884C61.8786 23.948 61.3146 22.676 61.3146 21.068C61.3146 19.46 61.8426 18.2 62.8986 17.288C63.9786 16.352 65.5746 15.884 67.6866 15.884H71.6106V14.156C71.6106 12.284 70.6146 11.348 68.6226 11.348C67.8786 11.348 67.2666 11.42 66.7866 11.564C66.7386 12.572 66.5946 13.352 66.3546 13.904H62.8266C62.4186 13.064 62.2146 11.984 62.2146 10.664ZM68.6946 22.616C69.9186 22.616 70.8906 22.256 71.6106 21.536V18.584H69.0906C67.3626 18.584 66.4986 19.244 66.4986 20.564C66.4986 21.164 66.6786 21.656 67.0386 22.04C67.4226 22.424 67.9746 22.616 68.6946 22.616ZM88.3765 11.384C86.1685 11.384 85.0645 13.28 85.0645 17.072C85.0645 18.992 85.3645 20.336 85.9645 21.104C86.5885 21.848 87.4765 22.22 88.6285 22.22C90.4525 22.22 92.0605 22.052 93.4525 21.716L94.5325 24.488C93.7645 24.992 92.7325 25.424 91.4365 25.784C90.1405 26.12 88.8805 26.288 87.6565 26.288C82.4725 26.288 79.8805 23.288 79.8805 17.288C79.8805 13.784 80.7805 11.264 82.5805 9.728C84.1885 8.384 86.1445 7.712 88.4485 7.712C90.7525 7.712 92.6725 8.144 94.2085 9.008C94.2325 9.248 94.2445 9.476 94.2445 9.692C94.2445 11.06 93.9325 12.356 93.3085 13.58H90.1405C89.8045 12.98 89.6005 12.26 89.5285 11.42C89.2405 11.396 88.8565 11.384 88.3765 11.384ZM96.8435 10.664C96.8435 10.304 96.8555 9.92 96.8795 9.512C99.1115 8.312 101.512 7.712 104.08 7.712C106.648 7.712 108.484 8.204 109.588 9.188C110.716 10.148 111.28 11.756 111.28 14.012V21.68C112.12 21.848 112.78 22.052 113.26 22.292V25.424C112.036 26 110.284 26.288 108.004 26.288C107.764 25.664 107.56 24.908 107.392 24.02C106.36 25.532 104.488 26.288 101.776 26.288C100.168 26.288 98.7875 25.82 97.6355 24.884C96.5075 23.948 95.9435 22.676 95.9435 21.068C95.9435 19.46 96.4715 18.2 97.5275 17.288C98.6075 16.352 100.204 15.884 102.316 15.884H106.24V14.156C106.24 12.284 105.244 11.348 103.252 11.348C102.508 11.348 101.896 11.42 101.416 11.564C101.368 12.572 101.224 13.352 100.984 13.904H97.4555C97.0475 13.064 96.8435 11.984 96.8435 10.664ZM103.324 22.616C104.548 22.616 105.52 22.256 106.24 21.536V18.584H103.72C101.992 18.584 101.128 19.244 101.128 20.564C101.128 21.164 101.308 21.656 101.668 22.04C102.052 22.424 102.604 22.616 103.324 22.616ZM125.345 12.428C123.521 12.428 122.261 12.776 121.565 13.472V21.716C123.509 22.076 124.841 22.58 125.561 23.228L125.201 26H114.905L114.545 23.228C114.881 22.772 115.541 22.364 116.525 22.004V11.996C115.685 11.708 115.025 11.3 114.545 10.772L114.905 8C116.225 7.712 117.413 7.568 118.469 7.568C119.525 7.568 120.401 7.592 121.097 7.64V9.908C121.649 9.26 122.357 8.732 123.221 8.324C124.085 7.892 124.865 7.676 125.561 7.676C126.281 7.676 126.773 7.736 127.037 7.856L126.929 12.536C126.449 12.464 125.921 12.428 125.345 12.428ZM135.054 3.464V8H140.202V11.024H135.054V20.132C135.054 20.9 135.162 21.464 135.378 21.824C135.594 22.16 136.11 22.328 136.926 22.328C137.742 22.328 138.618 22.148 139.554 21.788L140.634 24.596C138.786 25.532 136.89 26 134.946 26C133.026 26 131.718 25.592 131.022 24.776C130.35 23.936 130.014 22.724 130.014 21.14V11.024H128.394L127.998 8.828C128.382 8.372 129.174 7.916 130.374 7.46C130.662 5.492 131.346 4.16 132.426 3.464H135.054Z" fill="#023247"/>
</svg>
