<svg width="140" height="27" viewBox="0 0 140 27" fill="none" xmlns="http://www.w3.org/2000/svg">
<path d="M0.98 26V1.232H9.332V11.096H11.888L16.712 1.232H25.712L19.16 13.508L26.612 26H17.108L11.78 16.46H9.332V26H0.98ZM34.6108 26.288C32.9068 26.288 31.5148 26 30.4348 25.424C29.3788 24.848 28.6108 24.068 28.1308 23.084C27.6508 22.1 27.4108 20.996 27.4108 19.772V1.556L35.0068 0.439999V18.728C35.0068 19.28 35.1868 19.712 35.5468 20.024C35.9068 20.312 36.3748 20.456 36.9508 20.456C37.5268 20.456 38.1028 20.312 38.6788 20.024L39.2188 25.028C38.6428 25.436 37.9108 25.748 37.0228 25.964C36.1348 26.18 35.3308 26.288 34.6108 26.288ZM48.799 26.288C47.143 26.288 45.643 25.892 44.299 25.1C42.955 24.284 41.887 23.168 41.095 21.752C40.327 20.336 39.943 18.716 39.943 16.892C39.943 15.068 40.327 13.472 41.095 12.104C41.887 10.736 42.955 9.668 44.299 8.9C45.643 8.108 47.143 7.712 48.799 7.712C49.975 7.712 51.115 8.036 52.219 8.684C53.323 9.332 54.175 10.4 54.775 11.888V7.964H62.263V26H54.703V22.652C54.127 23.828 53.359 24.728 52.399 25.352C51.439 25.976 50.239 26.288 48.799 26.288ZM51.139 20.6C52.123 20.6 52.963 20.252 53.659 19.556C54.355 18.836 54.703 17.96 54.703 16.928C54.703 15.896 54.355 15.056 53.659 14.408C52.963 13.736 52.123 13.4 51.139 13.4C50.107 13.4 49.243 13.748 48.547 14.444C47.851 15.14 47.503 15.992 47.503 17C47.503 18.008 47.851 18.86 48.547 19.556C49.243 20.252 50.107 20.6 51.139 20.6ZM65.8742 26V7.964H73.3622V12.464C73.8422 10.832 74.5862 9.632 75.5942 8.864C76.6262 8.096 77.8502 7.712 79.2662 7.712L80.1662 14.084C79.5902 14.012 79.0262 13.976 78.4742 13.976C75.1382 13.976 73.4702 15.344 73.4702 18.08V26H65.8742ZM81.9758 26V7.964H89.4638V11.888C90.0158 10.544 90.8318 9.512 91.9118 8.792C93.0158 8.072 94.3238 7.712 95.8358 7.712C98.1878 7.712 100.012 8.528 101.308 10.16C102.604 11.768 103.252 14.048 103.252 17V26H95.6558V16.604C95.6558 14.468 94.7918 13.4 93.0638 13.4C92.0318 13.4 91.1918 13.784 90.5438 14.552C89.8958 15.296 89.5718 16.304 89.5718 17.576V26H81.9758ZM114.611 26.288C112.955 26.288 111.455 25.892 110.111 25.1C108.767 24.284 107.699 23.168 106.907 21.752C106.139 20.336 105.755 18.716 105.755 16.892C105.755 15.068 106.139 13.472 106.907 12.104C107.699 10.736 108.767 9.668 110.111 8.9C111.455 8.108 112.955 7.712 114.611 7.712C115.787 7.712 116.927 8.036 118.031 8.684C119.135 9.332 119.987 10.4 120.587 11.888V7.964H128.075V26H120.515V22.652C119.939 23.828 119.171 24.728 118.211 25.352C117.251 25.976 116.051 26.288 114.611 26.288ZM116.951 20.6C117.935 20.6 118.775 20.252 119.471 19.556C120.167 18.836 120.515 17.96 120.515 16.928C120.515 15.896 120.167 15.056 119.471 14.408C118.775 13.736 117.935 13.4 116.951 13.4C115.919 13.4 115.055 13.748 114.359 14.444C113.663 15.14 113.315 15.992 113.315 17C113.315 18.008 113.663 18.86 114.359 19.556C115.055 20.252 115.919 20.6 116.951 20.6ZM135.035 26.216C133.715 26.216 132.707 25.868 132.011 25.172C131.315 24.452 130.967 23.576 130.967 22.544C130.967 21.488 131.339 20.624 132.083 19.952C132.827 19.256 133.811 18.908 135.035 18.908C136.259 18.908 137.231 19.268 137.951 19.988C138.695 20.708 139.067 21.56 139.067 22.544C139.067 23.648 138.719 24.536 138.023 25.208C137.351 25.88 136.355 26.216 135.035 26.216Z" fill="#023347"/>
</svg>
