<svg width="151" height="44" viewBox="0 0 151 44" fill="none" xmlns="http://www.w3.org/2000/svg">
<path d="M39.8764 35V8.81818H56.1122V12.2188H43.8267V20.196H54.9489V23.5838H43.8267V35H39.8764ZM60.6634 35V15.3636H64.4858V35H60.6634ZM62.5938 12.3338C61.929 12.3338 61.358 12.1122 60.8807 11.669C60.4119 11.2173 60.1776 10.6804 60.1776 10.0582C60.1776 9.42756 60.4119 8.89062 60.8807 8.44744C61.358 7.99574 61.929 7.76989 62.5938 7.76989C63.2585 7.76989 63.8253 7.99574 64.294 8.44744C64.7713 8.89062 65.0099 9.42756 65.0099 10.0582C65.0099 10.6804 64.7713 11.2173 64.294 11.669C63.8253 12.1122 63.2585 12.3338 62.5938 12.3338ZM73.4506 23.3409V35H69.6282V15.3636H73.2972V18.5597H73.5401C73.9918 17.5199 74.6992 16.6847 75.6623 16.054C76.6339 15.4233 77.8569 15.108 79.3313 15.108C80.6694 15.108 81.8413 15.3892 82.8469 15.9517C83.8526 16.5057 84.6325 17.3324 85.1864 18.4318C85.7404 19.5312 86.0174 20.8906 86.0174 22.5099V35H82.195V22.9702C82.195 21.5469 81.8242 20.4347 81.0827 19.6335C80.3413 18.8239 79.3228 18.419 78.0273 18.419C77.141 18.419 76.3526 18.6108 75.6623 18.9943C74.9805 19.3778 74.4393 19.9403 74.0387 20.6818C73.6467 21.4148 73.4506 22.3011 73.4506 23.3409ZM91.1438 42.3636V15.3636H94.8768V18.5469H95.1964C95.418 18.1378 95.7376 17.6648 96.1552 17.1278C96.5728 16.5909 97.1523 16.1222 97.8938 15.7216C98.6353 15.3125 99.6154 15.108 100.834 15.108C102.419 15.108 103.834 15.5085 105.078 16.3097C106.323 17.1108 107.299 18.2656 108.006 19.7741C108.722 21.2827 109.08 23.098 109.08 25.2202C109.08 27.3423 108.726 29.1619 108.019 30.679C107.311 32.1875 106.34 33.3509 105.104 34.169C103.868 34.9787 102.458 35.3835 100.873 35.3835C99.6793 35.3835 98.7035 35.1832 97.945 34.7827C97.195 34.3821 96.6069 33.9134 96.1808 33.3764C95.7546 32.8395 95.4265 32.3622 95.1964 31.9446H94.9663V42.3636H91.1438ZM94.8896 25.1818C94.8896 26.5625 95.0898 27.7727 95.4904 28.8125C95.891 29.8523 96.4705 30.6662 97.229 31.2543C97.9876 31.8338 98.9165 32.1236 100.016 32.1236C101.158 32.1236 102.113 31.821 102.88 31.2159C103.647 30.6023 104.226 29.7713 104.618 28.723C105.019 27.6747 105.219 26.4943 105.219 25.1818C105.219 23.8864 105.023 22.723 104.631 21.6918C104.248 20.6605 103.668 19.8466 102.892 19.25C102.125 18.6534 101.167 18.3551 100.016 18.3551C98.908 18.3551 97.9705 18.6406 97.2035 19.2116C96.445 19.7827 95.8697 20.5795 95.4776 21.6023C95.0856 22.625 94.8896 23.8182 94.8896 25.1818ZM119.077 35.4347C117.833 35.4347 116.708 35.2045 115.702 34.7443C114.696 34.2756 113.9 33.598 113.311 32.7116C112.732 31.8253 112.442 30.7386 112.442 29.4517C112.442 28.3437 112.655 27.4318 113.081 26.7159C113.507 26 114.083 25.4332 114.807 25.0156C115.532 24.598 116.341 24.2827 117.236 24.0696C118.131 23.8565 119.043 23.6946 119.972 23.5838C121.148 23.4474 122.103 23.3366 122.836 23.2514C123.569 23.1577 124.101 23.0085 124.434 22.804C124.766 22.5994 124.932 22.267 124.932 21.8068V21.7173C124.932 20.6009 124.617 19.7358 123.986 19.1222C123.364 18.5085 122.435 18.2017 121.199 18.2017C119.912 18.2017 118.898 18.4872 118.157 19.0582C117.424 19.6207 116.917 20.2472 116.635 20.9375L113.043 20.1193C113.469 18.9261 114.091 17.9631 114.909 17.2301C115.736 16.4886 116.686 15.9517 117.76 15.6193C118.834 15.2784 119.963 15.108 121.148 15.108C121.932 15.108 122.763 15.2017 123.641 15.3892C124.527 15.5682 125.354 15.9006 126.121 16.3864C126.897 16.8722 127.532 17.5668 128.026 18.4702C128.52 19.3651 128.767 20.5284 128.767 21.9602V35H125.034V32.3153H124.881C124.634 32.8097 124.263 33.2955 123.769 33.7727C123.275 34.25 122.64 34.6463 121.864 34.9616C121.088 35.277 120.159 35.4347 119.077 35.4347ZM119.908 32.3665C120.965 32.3665 121.868 32.1577 122.618 31.7401C123.377 31.3224 123.952 30.777 124.344 30.1037C124.745 29.4219 124.945 28.6932 124.945 27.9176V25.3864C124.809 25.5227 124.544 25.6506 124.152 25.7699C123.769 25.8807 123.33 25.9787 122.836 26.0639C122.341 26.1406 121.86 26.2131 121.391 26.2812C120.922 26.3409 120.53 26.392 120.215 26.4347C119.473 26.5284 118.796 26.6861 118.182 26.9077C117.577 27.1293 117.091 27.4489 116.725 27.8665C116.367 28.2756 116.188 28.821 116.188 29.5028C116.188 30.4489 116.537 31.1648 117.236 31.6506C117.935 32.1278 118.826 32.3665 119.908 32.3665ZM135.572 42.3636C135.001 42.3636 134.481 42.3168 134.012 42.223C133.543 42.1378 133.194 42.044 132.964 41.9418L133.884 38.8097C134.583 38.9972 135.205 39.0781 135.751 39.0526C136.296 39.027 136.778 38.8224 137.195 38.4389C137.621 38.0554 137.996 37.429 138.32 36.5597L138.793 35.2557L131.609 15.3636H135.7L140.673 30.6023H140.877L145.85 15.3636H149.954L141.862 37.6207C141.487 38.6435 141.009 39.5085 140.43 40.2159C139.85 40.9318 139.16 41.4688 138.359 41.8267C137.558 42.1847 136.629 42.3636 135.572 42.3636Z" fill="#033247"/>
<path d="M0 7V26.7447L21.5957 11.3191V26.7447L9.25532 36H29V7H0Z" fill="#033247"/>
</svg>
